{
.appVersion = "3112";
.formatVersion = 3;
customParameters = (
{
name = vendorID;
value = PYRS;
},
{
name = panose;
value = (
2,
11,
6,
3,
3,
0,
0,
2,
0,
4
);
},
{
name = unicodeRanges;
value = (
0,
1,
2,
3,
5,
6,
9,
31,
33,
35,
37,
38,
47
);
},
{
name = codePageRanges;
value = (
"1252",
"1250",
"1251",
"1254",
"1257",
"bit 29"
);
},
{
name = fsType;
value = (
);
},
{
name = glyphOrder;
value = (
.notdef,
NULL,
uni000D,
space,
E,
F,
H,
I,
L,
M,
N,
P,
R,
U,
V,
W,
X,
Y,
Z,
b,
d,
h,
i,
l,
m,
n,
p,
q,
u,
v,
w,
x,
z,
period,
comma,
A,
breve,
circumflex,
uni0326,
exclam,
quotedbl,
quotesingle,
numbersign,
percent,
asterisk,
plus,
slash,
colon,
semicolon,
less,
equal,
greater,
at,
bracketleft,
bracketright,
backslash,
asciicircum,
underscore,
braceleft,
bar,
braceright,
Euro,
quotedblbase,
quotesinglbase,
quotedblright,
quoteright,
quotedblleft,
quoteleft,
minus,
hyphen,
endash,
emdash,
grave,
acute,
guillemotright,
guilsinglright,
guillemotleft,
guilsinglleft,
uni00AD,
ellipsis,
uni0445,
uni0431,
uni0432,
uni0433,
uni0434,
uni0436,
uni043A,
uni0438,
uni0439,
uni043B,
uni043C,
uni043D,
uni043F,
uni0442,
uni0444,
uni0446,
uni0447,
uni0448,
uni0449,
uni044A,
uni044B,
uni044C,
uni044E,
uni044F,
uni0410,
uni0415,
uni041C,
uni041D,
uni0420,
uni0422,
uni0425,
T,
uni0412,
uni041F,
uni0413,
uni041B,
uni0414,
uni0411,
uni0416,
uni0417,
uni0418,
uni0419,
uni041A,
uni0423,
uni0424,
uni0426,
uni0427,
uni0428,
uni0429,
uni042A,
uni042B,
uni042C,
uni042D,
uni042E,
uni042F,
uni0440,
O,
a,
c,
e,
f,
g,
j,
o,
r,
t,
y2_alt,
uni0443,
uni0451,
uni0437,
uni044D,
C,
S,
uni0421,
G,
uni041E,
Q,
J,
K_alt,
K,
k_alt,
k,
i_alt,
j_alt,
s_alt,
s,
c_alt,
copyright,
ampersand,
dollar,
parenleft,
parenright,
cent,
section,
uni04C1,
uni04C2,
w_alt,
W_alt,
zero,
one,
two,
three,
four,
seven,
eight,
nine,
uni0430,
uni0435,
uni043E,
uni0441,
uni0218,
uni0219,
uni021A,
uni021B,
question,
uni2116,
uni0401,
asciitilde,
trademark,
registered,
degree,
bullet,
uni27F5,
uni27F6,
arrowup,
arrowdown,
uni21BA,

glyphs = (
{
glyphname = .notdef;
layers = (
{
layerId = m01;
shapes = (
{
closed = 1;
nodes = (
(520,-295,l),
(520,960,l),
(20,960,l),
(20,-295,l)
);
},
{
closed = 1;
nodes = (
(510,950,l),
(510,-285,l),
(30,-285,l),
(30,950,l)
);
}
);
userData = {
assembly = "MPPEM[ ]	/* MeasurePixelPerEm */
PUSHB[ ]	/* 1 value pushed */
50 
LT[ ]	/* LessThan */
IF[ ]	/* If */
NPUSHB[ ]	/* 21 values pushed */
0 3 3 0 95 0 0 0 68 77 0 2 2 1 95 0 1 1 69 1 78 
ELSE[ ]	/* Else */
NPUSHB[ ]	/* 24 values pushed */
0 0 0 3 2 0 3 103 0 2 1 1 2 87 0 2 2 1 95 0 1 2 1 79 
EIF[ ]	/* EndIf */
PUSHB[ ]	/* 7 values pushed */
17 17 17 16 4 6 26 
CALL[ ]	/* CallFunction */";
};
width = 540;
}
);
note = ".notdef";
},
{
glyphname = E;
layers = (
{
layerId = m01;
shapes = (
{
closed = 1;
nodes = (
(573,0,l),
(573,103,l),
(198,103,l),
(198,297,l),
(530,297,l),
(530,402,l),
(198,402,l),
(198,603,l),
(573,603,l),
(573,707,l),
(82,707,l),
(82,0,l)
);
}
);
userData = {
assembly = "NPUSHB[ ]	/* 38 values pushed */
0 2 0 3 4 2 3 103 0 1 1 0 95 0 0 0 38 77 0 4 4 5 95 0 5 5 39 5 78 17 17 17 17 17 16 6 8 28 
CALL[ ]	/* CallFunction */";
};
width = 616;
}
);
note = E;
unicode = 69;
},
{
glyphname = F;
layers = (
{
layerId = m01;
shapes = (
{
closed = 1;
nodes = (
(198,276,l),
(514,276,l),
(514,379,l),
(198,379,l),
(198,603,l),
(567,603,l),
(567,707,l),
(82,707,l),
(82,0,l),
(198,0,l)
);
}
);
userData = {
assembly = "NPUSHB[ ]	/* 38 values pushed */
0 2 0 3 4 2 3 103 0 1 1 0 95 0 0 0 38 77 5 1 4 4 39 4 78 0 0 0 9 0 9 17 17 17 17 6 8 26 
CALL[ ]	/* CallFunction */";
};
width = 599;
}
);
note = F;
unicode = 70;
},
{
glyphname = H;
layers = (
{
layerId = m01;
shapes = (
{
closed = 1;
nodes = (
(198,707,l),
(82,707,l),
(82,0,l),
(198,0,l),
(198,296,l),
(544,296,l),
(544,0,l),
(660,0,l),
(660,707,l),
(544,707,l),
(544,400,l),
(198,400,l)
);
}
);
userData = {
assembly = "NPUSHB[ ]	/* 36 values pushed */
6 1 5 0 2 1 5 2 103 4 1 0 0 38 77 3 1 1 1 39 1 78 0 0 0 11 0 11 17 17 17 17 17 7 8 27 
CALL[ ]	/* CallFunction */";
};
width = 742;
}
);
note = H;
unicode = 72;
},
{
glyphname = I;
layers = (
{
layerId = m01;
shapes = (
{
closed = 1;
nodes = (
(82,707,l),
(82,0,l),
(198,0,l),
(198,707,l)
);
}
);
userData = {
assembly = "NPUSHB[ ]	/* 16 values pushed */
0 1 1 38 77 0 0 0 39 0 78 17 16 2 8 24 
CALL[ ]	/* CallFunction */";
};
width = 280;
}
);
note = I;
unicode = 73;
},
{
glyphname = L;
layers = (
{
layerId = m01;
shapes = (
{
closed = 1;
nodes = (
(565,0,l),
(565,103,l),
(197,103,l),
(197,707,l),
(82,707,l),
(82,0,l)
);
}
);
userData = {
assembly = "NPUSHB[ ]	/* 22 values pushed */
0 0 0 38 77 0 1 1 2 96 0 2 2 39 2 78 17 17 16 3 8 25 
CALL[ ]	/* CallFunction */";
};
width = 600;
}
);
note = L;
unicode = 76;
},
{
glyphname = M;
layers = (
{
layerId = m01;
shapes = (
{
closed = 1;
nodes = (
(197,551,l),
(410,184,l),
(462,184,l),
(675,551,l),
(675,0,l),
(790,0,l),
(790,707,l),
(648,707,l),
(439,345,l),
(228,707,l),
(82,707,l),
(82,0,l),
(197,0,l)
);
}
);
userData = {
assembly = "NPUSHB[ ]	/* 43 values pushed */
11 8 3 3 3 0 1 76 0 3 0 2 0 3 2 128 1 1 0 0 38 77 5 4 2 2 2 39 2 78 0 0 0 12 0 12 18 17 18 17 6 8 26 
CALL[ ]	/* CallFunction */";
};
width = 872;
}
);
note = M;
unicode = 77;
},
{
glyphname = N;
layers = (
{
layerId = m01;
shapes = (
{
closed = 1;
nodes = (
(196,529,l),
(550,0,l),
(674,0,l),
(674,707,l),
(559,707,l),
(559,176,l),
(207,707,l),
(82,707,l),
(82,0,l),
(196,0,l)
);
}
);
userData = {
assembly = "NPUSHB[ ]	/* 33 values pushed */
8 3 2 2 0 1 76 1 1 0 0 38 77 4 3 2 2 2 39 2 78 0 0 0 9 0 9 17 18 17 5 8 25 
CALL[ ]	/* CallFunction */";
};
width = 756;
}
);
note = N;
unicode = 78;
},
{
glyphname = P;
layers = (
{
layerId = m01;
shapes = (
{
closed = 1;
nodes = (
(198,0,l),
(198,222,l),
(337,222,ls),
(397,222,o),
(495,254,o),
(566,316,o),
(605,408,o),
(605,467,qs),
(605,531,o),
(568,622,o),
(499,680,o),
(402,707,o),
(341,707,qs),
(82,707,l),
(82,0,l)
);
},
{
closed = 1;
nodes = (
(198,603,l),
(338,603,ls),
(412,603,o),
(489,537,o),
(489,462,qs),
(487,391,o),
(398,324,o),
(331,324,qs),
(198,324,l)
);
}
);
userData = {
assembly = "NPUSHB[ ]	/* 39 values pushed */
5 1 3 0 1 2 3 1 103 0 4 4 0 95 0 0 0 38 77 0 2 2 39 2 78 16 15 22 20 15 23 16 23 17 40 32 6 8 25 
CALL[ ]	/* CallFunction */";
};
width = 649;
}
);
note = P;
unicode = 80;
},
{
glyphname = R;
layers = (
{
layerId = m01;
shapes = (
{
closed = 1;
nodes = (
(383,194,o),
(454,65,o),
(489,0,q),
(618,0,l),
(465,274,l),
(497,282,o),
(553,317,o),
(595,370,o),
(620,441,o),
(620,484,qs),
(620,547,o),
(579,633,o),
(508,685,o),
(412,707,o),
(357,707,qs),
(82,707,l),
(82,0,l),
(198,0,l),
(198,259,l),
(347,259,l)
);
},
{
closed = 1;
nodes = (
(198,603,l),
(353,603,ls),
(387,603,o),
(443,592,o),
(483,565,o),
(504,521,o),
(504,487,qs),
(504,449,o),
(479,400,o),
(435,372,o),
(375,360,o),
(341,360,qs),
(198,360,l)
);
}
);
userData = {
assembly = "NPUSHB[ ]	/* 53 values pushed */
14 1 3 4 1 76 7 1 4 6 1 3 0 4 3 103 0 5 5 1 95 0 1 1 38 77 2 1 0 0 39 0 78 21 20 0 0 31 29 20 32 21 32 0 19 0 19 26 33 17 8 8 25 
CALL[ ]	/* CallFunction */";
};
width = 668;
}
);
note = R;
unicode = 82;
},
{
glyphname = U;
layers = (
{
layerId = m01;
shapes = (
{
closed = 1;
nodes = (
(548,312,ls),
(548,269,o),
(531,191,o),
(490,131,o),
(422,96,o),
(372,96,qs),
(321,96,o),
(253,131,o),
(211,190,o),
(193,268,o),
(193,312,qs),
(193,707,l),
(77,707,l),
(77,316,ls),
(77,244,o),
(110,125,o),
(181,40,o),
(292,-8,o),
(371,-8,qs),
(450,-8,o),
(561,40,o),
(631,126,o),
(664,245,o),
(664,316,qs),
(664,707,l),
(548,707,l)
);
}
);
userData = {
assembly = "NPUSHB[ ]	/* 30 values pushed */
4 3 2 1 1 38 77 0 2 2 0 97 0 0 0 47 0 78 0 0 0 25 0 25 37 21 37 5 8 25 
CALL[ ]	/* CallFunction */";
};
width = 741;
}
);
note = U;
unicode = 85;
},
{
glyphname = V;
layers = (
{
layerId = m01;
shapes = (
{
closed = 1;
nodes = (
(276,0,l),
(417,0,l),
(683,707,l),
(558,707,l),
(348,124,l),
(137,707,l),
(9,707,l)
);
}
);
userData = {
assembly = "NPUSHB[ ]	/* 30 values pushed */
1 1 1 0 1 76 3 2 2 0 0 38 77 0 1 1 39 1 78 0 0 0 6 0 6 17 18 4 8 24 
CALL[ ]	/* CallFunction */";
};
width = 692;
}
);
note = V;
unicode = 86;
},
{
glyphname = W;
kernLeft = W;
kernRight = W;
layers = (
{
layerId = m01;
shapes = (
{
closed = 1;
nodes = (
(278,115,l),
(141,707,l),
(9,707,l),
(193,0,l),
(359,0,l),
(488,590,l),
(617,0,l),
(781,0,l),
(959,707,l),
(834,707,l),
(700,115,l),
(573,707,l),
(407,707,l)
);
}
);
userData = {
assembly = "NPUSHB[ ]	/* 36 values pushed */
11 6 1 3 1 0 1 76 5 4 3 3 0 0 38 77 2 1 1 1 39 1 78 0 0 0 12 0 12 17 18 17 18 6 8 26 
CALL[ ]	/* CallFunction */";
};
width = 968;
}
);
note = W;
unicode = 87;
},
{
glyphname = X;
layers = (
{
layerId = m01;
shapes = (
{
closed = 1;
nodes = (
(154,707,l),
(16,707,l),
(244,354,l),
(9,0,l),
(141,0,l),
(314,263,l),
(483,0,l),
(620,0,l),
(386,355,l),
(613,707,l),
(477,707,l),
(316,444,l)
);
}
);
userData = {
assembly = "NPUSHB[ ]	/* 29 values pushed */
11 8 5 2 4 1 0 1 76 3 1 0 0 38 77 2 1 1 1 39 1 78 18 18 18 16 4 8 26 
CALL[ ]	/* CallFunction */";
};
width = 629;
}
);
note = X;
unicode = 88;
},
{
glyphname = Y;
kernLeft = Y;
kernRight = Y;
layers = (
{
layerId = m01;
shapes = (
{
closed = 1;
nodes = (
(143,707,l),
(9,707,l),
(267,264,l),
(267,0,l),
(383,0,l),
(383,265,l),
(638,707,l),
(507,707,l),
(326,377,l)
);
}
);
userData = {
assembly = "NPUSHB[ ]	/* 26 values pushed */
8 5 2 3 1 0 1 76 2 1 0 0 38 77 0 1 1 39 1 78 18 18 16 3 8 25 
CALL[ ]	/* CallFunction */";
};
width = 647;
}
);
note = Y;
unicode = 89;
},
{
glyphname = Z;
layers = (
{
layerId = m01;
shapes = (
{
closed = 1;
nodes = (
(39,92,l),
(39,0,l),
(568,0,l),
(568,103,l),
(185,103,l),
(575,616,l),
(575,707,l),
(50,707,l),
(50,603,l),
(427,603,l)
);
}
);
userData = {
assembly = "NPUSHB[ ]	/* 44 values pushed */
3 1 3 0 8 1 2 1 2 76 4 1 3 3 0 95 0 0 0 38 77 0 1 1 2 95 0 2 2 39 2 78 0 0 0 9 0 9 17 18 17 5 8 25 
CALL[ ]	/* CallFunction */";
};
width = 614;
}
);
note = Z;
unicode = 90;
},
{
glyphname = b;
layers = (
{
layerId = m01;
shapes = (
{
closed = 1;
nodes = (
(174,17,o),
(175,49,o),
(176,66,q),
(236,-7,o),
(349,-7,qs),
(408,-7,o),
(495,35,o),
(553,109,o),
(581,208,o),
(581,265,qs),
(581,327,o),
(550,426,o),
(490,497,o),
(404,536,o),
(349,536,qs),
(300,536,o),
(205,493,o),
(176,453,q),
(176,707,l),
(62,707,l),
(62,0,l),
(174,0,l)
);
},
{
closed = 1;
nodes = (
(229,121,o),
(193,167,o),
(175,228,o),
(175,262,qs),
(175,293,o),
(193,355,o),
(229,404,o),
(286,434,o),
(323,434,qs),
(361,434,o),
(416,408,o),
(451,362,o),
(468,299,o),
(468,263,qs),
(468,227,o),
(451,165,o),
(416,119,o),
(362,92,o),
(325,92,qs),
(285,92,o)
);
}
);
userData = {
assembly = "MPPEM[ ]	/* MeasurePixelPerEm */
PUSHB[ ]	/* 1 value pushed */
33 
LT[ ]	/* LessThan */
IF[ ]	/* If */
NPUSHB[ ]	/* 10 values pushed */
3 1 5 1 18 1 2 4 2 76 
ELSE[ ]	/* Else */
NPUSHB[ ]	/* 10 values pushed */
3 1 5 1 18 1 3 4 2 76 
EIF[ ]	/* EndIf */
MPPEM[ ]	/* MeasurePixelPerEm */
PUSHB[ ]	/* 1 value pushed */
33 
LT[ ]	/* LessThan */
IF[ ]	/* If */
NPUSHB[ ]	/* 29 values pushed */
0 0 0 38 77 0 5 5 1 97 0 1 1 49 77 7 1 4 4 2 97 6 3 2 2 2 47 2 78 
ELSE[ ]	/* Else */
NPUSHB[ ]	/* 33 values pushed */
0 0 0 38 77 0 5 5 1 97 0 1 1 49 77 6 1 3 3 39 77 7 1 4 4 2 97 0 2 2 47 2 78 
EIF[ ]	/* EndIf */
NPUSHB[ ]	/* 20 values pushed */
23 22 0 0 33 31 22 41 23 41 0 21 0 21 40 35 17 8 8 25 
CALL[ ]	/* CallFunction */";
};
width = 623;
}
);
note = b;
unicode = 98;
},
{
glyphname = d;
kernLeft = d;
layers = (
{
layerId = m01;
shapes = (
{
closed = 1;
nodes = (
(447,707,l),
(447,470,l),
(416,508,o),
(328,536,o),
(285,536,qs),
(225,536,o),
(135,493,o),
(73,419,o),
(42,319,o),
(42,260,qs),
(42,206,o),
(69,110,o),
(127,37,o),
(215,-6,o),
(276,-7,qs),
(331,-5,o),
(419,31,o),
(448,73,q),
(454,0,l),
(561,0,l),
(561,707,l)
);
},
{
closed = 1;
nodes = (
(394,405,o),
(430,360,o),
(447,298,o),
(447,263,qs),
(447,230,o),
(429,168,o),
(392,120,o),
(337,91,o),
(300,91,qs),
(261,91,o),
(206,118,o),
(171,164,o),
(155,226,o),
(155,262,qs),
(155,298,o),
(171,361,o),
(206,407,o),
(260,433,o),
(298,433,qs),
(338,432,o)
);
}
);
userData = {
assembly = "NPUSHB[ ]	/* 10 values pushed */
18 1 4 2 2 1 0 5 2 76 
MPPEM[ ]	/* MeasurePixelPerEm */
PUSHB[ ]	/* 1 value pushed */
38 
LT[ ]	/* LessThan */
IF[ ]	/* If */
NPUSHB[ ]	/* 28 values pushed */
0 3 3 38 77 6 1 4 4 2 97 0 2 2 49 77 0 5 5 0 97 1 1 0 0 39 0 78 
ELSE[ ]	/* Else */
NPUSHB[ ]	/* 32 values pushed */
0 3 3 38 77 6 1 4 4 2 97 0 2 2 49 77 0 0 0 39 77 0 5 5 1 97 0 1 1 47 1 78 
EIF[ ]	/* EndIf */
NPUSHB[ ]	/* 15 values pushed */
22 21 32 30 21 40 22 40 19 40 35 16 7 8 26 
CALL[ ]	/* CallFunction */";
};
width = 623;
}
);
note = d;
unicode = 100;
},
{
glyphname = h;
layers = (
{
layerId = m01;
shapes = (
{
closed = 1;
nodes = (
(176,258,ls),
(176,287,o),
(186,348,o),
(222,402,o),
(278,434,o),
(310,434,qs),
(347,434,o),
(395,409,o),
(421,364,o),
(431,305,o),
(431,271,qs),
(431,0,l),
(545,0,l),
(545,289,ls),
(545,343,o),
(524,433,o),
(475,498,o),
(398,536,o),
(342,536,qs),
(293,536,o),
(204,494,o),
(176,452,q),
(176,707,l),
(62,707,l),
(62,0,l),
(176,0,l)
);
}
);
userData = {
assembly = "NPUSHB[ ]	/* 42 values pushed */
3 1 3 1 1 76 0 0 0 38 77 0 3 3 1 97 0 1 1 49 77 5 4 2 2 2 39 2 78 0 0 0 25 0 25 37 21 35 17 6 8 26 
CALL[ ]	/* CallFunction */";
};
width = 604;
}
);
note = h;
unicode = 104;
},
{
glyphname = i;
layers = (
{
layerId = m01;
shapes = (
{
closed = 1;
nodes = (
(54,708,o),
(54,675,qs),
(54,643,o),
(94,605,o),
(127,605,qs),
(158,605,o),
(199,643,o),
(199,675,qs),
(199,708,o),
(158,746,o),
(127,746,qs),
(94,746,o)
);
},
{
closed = 1;
nodes = (
(183,527,l),
(69,527,l),
(69,0,l),
(183,0,l)
);
}
);
userData = {
assembly = "MPPEM[ ]	/* MeasurePixelPerEm */
PUSHB[ ]	/* 1 value pushed */
20 
LT[ ]	/* LessThan */
IF[ ]	/* If */
NPUSHB[ ]	/* 23 values pushed */
0 1 1 0 97 4 1 0 0 48 77 0 2 2 41 77 5 1 3 3 39 3 78 
ELSE[ ]	/* Else */
NPUSHB[ ]	/* 21 values pushed */
4 1 0 0 1 2 0 1 105 0 2 2 41 77 5 1 3 3 39 3 78 
EIF[ ]	/* EndIf */
NPUSHB[ ]	/* 19 values pushed */
12 12 1 0 12 15 12 15 14 13 7 5 0 11 1 11 6 8 22 
CALL[ ]	/* CallFunction */";
};
width = 253;
}
);
note = i;
unicode = 105;
},
{
glyphname = l;
layers = (
{
layerId = m01;
shapes = (
{
closed = 1;
nodes = (
(176,707,l),
(62,707,l),
(62,0,l),
(176,0,l)
);
}
);
userData = {
assembly = "NPUSHB[ ]	/* 22 values pushed */
0 0 0 38 77 2 1 1 1 39 1 78 0 0 0 3 0 3 17 3 8 23 
CALL[ ]	/* CallFunction */";
};
width = 238;
}
);
note = l;
unicode = 108;
},
{
glyphname = m;
layers = (
{
layerId = m01;
shapes = (
{
closed = 1;
nodes = (
(62,0,l),
(175,0,l),
(175,278,ls),
(175,301,o),
(183,356,o),
(207,403,o),
(252,434,o),
(282,434,qs),
(313,434,o),
(348,409,o),
(366,371,o),
(371,324,o),
(371,301,qs),
(371,0,l),
(484,0,l),
(484,278,ls),
(484,305,o),
(492,360,o),
(515,404,o),
(556,434,o),
(588,434,qs),
(618,434,o),
(654,410,o),
(673,371,o),
(679,323,o),
(679,299,qs),
(679,0,l),
(793,0,l),
(793,341,ls),
(793,381,o),
(775,452,o),
(736,506,o),
(671,536,o),
(626,536,qs),
(573,536,o),
(494,493,o),
(463,451,q),
(444,490,o),
(376,536,o),
(320,536,qs),
(231,536,o),
(176,462,q),
(171,527,l),
(62,527,l)
);
}
);
userData = {
assembly = "MPPEM[ ]	/* MeasurePixelPerEm */
PUSHB[ ]	/* 1 value pushed */
27 
LT[ ]	/* LessThan */
IF[ ]	/* If */
PUSHB[ ]	/* 7 values pushed */
6 1 2 3 0 1 76 
ELSE[ ]	/* Else */
PUSHB[ ]	/* 7 values pushed */
6 1 2 3 7 1 76 
EIF[ ]	/* EndIf */
MPPEM[ ]	/* MeasurePixelPerEm */
PUSHB[ ]	/* 1 value pushed */
27 
LT[ ]	/* LessThan */
IF[ ]	/* If */
NPUSHB[ ]	/* 22 values pushed */
5 1 3 3 0 97 8 7 1 3 0 0 49 77 6 4 2 2 2 39 2 78 
ELSE[ ]	/* Else */
NPUSHB[ ]	/* 26 values pushed */
8 1 7 7 41 77 5 1 3 3 0 97 1 1 0 0 49 77 6 4 2 2 2 39 2 78 
EIF[ ]	/* EndIf */
NPUSHB[ ]	/* 16 values pushed */
0 0 0 43 0 43 21 37 21 37 21 36 34 9 8 29 
CALL[ ]	/* CallFunction */";
};
width = 850;
}
);
note = m;
unicode = 109;
},
{
glyphname = n;
layers = (
{
layerId = m01;
shapes = (
{
closed = 1;
nodes = (
(176,251,ls),
(176,281,o),
(189,347,o),
(220,401,o),
(277,434,o),
(312,434,qs),
(349,434,o),
(396,409,o),
(422,364,o),
(431,306,o),
(431,272,qs),
(431,0,l),
(545,0,l),
(545,289,ls),
(545,342,o),
(524,432,o),
(475,498,o),
(398,536,o),
(342,536,qs),
(293,536,o),
(206,495,o),
(177,454,q),
(171,527,l),
(62,527,l),
(62,0,l),
(176,0,l)
);
}
);
userData = {
assembly = "PUSHB[ ]	/* 6 values pushed */
3 1 3 0 1 76 
MPPEM[ ]	/* MeasurePixelPerEm */
PUSHB[ ]	/* 1 value pushed */
27 
LT[ ]	/* LessThan */
IF[ ]	/* If */
NPUSHB[ ]	/* 19 values pushed */
0 3 3 0 97 1 1 0 0 41 77 5 4 2 2 2 39 2 78 
ELSE[ ]	/* Else */
NPUSHB[ ]	/* 23 values pushed */
0 0 0 41 77 0 3 3 1 97 0 1 1 49 77 5 4 2 2 2 39 2 78 
EIF[ ]	/* EndIf */
NPUSHB[ ]	/* 13 values pushed */
0 0 0 25 0 25 37 21 35 17 6 8 26 
CALL[ ]	/* CallFunction */";
};
width = 604;
}
);
note = n;
unicode = 110;
},
{
glyphname = p;
layers = (
{
layerId = m01;
shapes = (
{
closed = 1;
nodes = (
(176,57,l),
(208,24,o),
(297,-7,o),
(347,-7,qs),
(405,-7,o),
(492,33,o),
(551,106,o),
(581,206,o),
(581,265,qs),
(581,328,o),
(550,427,o),
(489,497,o),
(403,536,o),
(349,536,qs),
(297,536,o),
(207,494,o),
(176,452,q),
(170,527,l),
(62,527,l),
(62,-205,l),
(176,-205,l)
);
},
{
closed = 1;
nodes = (
(175,191,o),
(175,264,qs),
(175,297,o),
(194,360,o),
(232,406,o),
(286,434,o),
(323,434,qs),
(361,434,o),
(416,408,o),
(451,362,o),
(468,299,o),
(468,263,qs),
(468,227,o),
(451,165,o),
(416,119,o),
(362,92,o),
(325,92,qs),
(251,93,o)
);
}
);
userData = {
assembly = "NPUSHB[ ]	/* 10 values pushed */
3 1 5 0 19 1 2 4 2 76 
MPPEM[ ]	/* MeasurePixelPerEm */
PUSHB[ ]	/* 1 value pushed */
16 
LT[ ]	/* LessThan */
IF[ ]	/* If */
NPUSHB[ ]	/* 29 values pushed */
0 5 5 0 97 1 1 0 0 41 77 7 1 4 4 2 97 0 2 2 47 77 6 1 3 3 43 3 78 
ELSE[ ]	/* Else */
MPPEM[ ]	/* MeasurePixelPerEm */
PUSHB[ ]	/* 1 value pushed */
27 
LT[ ]	/* LessThan */
IF[ ]	/* If */
NPUSHB[ ]	/* 35 values pushed */
0 5 5 0 97 1 1 0 0 41 77 7 1 4 4 2 97 0 2 2 47 77 6 1 3 3 0 97 1 1 0 0 41 3 78 
ELSE[ ]	/* Else */
NPUSHB[ ]	/* 33 values pushed */
0 5 5 1 97 0 1 1 49 77 7 1 4 4 2 97 0 2 2 47 77 6 1 3 3 0 95 0 0 0 41 3 78 
EIF[ ]	/* EndIf */
EIF[ ]	/* EndIf */
NPUSHB[ ]	/* 20 values pushed */
22 21 0 0 32 30 21 38 22 38 0 20 0 20 40 35 17 8 8 25 
CALL[ ]	/* CallFunction */";
};
width = 623;
}
);
note = p;
unicode = 112;
},
{
glyphname = q;
kernLeft = d;
layers = (
{
layerId = m01;
shapes = (
{
closed = 1;
nodes = (
(459,527,l),
(450,471,l),
(422,504,o),
(338,535,o),
(292,536,qs),
(226,535,o),
(134,492,o),
(72,418,o),
(42,319,o),
(42,260,qs),
(42,206,o),
(70,109,o),
(129,35,o),
(217,-8,o),
(283,-8,qs),
(332,-8,o),
(418,24,o),
(447,58,q),
(447,-205,l),
(561,-205,l),
(561,527,l)
);
},
{
closed = 1;
nodes = (
(395,405,o),
(431,358,o),
(447,296,o),
(447,262,qs),
(447,229,o),
(429,167,o),
(393,120,o),
(338,91,o),
(301,91,qs),
(262,91,o),
(207,118,o),
(172,164,o),
(155,226,o),
(155,262,qs),
(155,298,o),
(171,361,o),
(206,407,o),
(261,434,o),
(299,434,qs),
(339,433,o)
);
}
);
userData = {
assembly = "MPPEM[ ]	/* MeasurePixelPerEm */
PUSHB[ ]	/* 1 value pushed */
29 
LT[ ]	/* LessThan */
IF[ ]	/* If */
NPUSHB[ ]	/* 10 values pushed */
18 1 4 2 2 1 1 5 2 76 
ELSE[ ]	/* Else */
NPUSHB[ ]	/* 10 values pushed */
18 1 4 3 2 1 1 5 2 76 
EIF[ ]	/* EndIf */
MPPEM[ ]	/* MeasurePixelPerEm */
PUSHB[ ]	/* 1 value pushed */
16 
LT[ ]	/* LessThan */
IF[ ]	/* If */
NPUSHB[ ]	/* 28 values pushed */
6 1 4 4 2 97 3 1 2 2 49 77 0 5 5 1 97 0 1 1 47 77 0 0 0 43 0 78 
ELSE[ ]	/* Else */
MPPEM[ ]	/* MeasurePixelPerEm */
PUSHB[ ]	/* 1 value pushed */
29 
LT[ ]	/* LessThan */
IF[ ]	/* If */
NPUSHB[ ]	/* 34 values pushed */
6 1 4 4 2 97 3 1 2 2 49 77 0 5 5 1 97 0 1 1 47 77 0 0 0 2 97 3 1 2 2 49 0 78 
ELSE[ ]	/* Else */
NPUSHB[ ]	/* 32 values pushed */
6 1 4 4 2 97 0 2 2 49 77 0 5 5 1 97 0 1 1 47 77 0 0 0 3 95 0 3 3 41 0 78 
EIF[ ]	/* EndIf */
EIF[ ]	/* EndIf */
NPUSHB[ ]	/* 15 values pushed */
22 21 32 30 21 40 22 40 19 40 35 16 7 8 26 
CALL[ ]	/* CallFunction */";
};
width = 623;
}
);
note = q;
unicode = 113;
},
{
glyphname = u;
layers = (
{
layerId = m01;
shapes = (
{
closed = 1;
nodes = (
(173,166,o),
(173,234,qs),
(173,527,l),
(60,527,l),
(60,230,ls),
(60,107,o),
(183,-7,o),
(293,-7,qs),
(345,-7,o),
(430,18,o),
(492,73,o),
(528,164,o),
(528,230,qs),
(528,527,l),
(415,527,l),
(415,234,ls),
(415,166,o),
(359,92,o),
(293,92,qs),
(232,93,o)
);
}
);
userData = {
assembly = "NPUSHB[ ]	/* 33 values pushed */
3 1 1 1 41 77 4 1 0 0 2 97 0 2 2 47 2 78 1 0 16 15 12 10 5 4 0 19 1 19 5 8 22 
CALL[ ]	/* CallFunction */";
};
width = 588;
}
);
note = u;
unicode = 117;
},
{
glyphname = v;
layers = (
{
layerId = m01;
shapes = (
{
closed = 1;
nodes = (
(347,0,l),
(545,527,l),
(419,527,l),
(274,109,l),
(128,527,l),
(2,527,l),
(200,0,l)
);
}
);
userData = {
assembly = "NPUSHB[ ]	/* 24 values pushed */
2 1 2 0 1 76 1 1 0 0 41 77 0 2 2 39 2 78 17 18 16 3 8 25 
CALL[ ]	/* CallFunction */";
};
width = 547;
}
);
note = v;
unicode = 118;
},
{
glyphname = w;
kernLeft = w;
layers = (
{
layerId = m01;
shapes = (
{
closed = 1;
nodes = (
(308,0,l),
(424,388,l),
(543,0,l),
(677,0,l),
(841,527,l),
(719,527,l),
(609,121,l),
(490,527,l),
(362,527,l),
(243,121,l),
(133,527,l),
(7,527,l),
(170,0,l)
);
}
);
userData = {
assembly = "NPUSHB[ ]	/* 30 values pushed */
10 5 2 3 3 0 1 76 2 1 2 0 0 41 77 4 1 3 3 39 3 78 18 17 18 18 16 5 8 27 
CALL[ ]	/* CallFunction */";
};
width = 848;
}
);
note = w;
unicode = 119;
},
{
glyphname = x;
layers = (
{
layerId = m01;
shapes = (
{
closed = 1;
nodes = (
(333,265,l),
(507,527,l),
(377,527,l),
(265,341,l),
(150,527,l),
(18,527,l),
(190,268,l),
(9,0,l),
(135,0,l),
(259,188,l),
(387,0,l),
(518,0,l)
);
}
);
userData = {
assembly = "NPUSHB[ ]	/* 35 values pushed */
10 7 4 1 4 0 1 1 76 2 1 1 1 41 77 4 3 2 0 0 39 0 78 0 0 0 11 0 11 18 18 18 5 8 25 
CALL[ ]	/* CallFunction */";
};
width = 527;
}
);
note = x;
unicode = 120;
},
{
glyphname = z;
layers = (
{
layerId = m01;
shapes = (
{
closed = 1;
nodes = (
(42,527,l),
(42,428,l),
(328,428,l),
(42,87,l),
(42,0,l),
(474,0,l),
(474,98,l),
(186,98,l),
(474,440,l),
(474,527,l)
);
}
);
userData = {
assembly = "NPUSHB[ ]	/* 38 values pushed */
0 1 2 3 5 1 1 0 2 76 0 2 2 3 95 0 3 3 41 77 0 0 0 1 95 0 1 1 39 1 78 17 18 17 17 4 8 26 
CALL[ ]	/* CallFunction */";
};
width = 517;
}
);
note = z;
unicode = 122;
},
{
glyphname = period;
kernLeft = period;
kernRight = period;
layers = (
{
layerId = m01;
shapes = (
{
closed = 1;
nodes = (
(62,99,o),
(62,65,qs),
(62,30,o),
(103,-8,o),
(135,-8,qs),
(167,-8,o),
(208,30,o),
(208,65,qs),
(208,99,o),
(167,139,o),
(135,139,qs),
(103,139,o)
);
}
);
userData = {
assembly = "NPUSHB[ ]	/* 23 values pushed */
2 1 0 0 1 97 0 1 1 47 1 78 1 0 7 5 0 11 1 11 3 8 22 
CALL[ ]	/* CallFunction */";
};
width = 270;
}
);
note = period;
unicode = 46;
},
{
glyphname = comma;
kernLeft = period;
kernRight = period;
layers = (
{
layerId = m01;
shapes = (
{
closed = 1;
nodes = (
(86,-91,o),
(62,-108,q),
(92,-149,l),
(117,-141,o),
(163,-104,o),
(199,-54,o),
(221,3,o),
(221,32,qs),
(221,37,o),
(221,42,qs),
(221,74,o),
(187,132,o),
(142,135,qs),
(139,135,o),
(136,135,qs),
(109,135,o),
(65,98,o),
(65,63,qs),
(65,31,o),
(104,-6,o),
(134,-8,q),
(126,-39,o)
);
}
);
userData = {
assembly = "NPUSHB[ ]	/* 21 values pushed */
19 18 2 0 73 0 1 1 0 97 0 0 0 47 0 78 68 16 2 8 24 
CALL[ ]	/* CallFunction */";
};
width = 283;
}
);
note = comma;
unicode = 44;
},
{
glyphname = A;
kernLeft = A;
kernRight = A;
layers = (
{
layerId = m01;
shapes = (
{
closed = 1;
nodes = (
(417,707,l),
(273,707,l),
(5,0,l),
(131,0,l),
(184,143,l),
(505,143,l),
(557,0,l),
(684,0,l)
);
},
{
closed = 1;
nodes = (
(345,593,l),
(469,247,l),
(220,247,l)
);
}
);
userData = {
assembly = "NPUSHB[ ]	/* 46 values pushed */
9 1 4 2 1 76 6 1 4 0 0 1 4 0 104 0 2 2 38 77 5 3 2 1 1 39 1 78 8 8 0 0 8 10 8 10 0 7 0 7 17 17 17 7 8 25 
CALL[ ]	/* CallFunction */";
};
width = 689;
}
);
note = A;
unicode = 65;
},
{
glyphname = breve;
layers = (
{
layerId = m01;
shapes = (
{
closed = 1;
nodes = (
(115,702,o),
(143,646,o),
(191,611,o),
(255,595,o),
(292,595,qs),
(329,595,o),
(393,611,o),
(442,647,o),
(471,703,o),
(472,743,q),
(378,743,l),
(376,705,o),
(328,675,o),
(293,675,qs),
(258,675,o),
(210,705,o),
(208,743,q),
(114,743,l)
);
}
);
userData = {
assembly = "PUSHB[ ]	/* 2 values pushed */
6 100 
WCVTP[ ]	/* WriteCVTInPixels */
NPUSHB[ ]	/* 35 values pushed */
4 3 2 1 0 1 133 0 0 2 2 0 89 0 0 0 2 97 0 2 0 2 81 0 0 0 17 0 17 36 18 34 5 8 25 
CALL[ ]	/* CallFunction */
PUSHB[ ]	/* 2 values pushed */
6 0 
WCVTP[ ]	/* WriteCVTInPixels */";
};
width = 586;
}
);
note = breve;
unicode = 728;
},
{
glyphname = circumflex;
layers = (
{
layerId = m01;
shapes = (
{
closed = 1;
nodes = (
(249,769,l),
(108,599,l),
(213,599,l),
(286,692,l),
(360,599,l),
(466,599,l),
(323,769,l)
);
}
);
userData = {
assembly = "PUSHB[ ]	/* 2 values pushed */
6 100 
WCVTP[ ]	/* WriteCVTInPixels */
NPUSHB[ ]	/* 22 values pushed */
2 1 0 2 1 76 0 2 0 2 133 1 1 0 0 118 17 18 16 3 8 25 
CALL[ ]	/* CallFunction */
PUSHB[ ]	/* 2 values pushed */
6 0 
WCVTP[ ]	/* WriteCVTInPixels */";
};
width = 574;
}
);
note = circumflex;
unicode = 710;
},
{
glyphname = uni0326;
layers = (
{
layerId = m01;
shapes = (
{
closed = 1;
nodes = (
(-340,-256,o),
(-360,-270,q),
(-336,-303,l),
(-313,-295,o),
(-273,-264,o),
(-244,-222,o),
(-227,-175,o),
(-227,-152,qs),
(-227,-121,o),
(-261,-74,o),
(-296,-74,qs),
(-322,-74,o),
(-358,-106,o),
(-358,-132,qs),
(-358,-157,o),
(-325,-187,o),
(-299,-189,q),
(-305,-214,o)
);
}
);
userData = {
assembly = "PUSHB[ ]	/* 2 values pushed */
6 100 
WCVTP[ ]	/* WriteCVTInPixels */
NPUSHB[ ]	/* 13 values pushed */
15 14 2 0 73 0 0 0 118 37 1 8 23 
CALL[ ]	/* CallFunction */
PUSHB[ ]	/* 2 values pushed */
6 0 
WCVTP[ ]	/* WriteCVTInPixels */";
};
width = 0;
}
);
note = uni0326;
unicode = 806;
},
{
glyphname = exclam;
layers = (
{
layerId = m01;
shapes = (
{
closed = 1;
nodes = (
(206,707,l),
(83,707,l),
(96,225,l),
(193,225,l)
);
},
{
closed = 1;
nodes = (
(72,96,o),
(72,63,qs),
(72,30,o),
(112,-8,o),
(145,-8,qs),
(177,-8,o),
(218,31,o),
(218,63,qs),
(218,96,o),
(178,137,o),
(145,137,qs),
(112,137,o)
);
}
);
userData = {
assembly = "NPUSHB[ ]	/* 41 values pushed */
4 1 1 1 0 95 0 0 0 38 77 5 1 2 2 3 97 0 3 3 47 3 78 5 4 0 0 11 9 4 15 5 15 0 3 0 3 17 6 8 23 
CALL[ ]	/* CallFunction */";
};
width = 290;
}
);
note = exclam;
unicode = 33;
},
{
glyphname = quotedbl;
layers = (
{
layerId = m01;
shapes = (
{
closed = 1;
nodes = (
(54,707,l),
(67,455,l),
(152,455,l),
(165,707,l)
);
},
{
closed = 1;
nodes = (
(223,707,l),
(236,455,l),
(321,455,l),
(335,707,l)
);
}
);
userData = {
assembly = "NPUSHB[ ]	/* 20 values pushed */
2 1 0 0 1 95 3 1 1 1 38 0 78 17 17 17 16 4 8 26 
CALL[ ]	/* CallFunction */";
};
width = 389;
}
);
note = quotedbl;
unicode = 34;
},
{
glyphname = quotesingle;
layers = (
{
layerId = m01;
shapes = (
{
closed = 1;
nodes = (
(62,707,l),
(75,455,l),
(160,455,l),
(173,707,l)
);
}
);
userData = {
assembly = "NPUSHB[ ]	/* 16 values pushed */
0 0 0 1 95 0 1 1 38 0 78 17 16 2 8 24 
CALL[ ]	/* CallFunction */";
};
width = 235;
}
);
note = quotesingle;
unicode = 39;
},
{
glyphname = numbersign;
layers = (
{
layerId = m01;
shapes = (
{
closed = 1;
nodes = (
(83,433,l),
(178,433,l),
(160,273,l),
(54,273,l),
(54,175,l),
(149,175,l),
(129,0,l),
(230,0,l),
(249,175,l),
(369,175,l),
(349,0,l),
(449,0,l),
(469,175,l),
(575,175,l),
(575,273,l),
(480,273,l),
(498,433,l),
(604,433,l),
(604,531,l),
(509,531,l),
(528,707,l),
(428,707,l),
(408,531,l),
(289,531,l),
(309,707,l),
(209,707,l),
(207,685,o),
(204,663,qs),
(195,576,ls),
(193,554,o),
(190,531,q),
(83,531,l)
);
},
{
closed = 1;
nodes = (
(397,433,l),
(380,273,l),
(260,273,l),
(278,433,l)
);
}
);
userData = {
assembly = "NPUSHB[ ]	/* 70 values pushed */
14 11 2 5 10 8 2 6 7 5 6 103 2 1 0 0 38 77 15 12 2 4 4 1 95 16 13 3 3 1 1 41 77 9 1 7 7 39 7 78 0 0 35 34 33 32 0 31 0 31 30 29 28 27 26 25 24 23 17 17 17 17 17 17 17 17 21 17 8 31 
CALL[ ]	/* CallFunction */";
};
width = 658;
}
);
note = numbersign;
unicode = 35;
},
{
glyphname = percent;
layers = (
{
layerId = m01;
shapes = (
{
closed = 1;
nodes = (
(309,415,o),
(349,459,o),
(370,519,o),
(370,554,qs),
(370,626,o),
(289,719,o),
(213,719,qs),
(135,719,o),
(54,626,o),
(54,554,qs),
(54,519,o),
(74,459,o),
(115,415,o),
(174,389,o),
(213,389,qs),
(251,389,o)
);
},
{
closed = 1;
nodes = (
(694,707,l),
(580,707,l),
(136,0,l),
(250,0,l)
);
},
{
closed = 1;
nodes = (
(277,585,o),
(277,554,qs),
(277,523,o),
(249,476,o),
(213,476,qs),
(175,476,o),
(145,522,o),
(145,554,qs),
(145,585,o),
(175,632,o),
(213,632,qs),
(249,632,o)
);
},
{
closed = 1;
nodes = (
(720,15,o),
(760,59,o),
(781,119,o),
(781,154,qs),
(781,226,o),
(699,319,o),
(623,319,qs),
(545,319,o),
(464,226,o),
(464,154,qs),
(464,119,o),
(484,59,o),
(525,15,o),
(584,-11,o),
(623,-11,qs),
(661,-11,o)
);
},
{
closed = 1;
nodes = (
(666,219,o),
(681,198,o),
(687,170,o),
(687,154,qs),
(687,123,o),
(659,76,o),
(622,76,qs),
(586,76,o),
(555,122,o),
(555,154,qs),
(555,186,o),
(586,232,o),
(622,232,qs),
(641,232,o)
);
}
);
userData = {
assembly = "MPPEM[ ]	/* MeasurePixelPerEm */
PUSHB[ ]	/* 1 value pushed */
20 
LT[ ]	/* LessThan */
IF[ ]	/* If */
NPUSHB[ ]	/* 44 values pushed */
0 5 10 1 0 7 5 0 105 0 7 14 1 8 9 7 8 106 12 1 4 4 1 97 2 1 1 1 46 77 0 9 9 3 97 13 6 11 3 3 3 39 3 78 
ELSE[ ]	/* Else */
MPPEM[ ]	/* MeasurePixelPerEm */
PUSHB[ ]	/* 1 value pushed */
22 
LT[ ]	/* LessThan */
IF[ ]	/* If */
NPUSHB[ ]	/* 48 values pushed */
0 5 10 1 0 7 5 0 105 0 7 14 1 8 9 7 8 106 0 2 2 38 77 12 1 4 4 1 97 0 1 1 46 77 0 9 9 3 97 13 6 11 3 3 3 39 3 78 
ELSE[ ]	/* Else */
NPUSHB[ ]	/* 52 values pushed */
0 5 10 1 0 7 5 0 105 0 7 14 1 8 9 7 8 106 0 2 2 38 77 12 1 4 4 1 97 0 1 1 46 77 11 1 3 3 39 77 0 9 9 6 97 13 1 6 6 47 6 78 
EIF[ ]	/* EndIf */
EIF[ ]	/* EndIf */
NPUSHB[ ]	/* 43 values pushed */
49 48 33 32 21 20 16 16 1 0 55 53 48 61 49 61 41 39 32 47 33 47 27 25 20 31 21 31 16 19 16 19 18 17 9 7 0 15 1 15 15 8 22 
CALL[ ]	/* CallFunction */";
};
width = 835;
}
);
note = percent;
unicode = 37;
},
{
glyphname = asterisk;
layers = (
{
layerId = m01;
shapes = (
{
closed = 1;
nodes = (
(181,630,l),
(87,661,l),
(64,589,l),
(161,559,l),
(98,476,l),
(162,430,l),
(220,510,l),
(279,429,l),
(342,475,l),
(282,556,l),
(377,587,l),
(353,661,l),
(259,630,l),
(259,729,l),
(181,729,l)
);
}
);
userData = {
assembly = "NPUSHB[ ]	/* 16 values pushed */
13 12 11 10 9 8 7 6 5 4 3 2 1 13 0 73 
MPPEM[ ]	/* MeasurePixelPerEm */
PUSHB[ ]	/* 1 value pushed */
22 
LT[ ]	/* LessThan */
IF[ ]	/* If */
PUSHB[ ]	/* 7 values pushed */
1 1 0 0 38 0 78 
ELSE[ ]	/* Else */
PUSHB[ ]	/* 5 values pushed */
1 1 0 0 118 
EIF[ ]	/* EndIf */
NPUSHB[ ]	/* 9 values pushed */
0 0 0 14 0 14 2 8 22 
CALL[ ]	/* CallFunction */";
};
width = 441;
}
);
note = asterisk;
unicode = 42;
},
{
glyphname = plus;
layers = (
{
layerId = m01;
shapes = (
{
closed = 1;
nodes = (
(233,308,l),
(233,140,l),
(330,140,l),
(330,308,l),
(495,308,l),
(495,406,l),
(330,406,l),
(330,573,l),
(233,573,l),
(233,406,l),
(69,406,l),
(69,308,l)
);
}
);
userData = {
assembly = "NPUSHB[ ]	/* 35 values pushed */
0 1 0 4 1 87 2 1 0 5 1 3 4 0 3 103 0 1 1 4 95 0 4 1 4 79 17 17 17 17 17 16 6 8 28 
CALL[ ]	/* CallFunction */";
};
width = 564;
}
);
note = plus;
unicode = 43;
},
{
glyphname = slash;
layers = (
{
layerId = m01;
shapes = (
{
closed = 1;
nodes = (
(146,-169,l),
(452,792,l),
(339,792,l),
(34,-169,l)
);
}
);
userData = {
assembly = "NPUSHB[ ]	/* 14 values pushed */
0 0 1 0 133 0 1 1 118 17 16 2 8 24 
CALL[ ]	/* CallFunction */";
};
width = 486;
}
);
note = slash;
unicode = 47;
},
{
glyphname = colon;
kernLeft = colon;
layers = (
{
layerId = m01;
shapes = (
{
closed = 1;
nodes = (
(62,455,o),
(62,422,qs),
(62,387,o),
(102,349,o),
(135,349,qs),
(167,349,o),
(208,387,o),
(208,422,qs),
(208,455,o),
(168,496,o),
(135,496,qs),
(102,496,o)
);
},
{
closed = 1;
nodes = (
(62,97,o),
(62,64,qs),
(62,30,o),
(102,-9,o),
(135,-9,qs),
(167,-9,o),
(208,30,o),
(208,64,qs),
(208,97,o),
(168,138,o),
(135,138,qs),
(102,138,o)
);
}
);
userData = {
assembly = "NPUSHB[ ]	/* 40 values pushed */
4 1 0 0 1 2 0 1 105 5 1 2 2 3 97 0 3 3 47 3 78 13 12 1 0 19 17 12 23 13 23 7 5 0 11 1 11 6 8 22 
CALL[ ]	/* CallFunction */";
};
width = 270;
}
);
note = colon;
unicode = 58;
},
{
glyphname = semicolon;
kernLeft = colon;
layers = (
{
layerId = m01;
shapes = (
{
closed = 1;
nodes = (
(70,455,o),
(70,422,qs),
(70,387,o),
(109,349,o),
(143,349,qs),
(176,349,o),
(216,387,o),
(216,422,qs),
(216,455,o),
(176,496,o),
(143,496,qs),
(109,496,o)
);
},
{
closed = 1;
nodes = (
(87,-90,o),
(62,-107,q),
(92,-149,l),
(118,-140,o),
(165,-101,o),
(200,-51,o),
(221,7,o),
(221,35,qs),
(221,53,o),
(213,89,o),
(194,117,o),
(164,136,o),
(142,136,qs),
(139,136,o),
(136,136,qs),
(108,136,o),
(65,99,o),
(65,64,qs),
(65,33,o),
(102,-5,o),
(133,-7,q),
(126,-37,o)
);
}
);
userData = {
assembly = "NPUSHB[ ]	/* 40 values pushed */
31 30 2 2 73 4 1 0 0 1 3 0 1 105 0 3 3 2 97 0 2 2 47 2 78 1 0 21 17 13 12 7 5 0 11 1 11 5 8 22 
CALL[ ]	/* CallFunction */";
};
width = 283;
}
);
note = semicolon;
unicode = 59;
},
{
glyphname = less;
layers = (
{
layerId = m01;
shapes = (
{
closed = 1;
nodes = (
(403,90,l),
(403,206,l),
(165,357,l),
(403,506,l),
(403,621,l),
(34,382,l),
(34,327,l)
);
}
);
userData = {
assembly = "PUSHB[ ]	/* 4 values pushed */
5 1 1 50 
CALL[ ]	/* CallFunction */";
};
width = 467;
}
);
note = less;
unicode = 60;
},
{
glyphname = equal;
layers = (
{
layerId = m01;
shapes = (
{
closed = 1;
nodes = (
(490,436,l),
(490,534,l),
(64,534,l),
(64,436,l)
);
},
{
closed = 1;
nodes = (
(490,180,l),
(490,278,l),
(64,278,l),
(64,180,l)
);
}
);
userData = {
assembly = "NPUSHB[ ]	/* 25 values pushed */
0 2 0 3 2 3 99 0 1 1 0 95 0 0 0 41 1 78 17 17 17 16 4 8 26 
CALL[ ]	/* CallFunction */";
};
width = 554;
}
);
note = equal;
unicode = 61;
},
{
glyphname = greater;
layers = (
{
layerId = m01;
shapes = (
{
closed = 1;
nodes = (
(64,621,l),
(64,505,l),
(302,355,l),
(64,205,l),
(64,90,l),
(433,329,l),
(433,384,l)
);
}
);
userData = {
assembly = "PUSHB[ ]	/* 4 values pushed */
5 1 1 50 
CALL[ ]	/* CallFunction */";
};
width = 467;
}
);
note = greater;
unicode = 62;
},
{
glyphname = at;
layers = (
{
layerId = m01;
shapes = (
{
closed = 1;
nodes = (
(699,39,o),
(742,39,qs),
(798,39,o),
(870,91,o),
(911,172,o),
(927,270,o),
(927,315,qs),
(927,403,o),
(870,552,o),
(764,661,o),
(615,722,o),
(522,722,qs),
(420,722,o),
(251,655,o),
(131,530,o),
(65,353,o),
(65,244,qs),
(65,152,o),
(123,-3,o),
(232,-115,o),
(387,-177,o),
(484,-177,qs),
(522,-177,o),
(582,-171,o),
(616,-163,q),
(613,-139,o),
(607,-88,o),
(605,-64,q),
(589,-67,o),
(564,-72,o),
(539,-75,o),
(511,-76,o),
(492,-76,qs),
(415,-76,o),
(294,-26,o),
(212,63,o),
(169,186,o),
(169,260,qs),
(170,338,o),
(216,472,o),
(305,571,o),
(437,627,o),
(525,627,qs),
(597,627,o),
(711,580,o),
(789,493,o),
(831,371,o),
(831,296,qs),
(831,269,o),
(824,210,o),
(804,159,o),
(771,126,o),
(744,126,qs),
(718,128,o),
(693,154,o),
(684,189,o),
(684,207,qs),
(684,209,o),
(685,232,o),
(687,250,qs),
(693,306,o),
(707,416,o),
(717,471,q),
(651,479,l),
(627,431,l),
(619,449,o),
(591,475,o),
(556,491,o),
(519,498,o),
(501,498,qs),
(450,498,o),
(370,459,o),
(314,392,o),
(284,304,o),
(284,255,qs),
(284,213,o),
(306,136,o),
(352,78,o),
(421,44,o),
(468,44,qs),
(511,44,o),
(590,78,o),
(617,117,q),
(632,78,o)
);
},
{
closed = 1;
nodes = (
(565,390,o),
(588,357,o),
(599,314,o),
(599,292,qs),
(599,266,o),
(586,209,o),
(557,161,o),
(512,130,o),
(479,130,qs),
(452,130,o),
(413,152,o),
(388,189,o),
(378,232,o),
(378,253,qs),
(378,257,o),
(378,261,qs),
(379,291,o),
(396,346,o),
(428,386,o),
(474,410,o),
(503,410,qs),
(529,410,o)
);
}
);
userData = {
assembly = "MPPEM[ ]	/* MeasurePixelPerEm */
PUSHB[ ]	/* 1 value pushed */
46 
LT[ ]	/* LessThan */
IF[ ]	/* If */
NPUSHB[ ]	/* 16 values pushed */
20 19 18 3 8 1 55 1 4 0 58 1 5 4 3 76 
ELSE[ ]	/* Else */
NPUSHB[ ]	/* 16 values pushed */
20 19 18 3 8 1 55 1 4 7 58 1 5 4 3 76 
EIF[ ]	/* EndIf */
MPPEM[ ]	/* MeasurePixelPerEm */
PUSHB[ ]	/* 1 value pushed */
46 
LT[ ]	/* LessThan */
IF[ ]	/* If */
NPUSHB[ ]	/* 37 values pushed */
0 1 10 1 8 2 1 8 105 9 1 2 7 1 0 4 2 0 105 0 4 0 5 4 5 101 0 3 3 6 97 0 6 6 46 3 78 
ELSE[ ]	/* Else */
NPUSHB[ ]	/* 42 values pushed */
0 1 10 1 8 2 1 8 105 0 0 7 2 0 89 9 1 2 0 7 4 2 7 105 0 4 0 5 4 5 101 0 3 3 6 97 0 6 6 46 3 78 
EIF[ ]	/* EndIf */
NPUSHB[ ]	/* 25 values pushed */
85 84 97 95 84 105 85 105 82 80 72 70 62 60 52 49 41 39 31 30 40 34 11 8 24 
CALL[ ]	/* CallFunction */";
};
width = 991;
}
);
note = at;
unicode = 64;
},
{
glyphname = bracketleft;
layers = (
{
layerId = m01;
shapes = (
{
closed = 1;
nodes = (
(307,-84,l),
(191,-84,l),
(191,693,l),
(307,693,l),
(307,787,l),
(82,787,l),
(82,-178,l),
(307,-178,l)
);
}
);
userData = {
assembly = "NPUSHB[ ]	/* 37 values pushed */
0 0 0 1 2 0 1 103 0 2 3 3 2 87 0 2 2 3 95 4 1 3 2 3 79 0 0 0 7 0 7 17 17 17 5 8 25 
CALL[ ]	/* CallFunction */";
};
width = 337;
}
);
note = bracketleft;
unicode = 91;
},
{
glyphname = bracketright;
layers = (
{
layerId = m01;
shapes = (
{
closed = 1;
nodes = (
(30,693,l),
(146,693,l),
(146,-84,l),
(30,-84,l),
(30,-178,l),
(255,-178,l),
(255,787,l),
(30,787,l)
);
}
);
userData = {
assembly = "NPUSHB[ ]	/* 37 values pushed */
4 1 3 0 2 1 3 2 103 0 1 0 0 1 87 0 1 1 0 95 0 0 1 0 79 0 0 0 7 0 7 17 17 17 5 8 25 
CALL[ ]	/* CallFunction */";
};
width = 337;
}
);
note = bracketright;
unicode = 93;
},
{
glyphname = backslash;
layers = (
{
layerId = m01;
shapes = (
{
closed = 1;
nodes = (
(146,792,l),
(34,792,l),
(339,-170,l),
(452,-170,l)
);
}
);
userData = {
assembly = "NPUSHB[ ]	/* 20 values pushed */
0 0 1 0 133 2 1 1 1 118 0 0 0 3 0 3 17 3 8 23 
CALL[ ]	/* CallFunction */";
};
width = 486;
}
);
note = backslash;
unicode = 92;
},
{
glyphname = asciicircum;
layers = (
{
layerId = m01;
shapes = (
{
closed = 1;
nodes = (
(54,486,l),
(160,486,l),
(247,623,l),
(332,486,l),
(441,486,l),
(287,712,l),
(206,712,l)
);
}
);
userData = {
assembly = "PUSHB[ ]	/* 2 values pushed */
6 100 
WCVTP[ ]	/* WriteCVTInPixels */
NPUSHB[ ]	/* 28 values pushed */
3 1 0 2 1 76 3 1 2 0 2 133 1 1 0 0 118 0 0 0 6 0 6 18 17 4 8 24 
CALL[ ]	/* CallFunction */
PUSHB[ ]	/* 2 values pushed */
6 0 
WCVTP[ ]	/* WriteCVTInPixels */";
};
width = 495;
}
);
note = asciicircum;
unicode = 94;
},
{
glyphname = underscore;
layers = (
{
layerId = m01;
shapes = (
{
closed = 1;
nodes = (
(451,-159,l),
(451,-62,l),
(-8,-62,l),
(-8,-159,l)
);
}
);
userData = {
assembly = "PUSHB[ ]	/* 2 values pushed */
6 100 
WCVTP[ ]	/* WriteCVTInPixels */
NPUSHB[ ]	/* 21 values pushed */
0 0 1 1 0 87 0 0 0 1 95 0 1 0 1 79 17 16 2 8 24 
CALL[ ]	/* CallFunction */
PUSHB[ ]	/* 2 values pushed */
6 0 
WCVTP[ ]	/* WriteCVTInPixels */";
};
width = 443;
}
);
note = underscore;
unicode = 95;
},
{
glyphname = braceleft;
layers = (
{
layerId = m01;
shapes = (
{
closed = 1;
nodes = (
(353,787,l),
(257,787,ls),
(190,787,o),
(131,727,o),
(131,649,qs),
(131,445,ls),
(131,422,o),
(114,380,o),
(73,350,o),
(32,350,q),
(32,259,l),
(67,259,o),
(107,240,o),
(126,208,o),
(131,168,o),
(131,147,qs),
(131,-61,ls),
(131,-126,o),
(197,-178,o),
(257,-178,qs),
(353,-178,l),
(353,-84,l),
(288,-84,ls),
(270,-84,o),
(251,-75,o),
(241,-56,o),
(239,-25,o),
(239,-4,qs),
(239,175,ls),
(239,194,o),
(233,234,o),
(219,269,o),
(194,296,o),
(175,304,q),
(194,312,o),
(219,340,o),
(233,374,o),
(239,413,o),
(239,433,qs),
(239,609,ls),
(239,624,o),
(240,654,o),
(248,678,o),
(268,693,o),
(288,693,qs),
(353,693,l)
);
}
);
userData = {
assembly = "NPUSHB[ ]	/* 58 values pushed */
11 1 3 4 1 76 0 5 6 1 0 4 5 0 105 0 4 0 3 1 4 3 105 0 1 2 2 1 89 0 1 1 2 95 0 2 1 2 79 1 0 44 42 36 35 34 33 26 24 23 21 0 45 1 45 7 8 22 
CALL[ ]	/* CallFunction */";
};
width = 407;
}
);
note = braceleft;
unicode = 123;
},
{
glyphname = bar;
layers = (
{
layerId = m01;
shapes = (
{
closed = 1;
nodes = (
(189,800,l),
(82,800,l),
(82,-171,l),
(189,-171,l)
);
}
);
userData = {
assembly = "NPUSHB[ ]	/* 27 values pushed */
0 0 1 1 0 87 0 0 0 1 95 2 1 1 0 1 79 0 0 0 3 0 3 17 3 8 23 
CALL[ ]	/* CallFunction */";
};
width = 271;
}
);
note = bar;
unicode = 124;
},
{
glyphname = braceright;
layers = (
{
layerId = m01;
shapes = (
{
closed = 1;
nodes = (
(54,-178,l),
(150,-178,ls),
(217,-178,o),
(276,-118,o),
(276,-40,qs),
(276,165,ls),
(276,187,o),
(292,229,o),
(334,259,o),
(375,259,q),
(375,350,l),
(340,350,o),
(300,369,o),
(281,401,o),
(276,441,o),
(276,462,qs),
(276,670,ls),
(276,735,o),
(214,787,o),
(154,787,qs),
(54,787,l),
(54,693,l),
(119,693,ls),
(137,693,o),
(156,684,o),
(166,665,o),
(168,634,o),
(168,613,qs),
(168,434,ls),
(168,415,o),
(174,375,o),
(188,340,o),
(213,312,o),
(232,305,q),
(213,297,o),
(188,269,o),
(174,235,o),
(168,195,o),
(168,176,qs),
(168,0,ls),
(168,-15,o),
(167,-45,o),
(159,-69,o),
(138,-84,o),
(119,-84,qs),
(54,-84,l)
);
}
);
userData = {
assembly = "NPUSHB[ ]	/* 59 values pushed */
11 1 4 3 1 76 0 2 0 1 3 2 1 105 0 3 0 4 0 3 4 105 6 1 0 5 5 0 89 6 1 0 0 5 95 0 5 0 5 79 1 0 44 42 36 35 34 33 26 24 23 21 0 45 1 45 7 8 22 
CALL[ ]	/* CallFunction */";
};
width = 407;
}
);
note = braceright;
unicode = 125;
},
{
glyphname = Euro;
layers = (
{
layerId = m01;
shapes = (
{
closed = 1;
nodes = (
(625,34,o),
(665,76,q),
(651,96,o),
(622,134,o),
(607,154,q),
(572,121,o),
(502,94,o),
(454,94,qs),
(388,94,o),
(290,161,o),
(275,221,q),
(492,221,l),
(508,314,l),
(255,314,l),
(253,333,o),
(253,374,o),
(255,393,q),
(523,393,l),
(539,486,l),
(275,486,l),
(293,546,o),
(384,611,o),
(448,611,qs),
(496,611,o),
(564,581,o),
(599,551,q),
(659,633,l),
(617,675,o),
(517,714,o),
(449,714,qs),
(333,714,o),
(184,596,o),
(154,486,q),
(63,486,l),
(47,393,l),
(141,393,l),
(138,374,o),
(138,334,o),
(139,314,q),
(60,314,l),
(44,221,l),
(151,221,l),
(180,111,o),
(332,-8,o),
(452,-8,qs),
(519,-8,o)
);
}
);
userData = {
assembly = "NPUSHB[ ]	/* 91 values pushed */
18 1 6 5 19 1 4 6 40 1 11 1 43 1 0 11 4 76 7 1 4 8 1 3 2 4 3 103 9 1 2 10 1 1 11 2 1 103 0 6 6 5 97 0 5 5 46 77 0 11 11 0 97 12 1 0 0 47 0 78 1 0 38 36 34 33 32 31 28 27 26 25 23 21 16 14 12 11 10 9 6 5 4 3 0 45 1 45 13 8 22 
CALL[ ]	/* CallFunction */";
};
width = 709;
}
);
note = Euro;
unicode = 8364;
},
{
glyphname = quotedblbase;
kernLeft = period;
kernRight = period;
layers = (
{
layerId = m01;
shapes = (
{
closed = 1;
nodes = (
(87,-82,o),
(62,-100,q),
(91,-139,l),
(116,-131,o),
(161,-93,o),
(195,-44,o),
(216,12,o),
(216,40,qs),
(216,42,o),
(216,44,qs),
(216,78,o),
(178,133,o),
(140,136,qs),
(138,136,o),
(137,136,qs),
(106,136,o),
(65,99,o),
(65,67,qs),
(65,37,o),
(101,0,o),
(131,-2,q),
(124,-32,o)
);
},
{
closed = 1;
nodes = (
(292,-82,o),
(267,-100,q),
(296,-139,l),
(321,-131,o),
(366,-93,o),
(400,-44,o),
(421,12,o),
(421,40,qs),
(421,42,o),
(421,44,qs),
(421,78,o),
(383,133,o),
(345,136,qs),
(343,136,o),
(342,136,qs),
(311,136,o),
(270,99,o),
(270,67,qs),
(270,37,o),
(306,0,o),
(336,-2,q),
(329,-32,o)
);
}
);
userData = {
assembly = "NPUSHB[ ]	/* 29 values pushed */
41 40 19 18 4 0 73 3 1 1 1 0 97 2 1 0 0 39 0 78 28 27 23 22 20 16 4 8 24 
CALL[ ]	/* CallFunction */";
};
width = 484;
}
);
note = quotedblbase;
unicode = 8222;
},
{
glyphname = quotesinglbase;
layers = (
{
layerId = m01;
shapes = (
{
closed = 1;
nodes = (
(87,-82,o),
(62,-100,q),
(91,-139,l),
(116,-131,o),
(161,-93,o),
(195,-44,o),
(216,12,o),
(216,40,qs),
(216,42,o),
(216,44,qs),
(216,78,o),
(177,133,o),
(140,135,qs),
(137,135,o),
(134,135,qs),
(106,135,o),
(65,99,o),
(65,67,qs),
(65,37,o),
(101,0,o),
(131,-2,q),
(124,-32,o)
);
}
);
userData = {
assembly = "NPUSHB[ ]	/* 21 values pushed */
19 18 2 0 73 0 1 1 0 97 0 0 0 39 0 78 68 16 2 8 24 
CALL[ ]	/* CallFunction */";
};
width = 279;
}
);
note = quotesinglbase;
unicode = 8218;
},
{
glyphname = quotedblright;
layers = (
{
layerId = m01;
shapes = (
{
closed = 1;
nodes = (
(87,513,o),
(62,496,q),
(91,456,l),
(116,464,o),
(161,501,o),
(196,550,o),
(216,606,o),
(216,633,qs),
(216,652,o),
(208,687,o),
(190,714,o),
(161,730,o),
(140,731,qs),
(138,731,o),
(137,731,qs),
(107,731,o),
(65,695,o),
(65,661,qs),
(65,631,o),
(100,595,o),
(131,593,q),
(124,564,o)
);
},
{
closed = 1;
nodes = (
(292,513,o),
(267,496,q),
(296,456,l),
(321,464,o),
(366,501,o),
(401,550,o),
(421,606,o),
(421,633,qs),
(421,635,o),
(421,637,qs),
(421,672,o),
(385,729,o),
(345,731,qs),
(343,731,o),
(342,731,qs),
(312,731,o),
(270,695,o),
(270,661,qs),
(270,631,o),
(305,595,o),
(336,593,q),
(329,564,o)
);
}
);
userData = {
assembly = "PUSHB[ ]	/* 7 values pushed */
41 40 19 18 4 0 73 
MPPEM[ ]	/* MeasurePixelPerEm */
PUSHB[ ]	/* 1 value pushed */
35 
LT[ ]	/* LessThan */
IF[ ]	/* If */
NPUSHB[ ]	/* 13 values pushed */
2 1 0 0 1 97 3 1 1 1 46 0 78 
ELSE[ ]	/* Else */
NPUSHB[ ]	/* 19 values pushed */
3 1 1 0 0 1 89 3 1 1 1 0 97 2 1 0 1 0 81 
EIF[ ]	/* EndIf */
PUSHB[ ]	/* 7 values pushed */
68 29 68 16 4 8 26 
CALL[ ]	/* CallFunction */";
};
width = 484;
}
);
note = quotedblright;
unicode = 8221;
},
{
glyphname = quoteright;
layers = (
{
layerId = m01;
shapes = (
{
closed = 1;
nodes = (
(87,513,o),
(62,496,q),
(91,456,l),
(116,464,o),
(161,501,o),
(195,550,o),
(216,606,o),
(216,633,qs),
(216,652,o),
(208,687,o),
(190,714,o),
(160,731,o),
(140,731,qs),
(109,731,o),
(65,695,o),
(65,661,qs),
(65,631,o),
(101,595,o),
(131,593,q),
(124,564,o)
);
}
);
userData = {
assembly = "PUSHB[ ]	/* 5 values pushed */
17 16 2 0 73 
MPPEM[ ]	/* MeasurePixelPerEm */
PUSHB[ ]	/* 1 value pushed */
33 
LT[ ]	/* LessThan */
IF[ ]	/* If */
NPUSHB[ ]	/* 11 values pushed */
0 0 0 1 97 0 1 1 46 0 78 
ELSE[ ]	/* Else */
NPUSHB[ ]	/* 16 values pushed */
0 1 0 0 1 89 0 1 1 0 97 0 0 1 0 81 
EIF[ ]	/* EndIf */
PUSHB[ ]	/* 5 values pushed */
36 16 2 8 24 
CALL[ ]	/* CallFunction */";
};
width = 279;
}
);
note = quoteright;
unicode = 8217;
},
{
glyphname = quotedblleft;
layers = (
{
layerId = m01;
shapes = (
{
closed = 1;
nodes = (
(398,694,o),
(423,711,q),
(394,751,l),
(368,742,o),
(323,705,o),
(288,656,o),
(268,600,o),
(268,573,qs),
(268,555,o),
(276,520,o),
(295,493,o),
(324,475,o),
(345,475,qs),
(348,475,o),
(351,475,qs),
(378,475,o),
(420,511,o),
(420,545,qs),
(420,574,o),
(384,611,o),
(353,613,q),
(360,643,o)
);
},
{
closed = 1;
nodes = (
(193,694,o),
(218,711,q),
(189,751,l),
(163,742,o),
(118,705,o),
(83,656,o),
(63,600,o),
(63,573,qs),
(63,555,o),
(71,520,o),
(89,493,o),
(118,475,o),
(139,475,qs),
(142,475,o),
(145,475,qs),
(173,475,o),
(215,511,o),
(215,545,qs),
(215,574,o),
(179,611,o),
(148,613,q),
(155,643,o)
);
}
);
userData = {
assembly = "NPUSHB[ ]	/* 33 values pushed */
41 40 19 18 4 0 74 2 1 0 1 1 0 89 2 1 0 0 1 97 3 1 1 0 1 81 68 29 68 16 4 8 26 
CALL[ ]	/* CallFunction */";
};
width = 485;
}
);
note = quotedblleft;
unicode = 8220;
},
{
glyphname = quoteleft;
layers = (
{
layerId = m01;
shapes = (
{
closed = 1;
nodes = (
(192,694,o),
(217,711,q),
(188,751,l),
(163,742,o),
(118,705,o),
(83,656,o),
(63,600,o),
(63,573,qs),
(63,555,o),
(71,520,o),
(89,493,o),
(118,475,o),
(139,475,qs),
(142,475,o),
(145,475,qs),
(172,475,o),
(214,511,o),
(214,545,qs),
(214,574,o),
(178,611,o),
(148,613,q),
(155,643,o)
);
}
);
userData = {
assembly = "NPUSHB[ ]	/* 26 values pushed */
19 18 2 0 74 0 0 1 1 0 89 0 0 0 1 97 0 1 0 1 81 68 16 2 8 24 
CALL[ ]	/* CallFunction */";
};
width = 279;
}
);
note = quoteleft;
unicode = 8216;
},
{
glyphname = minus;
layers = (
{
layerId = m01;
shapes = (
{
closed = 1;
nodes = (
(471,308,l),
(471,406,l),
(69,406,l),
(69,308,l)
);
}
);
userData = {
assembly = "NPUSHB[ ]	/* 21 values pushed */
0 0 1 1 0 87 0 0 0 1 95 0 1 0 1 79 17 16 2 6 24 
CALL[ ]	/* CallFunction */";
};
width = 540;
}
);
note = minus;
unicode = 8722;
},
{
glyphname = hyphen;
layers = (
{
layerId = m01;
shapes = (
{
closed = 1;
nodes = (
(388,237,l),
(388,335,l),
(69,335,l),
(69,237,l)
);
}
);
userData = {
assembly = "NPUSHB[ ]	/* 21 values pushed */
0 0 1 1 0 87 0 0 0 1 95 0 1 0 1 79 17 16 2 8 24 
CALL[ ]	/* CallFunction */";
};
width = 457;
}
);
note = hyphen;
unicode = 45;
},
{
glyphname = endash;
layers = (
{
layerId = m01;
shapes = (
{
closed = 1;
nodes = (
(533,237,l),
(533,335,l),
(69,335,l),
(69,237,l)
);
}
);
userData = {
assembly = "NPUSHB[ ]	/* 21 values pushed */
0 0 1 1 0 87 0 0 0 1 95 0 1 0 1 79 17 16 2 8 24 
CALL[ ]	/* CallFunction */";
};
width = 602;
}
);
note = endash;
unicode = 8211;
},
{
glyphname = emdash;
layers = (
{
layerId = m01;
shapes = (
{
closed = 1;
nodes = (
(736,237,l),
(736,335,l),
(69,335,l),
(69,237,l)
);
}
);
userData = {
assembly = "NPUSHB[ ]	/* 21 values pushed */
0 0 1 1 0 87 0 0 0 1 95 0 1 0 1 79 17 16 2 8 24 
CALL[ ]	/* CallFunction */";
};
width = 805;
}
);
note = emdash;
unicode = 8212;
},
{
glyphname = grave;
layers = (
{
layerId = m01;
shapes = (
{
closed = 1;
nodes = (
(50,769,l),
(167,606,l),
(262,606,l),
(165,769,l)
);
}
);
userData = {
assembly = "PUSHB[ ]	/* 2 values pushed */
6 100 
WCVTP[ ]	/* WriteCVTInPixels */
NPUSHB[ ]	/* 14 values pushed */
0 1 0 1 133 0 0 0 118 17 16 2 8 24 
CALL[ ]	/* CallFunction */
PUSHB[ ]	/* 2 values pushed */
6 0 
WCVTP[ ]	/* WriteCVTInPixels */";
};
width = 362;
}
);
note = grave;
unicode = 96;
},
{
glyphname = acute;
layers = (
{
layerId = m01;
shapes = (
{
closed = 1;
nodes = (
(195,606,l),
(312,769,l),
(197,769,l),
(100,606,l)
);
}
);
userData = {
assembly = "PUSHB[ ]	/* 2 values pushed */
6 100 
WCVTP[ ]	/* WriteCVTInPixels */
NPUSHB[ ]	/* 14 values pushed */
0 0 1 0 133 0 1 1 118 17 16 2 8 24 
CALL[ ]	/* CallFunction */
PUSHB[ ]	/* 2 values pushed */
6 0 
WCVTP[ ]	/* WriteCVTInPixels */";
};
width = 362;
}
);
note = acute;
unicode = 180;
},
{
glyphname = guillemotright;
layers = (
{
layerId = m01;
shapes = (
{
closed = 1;
nodes = (
(54,86,l),
(171,86,l),
(291,267,l),
(171,449,l),
(54,449,l),
(176,267,l)
);
},
{
closed = 1;
nodes = (
(252,86,l),
(370,86,l),
(491,267,l),
(370,449,l),
(252,449,l),
(377,267,l)
);
}
);
userData = {
assembly = "NPUSHB[ ]	/* 35 values pushed */
11 8 5 2 4 1 0 1 76 2 1 0 1 1 0 87 2 1 0 0 1 95 3 1 1 0 1 79 18 18 18 16 4 8 26 
CALL[ ]	/* CallFunction */";
};
width = 525;
}
);
note = guillemotright;
unicode = 187;
},
{
glyphname = guilsinglright;
layers = (
{
layerId = m01;
shapes = (
{
closed = 1;
nodes = (
(56,86,l),
(171,86,l),
(292,267,l),
(171,449,l),
(54,449,l),
(177,265,l)
);
}
);
userData = {
assembly = "NPUSHB[ ]	/* 28 values pushed */
5 2 2 1 0 1 76 0 0 1 1 0 87 0 0 0 1 95 0 1 0 1 79 18 16 2 8 24 
CALL[ ]	/* CallFunction */";
};
width = 326;
}
);
note = guilsinglright;
unicode = 8250;
},
{
glyphname = guillemotleft;
layers = (
{
layerId = m01;
shapes = (
{
closed = 1;
nodes = (
(272,449,l),
(154,449,l),
(34,267,l),
(154,86,l),
(272,86,l),
(147,267,l)
);
},
{
closed = 1;
nodes = (
(471,449,l),
(353,449,l),
(233,267,l),
(353,86,l),
(471,86,l),
(348,267,l)
);
}
);
userData = {
assembly = "NPUSHB[ ]	/* 35 values pushed */
11 8 5 2 4 0 1 1 76 3 1 1 0 0 1 87 3 1 1 1 0 95 2 1 0 1 0 79 18 18 18 16 4 8 26 
CALL[ ]	/* CallFunction */";
};
width = 525;
}
);
note = guillemotleft;
unicode = 171;
},
{
glyphname = guilsinglleft;
layers = (
{
layerId = m01;
shapes = (
{
closed = 1;
nodes = (
(272,449,l),
(155,449,l),
(34,267,l),
(154,86,l),
(273,86,l),
(148,270,l)
);
}
);
userData = {
assembly = "NPUSHB[ ]	/* 28 values pushed */
5 2 2 0 1 1 76 0 1 0 0 1 87 0 1 1 0 95 0 0 1 0 79 18 16 2 8 24 
CALL[ ]	/* CallFunction */";
};
width = 327;
}
);
note = guilsinglleft;
unicode = 8249;
},
{
glyphname = uni00AD;
layers = (
{
layerId = m01;
shapes = (
{
closed = 1;
nodes = (
(386,237,l),
(386,335,l),
(69,335,l),
(69,237,l)
);
}
);
userData = {
assembly = "NPUSHB[ ]	/* 21 values pushed */
0 0 1 1 0 87 0 0 0 1 95 0 1 0 1 79 17 16 2 8 24 
CALL[ ]	/* CallFunction */";
};
width = 455;
}
);
note = uni00AD;
unicode = 173;
},
{
glyphname = ellipsis;
layers = (
{
layerId = m01;
shapes = (
{
closed = 1;
nodes = (
(52,99,o),
(52,65,qs),
(52,30,o),
(93,-8,o),
(125,-8,qs),
(157,-8,o),
(198,30,o),
(198,65,qs),
(198,99,o),
(157,139,o),
(125,139,qs),
(93,139,o)
);
},
{
closed = 1;
nodes = (
(299,99,o),
(299,65,qs),
(299,30,o),
(340,-8,o),
(372,-8,qs),
(404,-8,o),
(445,30,o),
(445,65,qs),
(445,99,o),
(404,139,o),
(372,139,qs),
(340,139,o)
);
},
{
closed = 1;
nodes = (
(545,99,o),
(545,65,qs),
(545,30,o),
(586,-8,o),
(618,-8,qs),
(650,-8,o),
(691,30,o),
(691,65,qs),
(691,99,o),
(650,139,o),
(618,139,qs),
(586,139,o)
);
}
);
userData = {
assembly = "NPUSHB[ ]	/* 45 values pushed */
8 4 7 2 6 5 0 0 1 97 5 3 2 1 1 47 1 78 25 24 13 12 1 0 31 29 24 35 25 35 19 17 12 23 13 23 7 5 0 11 1 11 9 8 22 
CALL[ ]	/* CallFunction */";
};
width = 743;
}
);
note = ellipsis;
unicode = 8230;
},
{
glyphname = uni0445;
layers = (
{
layerId = m01;
shapes = (
{
closed = 1;
nodes = (
(333,265,l),
(507,527,l),
(377,527,l),
(265,341,l),
(150,527,l),
(18,527,l),
(191,267,l),
(9,0,l),
(135,0,l),
(259,188,l),
(387,0,l),
(518,0,l)
);
}
);
userData = {
assembly = "NPUSHB[ ]	/* 35 values pushed */
10 7 4 1 4 0 1 1 76 2 1 1 1 22 77 4 3 2 0 0 21 0 78 0 0 0 11 0 11 18 18 18 5 7 25 
CALL[ ]	/* CallFunction */";
};
width = 527;
}
);
note = uni0445;
unicode = 1093;
},
{
glyphname = uni0431;
layers = (
{
layerId = m01;
shapes = (
{
closed = 1;
nodes = (
(167,511,o),
(197,558,o),
(246,591,o),
(278,596,qs),
(305,600,o),
(375,607,o),
(447,614,o),
(511,623,o),
(529,631,q),
(529,740,l),
(494,728,o),
(421,720,o),
(386,716,qs),
(340,710,o),
(254,698,o),
(178,673,o),
(115,626,o),
(91,586,qs),
(62,535,o),
(43,403,o),
(43,340,qs),
(43,277,o),
(65,154,o),
(123,56,o),
(224,-6,o),
(303,-7,qs),
(363,-7,o),
(458,31,o),
(525,100,o),
(560,198,o),
(560,256,qs),
(560,310,o),
(528,397,o),
(468,459,o),
(383,493,o),
(329,493,qs),
(280,493,o),
(184,458,o),
(152,418,q),
(153,450,o)
);
},
{
closed = 1;
nodes = (
(216,119,o),
(181,161,o),
(165,216,o),
(165,246,qs),
(166,277,o),
(188,331,o),
(225,370,o),
(278,391,o),
(311,391,qs),
(343,391,o),
(393,369,o),
(428,330,o),
(447,275,o),
(447,244,qs),
(447,214,o),
(429,159,o),
(393,118,o),
(340,92,o),
(306,92,qs),
(269,92,o)
);
}
);
userData = {
assembly = "NPUSHB[ ]	/* 44 values pushed */
0 1 3 0 1 76 30 29 2 0 74 0 0 0 3 2 0 3 105 4 1 2 2 1 97 0 1 1 28 1 78 41 40 51 49 40 59 41 59 40 34 5 7 24 
CALL[ ]	/* CallFunction */";
};
width = 598;
}
);
note = uni0431;
unicode = 1073;
},
{
glyphname = uni0432;
kernLeft = uni0432;
layers = (
{
layerId = m01;
shapes = (
{
closed = 1;
nodes = (
(312,0,ls),
(353,0,o),
(427,17,o),
(483,54,o),
(517,115,o),
(517,157,qs),
(517,202,o),
(472,267,o),
(424,280,q),
(459,299,o),
(491,359,o),
(491,394,qs),
(490,439,o),
(453,492,o),
(394,520,o),
(322,527,o),
(287,527,qs),
(62,527,l),
(62,0,l)
);
},
{
closed = 1;
nodes = (
(300,432,o),
(335,430,o),
(363,418,o),
(382,395,o),
(382,374,qs),
(382,350,o),
(357,324,o),
(318,312,o),
(269,311,o),
(246,311,qs),
(177,311,l),
(177,432,l),
(285,432,ls)
);
},
{
closed = 1;
nodes = (
(177,225,l),
(322,225,ls),
(356,225,o),
(403,199,o),
(403,161,qs),
(403,140,o),
(383,115,o),
(352,100,o),
(313,96,o),
(293,96,qs),
(177,96,l)
);
}
);
userData = {
assembly = "NPUSHB[ ]	/* 57 values pushed */
9 1 5 2 1 76 0 2 0 5 4 2 5 103 6 1 3 3 0 95 0 0 0 22 77 7 1 4 4 1 95 0 1 1 21 1 78 33 32 19 19 41 39 32 42 33 42 19 31 19 29 50 46 32 8 7 25 
CALL[ ]	/* CallFunction */";
};
width = 561;
}
);
note = uni0432;
unicode = 1074;
},
{
glyphname = uni0433;
kernLeft = uni0432;
kernRight = uni0433;
layers = (
{
layerId = m01;
shapes = (
{
closed = 1;
nodes = (
(176,428,l),
(443,428,l),
(443,527,l),
(62,527,l),
(62,0,l),
(176,0,l)
);
}
);
userData = {
assembly = "NPUSHB[ ]	/* 28 values pushed */
0 1 1 0 95 0 0 0 22 77 3 1 2 2 21 2 78 0 0 0 5 0 5 17 17 4 7 24 
CALL[ ]	/* CallFunction */";
};
width = 461;
}
);
note = uni0433;
unicode = 1075;
},
{
glyphname = uni0434;
kernRight = uni0434;
layers = (
{
layerId = m01;
shapes = (
{
closed = 1;
nodes = (
(115,282,o),
(109,228,o),
(99,173,o),
(92,155,qs),
(85,134,o),
(46,97,o),
(17,97,q),
(17,-154,l),
(128,-154,l),
(128,0,l),
(488,0,l),
(488,-154,l),
(599,-154,l),
(599,97,l),
(530,97,l),
(530,527,l),
(124,527,l),
(124,478,o),
(122,387,o),
(120,354,qs),
(119,328,o)
);
},
{
closed = 1;
nodes = (
(183,97,l),
(195,117,o),
(209,161,o),
(217,206,o),
(221,247,o),
(222,269,qs),
(224,308,o),
(226,392,o),
(228,428,q),
(416,428,l),
(416,97,l)
);
}
);
userData = {
assembly = "NPUSHB[ ]	/* 40 values pushed */
4 1 2 1 2 83 0 6 6 0 95 0 0 0 22 77 7 5 2 1 1 3 95 0 3 3 21 3 78 24 23 17 17 17 17 17 19 8 7 30 
CALL[ ]	/* CallFunction */";
};
width = 616;
}
);
note = uni0434;
unicode = 1076;
},
{
glyphname = uni0436;
layers = (
{
layerId = m01;
shapes = (
{
closed = 1;
nodes = (
(460,213,l),
(542,213,l),
(664,0,l),
(798,0,l),
(631,276,l),
(784,527,l),
(657,527,l),
(534,311,l),
(460,311,l),
(460,527,l),
(347,527,l),
(347,311,l),
(273,311,l),
(150,527,l),
(23,527,l),
(176,276,l),
(9,0,l),
(143,0,l),
(265,213,l),
(347,213,l),
(347,0,l),
(460,0,l)
);
}
);
userData = {
assembly = "NPUSHB[ ]	/* 51 values pushed */
16 5 2 0 3 1 76 5 1 3 8 1 0 1 3 0 103 6 4 2 2 2 22 77 10 9 7 3 1 1 21 1 78 0 0 0 21 0 21 17 18 17 17 17 17 18 17 17 11 7 31 
CALL[ ]	/* CallFunction */";
};
width = 807;
}
);
note = uni0436;
unicode = 1078;
},
{
glyphname = uni043A;
kernLeft = uni0432;
layers = (
{
layerId = m01;
shapes = (
{
closed = 1;
nodes = (
(175,213,l),
(263,213,l),
(402,0,l),
(534,0,l),
(354,276,l),
(521,527,l),
(391,527,l),
(256,312,l),
(175,312,l),
(175,527,l),
(62,527,l),
(62,0,l),
(175,0,l)
);
}
);
userData = {
assembly = "NPUSHB[ ]	/* 42 values pushed */
7 1 4 1 1 76 0 1 0 4 3 1 4 103 2 1 0 0 22 77 6 5 2 3 3 21 3 78 0 0 0 12 0 12 17 18 17 17 17 7 7 27 
CALL[ ]	/* CallFunction */";
};
width = 536;
}
);
note = uni043A;
unicode = 1082;
},
{
glyphname = uni0438;
kernLeft = uni0432;
layers = (
{
layerId = m01;
shapes = (
{
closed = 1;
nodes = (
(433,355,q),
(433,0,l),
(547,0,l),
(547,527,l),
(444,527,l),
(176,165,l),
(176,527,l),
(62,527,l),
(62,0,l),
(168,0,l),
(432,353,o)
);
}
);
userData = {
assembly = "NPUSHB[ ]	/* 27 values pushed */
9 4 2 0 1 1 76 2 1 1 1 22 77 3 1 0 0 21 0 78 17 18 17 16 4 7 26 
CALL[ ]	/* CallFunction */";
};
width = 609;
}
);
note = uni0438;
unicode = 1080;
},
{
glyphname = uni0439;
layers = (
{
layerId = m01;
shapes = (
{
closed = 1;
nodes = (
(232,700,o),
(228,735,q),
(128,735,l),
(134,657,o),
(231,585,o),
(313,585,qs),
(393,585,o),
(490,657,o),
(497,735,q),
(397,735,l),
(394,700,o),
(348,668,o),
(313,668,qs),
(277,668,o)
);
},
{
closed = 1;
nodes = (
(433,354,q),
(433,0,l),
(547,0,l),
(547,527,l),
(444,527,l),
(176,165,l),
(176,527,l),
(62,527,l),
(62,0,l),
(168,0,l),
(432,352,o)
);
}
);
userData = {
assembly = "NPUSHB[ ]	/* 58 values pushed */
23 18 2 4 5 1 76 3 1 1 0 1 133 8 1 0 0 2 5 0 2 105 6 1 5 5 22 77 7 1 4 4 21 4 78 1 0 22 21 20 19 17 16 15 14 11 10 8 6 4 3 0 13 1 13 9 7 22 
CALL[ ]	/* CallFunction */";
};
width = 609;
}
);
note = uni0439;
unicode = 1081;
},
{
glyphname = uni043B;
layers = (
{
layerId = m01;
shapes = (
{
closed = 1;
nodes = (
(100,172,o),
(81,127,o),
(44,98,o),
(14,98,q),
(14,0,l),
(42,0,ls),
(87,0,o),
(156,27,o),
(177,57,qs),
(189,75,o),
(205,118,o),
(213,167,o),
(218,216,o),
(219,234,qs),
(222,282,o),
(225,379,o),
(227,428,q),
(400,428,l),
(400,0,l),
(515,0,l),
(515,527,l),
(121,527,l),
(119,454,o),
(116,319,o),
(111,251,qs),
(109,225,o)
);
}
);
userData = {
assembly = "NPUSHB[ ]	/* 30 values pushed */
0 2 2 0 95 0 0 0 22 77 0 4 4 1 97 3 1 1 1 21 1 78 17 42 17 17 19 5 7 27 
CALL[ ]	/* CallFunction */";
};
width = 577;
}
);
note = uni043B;
unicode = 1083;
},
{
glyphname = uni043C;
kernLeft = uni0432;
layers = (
{
layerId = m01;
shapes = (
{
closed = 1;
nodes = (
(174,0,l),
(174,378,l),
(344,118,l),
(371,118,l),
(538,378,l),
(538,0,l),
(650,0,l),
(650,527,l),
(516,527,l),
(358,276,l),
(199,527,l),
(62,527,l),
(62,0,l)
);
}
);
userData = {
assembly = "NPUSHB[ ]	/* 37 values pushed */
10 7 2 3 3 0 1 76 0 3 0 2 0 3 2 128 1 1 0 0 22 77 4 1 2 2 21 2 78 18 18 17 18 16 5 7 27 
CALL[ ]	/* CallFunction */";
};
width = 713;
}
);
note = uni043C;
unicode = 1084;
},
{
glyphname = uni043D;
kernLeft = uni0432;
layers = (
{
layerId = m01;
shapes = (
{
closed = 1;
nodes = (
(176,211,l),
(410,211,l),
(410,0,l),
(524,0,l),
(524,527,l),
(410,527,l),
(410,310,l),
(176,310,l),
(176,527,l),
(62,527,l),
(62,0,l),
(176,0,l)
);
}
);
userData = {
assembly = "NPUSHB[ ]	/* 36 values pushed */
0 1 0 4 3 1 4 103 2 1 0 0 22 77 6 5 2 3 3 21 3 78 0 0 0 11 0 11 17 17 17 17 17 7 7 27 
CALL[ ]	/* CallFunction */";
};
width = 586;
}
);
note = uni043D;
unicode = 1085;
},
{
glyphname = uni043F;
kernLeft = uni0432;
layers = (
{
layerId = m01;
shapes = (
{
closed = 1;
nodes = (
(176,428,l),
(410,428,l),
(410,0,l),
(524,0,l),
(524,527,l),
(62,527,l),
(62,0,l),
(176,0,l)
);
}
);
userData = {
assembly = "NPUSHB[ ]	/* 30 values pushed */
0 2 2 0 95 0 0 0 22 77 4 3 2 1 1 21 1 78 0 0 0 7 0 7 17 17 17 5 7 25 
CALL[ ]	/* CallFunction */";
};
width = 586;
}
);
note = uni043F;
unicode = 1087;
},
{
glyphname = uni0442;
layers = (
{
layerId = m01;
shapes = (
{
closed = 1;
nodes = (
(4,428,l),
(182,428,l),
(182,0,l),
(295,0,l),
(295,428,l),
(473,428,l),
(473,527,l),
(4,527,l)
);
}
);
userData = {
assembly = "NPUSHB[ ]	/* 30 values pushed */
2 1 0 0 3 95 4 1 3 3 22 77 0 1 1 21 1 78 0 0 0 7 0 7 17 17 17 5 7 25 
CALL[ ]	/* CallFunction */";
};
width = 477;
}
);
note = uni0442;
unicode = 1090;
},
{
glyphname = uni0444;
kernLeft = uni0444;
layers = (
{
layerId = m01;
shapes = (
{
closed = 1;
nodes = (
(256,535,o),
(151,498,o),
(77,429,o),
(38,327,o),
(38,259,qs),
(38,193,o),
(80,93,o),
(156,28,o),
(259,-6,o),
(322,-7,q),
(322,-200,l),
(435,-200,l),
(435,-7,l),
(496,-6,o),
(601,28,o),
(676,94,o),
(719,194,o),
(719,261,qs),
(719,329,o),
(677,430,o),
(602,498,o),
(498,534,o),
(435,535,q),
(435,703,l),
(322,703,l),
(322,535,l)
);
},
{
closed = 1;
nodes = (
(517,437,o),
(604,349,o),
(604,263,qs),
(604,179,o),
(519,89,o),
(435,89,q),
(435,437,l)
);
},
{
closed = 1;
nodes = (
(238,90,o),
(153,178,o),
(153,263,qs),
(153,349,o),
(239,437,o),
(322,437,q),
(322,89,l)
);
}
);
userData = {
assembly = "MPPEM[ ]	/* MeasurePixelPerEm */
PUSHB[ ]	/* 1 value pushed */
14 
LT[ ]	/* LessThan */
IF[ ]	/* If */
NPUSHB[ ]	/* 35 values pushed */
0 0 0 20 77 8 1 7 7 1 97 5 1 1 1 29 77 9 1 6 6 2 97 4 1 2 2 28 77 0 3 3 24 3 78 
ELSE[ ]	/* Else */
NPUSHB[ ]	/* 35 values pushed */
8 1 7 7 1 97 5 1 1 1 29 77 9 1 6 6 2 97 4 1 2 2 28 77 0 3 3 0 95 0 0 0 20 3 78 
EIF[ ]	/* EndIf */
NPUSHB[ ]	/* 14 values pushed */
39 38 17 20 17 24 17 17 24 17 16 10 7 31 
CALL[ ]	/* CallFunction */";
};
width = 757;
}
);
note = uni0444;
unicode = 1092;
},
{
glyphname = uni0446;
kernLeft = uni0432;
kernRight = uni0434;
layers = (
{
layerId = m01;
shapes = (
{
closed = 1;
nodes = (
(175,527,l),
(62,527,l),
(62,0,l),
(478,0,l),
(478,-154,l),
(590,-154,l),
(590,97,l),
(519,97,l),
(519,527,l),
(405,527,l),
(405,97,l),
(175,97,l)
);
}
);
userData = {
assembly = "NPUSHB[ ]	/* 38 values pushed */
0 2 1 2 84 4 1 0 0 22 77 6 5 2 1 1 3 96 0 3 3 21 3 78 0 0 0 11 0 11 17 17 17 17 17 7 7 27 
CALL[ ]	/* CallFunction */";
};
width = 607;
}
);
note = uni0446;
unicode = 1094;
},
{
glyphname = uni0447;
kernLeft = uni0432;
layers = (
{
layerId = m01;
shapes = (
{
closed = 1;
nodes = (
(39,335,o),
(65,253,o),
(116,204,o),
(190,181,o),
(238,180,qs),
(270,180,o),
(299,181,o),
(349,185,o),
(371,188,q),
(371,0,l),
(484,0,l),
(484,527,l),
(371,527,l),
(371,287,l),
(352,284,o),
(294,279,o),
(269,279,qs),
(230,279,o),
(184,294,o),
(160,329,o),
(153,383,o),
(153,423,qs),
(153,527,l),
(39,527,l),
(39,395,ls)
);
}
);
userData = {
assembly = "NPUSHB[ ]	/* 38 values pushed */
10 1 1 0 15 1 4 1 2 76 0 1 0 4 3 1 4 105 2 1 0 0 22 77 0 3 3 21 3 78 51 17 19 37 16 5 7 27 
CALL[ ]	/* CallFunction */";
};
width = 547;
}
);
note = uni0447;
unicode = 1095;
},
{
glyphname = uni0448;
kernLeft = uni0432;
layers = (
{
layerId = m01;
shapes = (
{
closed = 1;
nodes = (
(756,0,l),
(756,527,l),
(642,527,l),
(642,97,l),
(465,97,l),
(465,527,l),
(352,527,l),
(352,97,l),
(176,97,l),
(176,527,l),
(62,527,l),
(62,0,l)
);
}
);
userData = {
assembly = "NPUSHB[ ]	/* 28 values pushed */
4 2 2 0 0 22 77 3 1 1 1 5 96 0 5 5 21 5 78 17 17 17 17 17 16 6 7 28 
CALL[ ]	/* CallFunction */";
};
width = 818;
}
);
note = uni0448;
unicode = 1096;
},
{
glyphname = uni0449;
kernLeft = uni0432;
kernRight = uni0434;
layers = (
{
layerId = m01;
shapes = (
{
closed = 1;
nodes = (
(716,0,l),
(716,-154,l),
(826,-154,l),
(826,97,l),
(756,97,l),
(756,527,l),
(642,527,l),
(642,97,l),
(465,97,l),
(465,527,l),
(352,527,l),
(352,97,l),
(176,97,l),
(176,527,l),
(62,527,l),
(62,0,l)
);
}
);
userData = {
assembly = "NPUSHB[ ]	/* 36 values pushed */
0 6 1 6 84 4 2 2 0 0 22 77 5 3 2 1 1 7 96 0 7 7 21 7 78 17 17 17 17 17 17 17 16 8 7 30 
CALL[ ]	/* CallFunction */";
};
width = 843;
}
);
note = uni0449;
unicode = 1097;
},
{
glyphname = uni044A;
layers = (
{
layerId = m01;
shapes = (
{
closed = 1;
nodes = (
(352,0,ls),
(392,0,o),
(471,17,o),
(534,59,o),
(572,131,o),
(572,185,qs),
(572,231,o),
(541,294,o),
(486,333,o),
(411,349,o),
(367,349,qs),
(250,349,l),
(250,527,l),
(9,527,l),
(9,428,l),
(136,428,l),
(136,0,l)
);
},
{
closed = 1;
nodes = (
(250,251,l),
(337,251,ls),
(354,251,o),
(396,249,o),
(434,236,o),
(459,205,o),
(459,177,qs),
(459,153,o),
(439,122,o),
(407,104,o),
(366,96,o),
(345,96,qs),
(250,96,l)
);
}
);
userData = {
assembly = "NPUSHB[ ]	/* 45 values pushed */
0 2 0 5 4 2 5 103 0 0 0 1 95 0 1 1 22 77 6 1 4 4 3 95 0 3 3 21 3 78 18 17 28 25 17 29 18 29 40 33 17 16 7 7 26 
CALL[ ]	/* CallFunction */";
};
width = 607;
}
);
note = uni044A;
unicode = 1098;
},
{
glyphname = uni044B;
kernLeft = uni0432;
layers = (
{
layerId = m01;
shapes = (
{
closed = 1;
nodes = (
(256,0,ls),
(295,0,o),
(375,16,o),
(439,57,o),
(479,128,o),
(479,182,qs),
(479,230,o),
(447,294,o),
(392,333,o),
(316,349,o),
(272,349,qs),
(177,349,l),
(177,527,l),
(62,527,l),
(62,0,l)
);
},
{
closed = 1;
nodes = (
(660,527,l),
(547,527,l),
(547,0,l),
(660,0,l)
);
},
{
closed = 1;
nodes = (
(177,251,l),
(278,251,ls),
(294,250,o),
(326,244,o),
(351,227,o),
(366,199,o),
(366,177,qs),
(366,151,o),
(346,119,o),
(312,102,o),
(268,95,o),
(246,95,qs),
(177,96,l)
);
}
);
userData = {
assembly = "NPUSHB[ ]	/* 49 values pushed */
0 1 0 6 5 1 6 103 3 1 0 0 22 77 8 1 5 5 2 96 7 4 2 2 2 21 2 78 20 19 15 15 30 28 19 31 20 31 15 18 15 18 18 40 33 16 9 7 26 
CALL[ ]	/* CallFunction */";
};
width = 723;
}
);
note = uni044B;
unicode = 1099;
},
{
glyphname = uni044C;
kernLeft = uni0432;
layers = (
{
layerId = m01;
shapes = (
{
closed = 1;
nodes = (
(278,0,ls),
(319,0,o),
(399,17,o),
(462,59,o),
(501,130,o),
(501,183,qs),
(501,230,o),
(470,294,o),
(415,334,o),
(340,349,o),
(294,349,qs),
(176,349,l),
(176,527,l),
(62,527,l),
(62,0,l)
);
},
{
closed = 1;
nodes = (
(176,251,l),
(267,251,ls),
(285,251,o),
(328,249,o),
(364,235,o),
(388,205,o),
(388,177,qs),
(387,151,o),
(366,119,o),
(333,102,o),
(288,95,o),
(265,95,qs),
(176,96,l)
);
}
);
userData = {
assembly = "NPUSHB[ ]	/* 39 values pushed */
0 1 0 4 3 1 4 103 0 0 0 22 77 5 1 3 3 2 96 0 2 2 21 2 78 16 15 26 23 15 27 16 27 40 33 16 6 7 25 
CALL[ ]	/* CallFunction */";
};
width = 541;
}
);
note = uni044C;
unicode = 1100;
},
{
glyphname = uni044E;
kernLeft = uni0432;
layers = (
{
layerId = m01;
shapes = (
{
closed = 1;
nodes = (
(265,414,o),
(253,313,q),
(176,313,l),
(176,527,l),
(62,527,l),
(62,0,l),
(176,0,l),
(176,214,l),
(253,214,l),
(264,112,o),
(386,-7,o),
(500,-7,qs),
(564,-7,o),
(659,31,o),
(723,102,o),
(755,201,o),
(755,263,qs),
(755,324,o),
(722,424,o),
(657,496,o),
(563,536,o),
(500,536,qs),
(387,536,o)
);
},
{
closed = 1;
nodes = (
(409,119,o),
(375,164,o),
(359,225,o),
(359,261,qs),
(359,297,o),
(374,361,o),
(408,407,o),
(462,434,o),
(500,434,qs),
(539,434,o),
(593,407,o),
(627,361,o),
(643,297,o),
(643,261,qs),
(643,225,o),
(627,164,o),
(592,119,o),
(538,92,o),
(500,92,qs),
(462,92,o)
);
}
);
userData = {
assembly = "MPPEM[ ]	/* MeasurePixelPerEm */
PUSHB[ ]	/* 1 value pushed */
27 
LT[ ]	/* LessThan */
IF[ ]	/* If */
NPUSHB[ ]	/* 33 values pushed */
0 5 0 2 6 5 2 103 0 7 7 0 97 4 8 2 0 0 29 77 9 1 6 6 1 97 3 1 1 1 28 1 78 
ELSE[ ]	/* Else */
MPPEM[ ]	/* MeasurePixelPerEm */
PUSHB[ ]	/* 1 value pushed */
33 
LT[ ]	/* LessThan */
IF[ ]	/* If */
NPUSHB[ ]	/* 37 values pushed */
0 5 0 2 6 5 2 103 0 4 4 22 77 0 7 7 0 97 8 1 0 0 29 77 9 1 6 6 1 97 3 1 1 1 28 1 78 
ELSE[ ]	/* Else */
NPUSHB[ ]	/* 41 values pushed */
0 5 0 2 6 5 2 103 0 4 4 22 77 0 7 7 0 97 8 1 0 0 29 77 0 3 3 21 77 9 1 6 6 1 97 0 1 1 28 1 78 
EIF[ ]	/* EndIf */
EIF[ ]	/* EndIf */
NPUSHB[ ]	/* 27 values pushed */
24 23 1 0 34 32 23 42 24 42 20 19 18 17 16 15 14 13 11 9 0 22 1 22 10 7 22 
CALL[ ]	/* CallFunction */";
};
width = 793;
}
);
note = uni044E;
unicode = 1102;
},
{
glyphname = uni044F;
kernLeft = uni0432;
layers = (
{
layerId = m01;
shapes = (
{
closed = 1;
nodes = (
(260,527,ls),
(216,527,o),
(140,511,o),
(81,470,o),
(48,404,o),
(48,355,qs),
(48,293,o),
(111,213,o),
(172,198,q),
(29,0,l),
(163,0,l),
(286,180,l),
(381,180,l),
(381,0,l),
(494,0,l),
(494,527,l)
);
},
{
closed = 1;
nodes = (
(300,274,ls),
(280,274,o),
(240,277,o),
(192,292,o),
(162,328,o),
(162,354,qs),
(162,356,o),
(162,359,qs),
(162,380,o),
(180,410,o),
(211,427,o),
(249,432,o),
(268,432,qs),
(381,432,l),
(381,274,l)
);
}
);
userData = {
assembly = "NPUSHB[ ]	/* 40 values pushed */
6 1 1 5 1 76 0 5 0 1 0 5 1 103 0 4 4 3 95 0 3 3 22 77 2 1 0 0 21 0 78 42 33 40 17 17 16 6 7 28 
CALL[ ]	/* CallFunction */";
};
width = 557;
}
);
note = uni044F;
unicode = 1103;
},
{
glyphname = uni0410;
kernLeft = A;
kernRight = A;
layers = (
{
layerId = m01;
shapes = (
{
closed = 1;
nodes = (
(5,0,l),
(131,0,l),
(184,143,l),
(505,143,l),
(557,0,l),
(684,0,l),
(418,707,l),
(273,707,l)
);
},
{
closed = 1;
nodes = (
(345,592,l),
(469,247,l),
(220,247,l)
);
}
);
userData = {
assembly = "NPUSHB[ ]	/* 46 values pushed */
9 1 4 3 1 76 6 1 4 0 1 0 4 1 104 5 1 3 3 20 77 2 1 0 0 21 0 78 8 8 0 0 8 10 8 10 0 7 0 7 17 17 17 7 7 25 
CALL[ ]	/* CallFunction */";
};
width = 689;
}
);
note = uni0410;
unicode = 1040;
},
{
glyphname = uni0415;
layers = (
{
layerId = m01;
shapes = (
{
closed = 1;
nodes = (
(573,103,l),
(198,103,l),
(198,297,l),
(530,297,l),
(530,402,l),
(198,402,l),
(198,603,l),
(573,603,l),
(573,707,l),
(82,707,l),
(82,0,l),
(573,0,l)
);
}
);
userData = {
assembly = "NPUSHB[ ]	/* 44 values pushed */
0 2 0 3 4 2 3 103 0 1 1 0 95 0 0 0 20 77 0 4 4 5 95 6 1 5 5 21 5 78 0 0 0 11 0 11 17 17 17 17 17 7 7 27 
CALL[ ]	/* CallFunction */";
};
width = 616;
}
);
note = uni0415;
unicode = 1045;
},
{
glyphname = uni041C;
layers = (
{
layerId = m01;
shapes = (
{
closed = 1;
nodes = (
(197,551,l),
(410,184,l),
(462,184,l),
(675,551,l),
(675,0,l),
(790,0,l),
(790,707,l),
(648,707,l),
(439,345,l),
(228,707,l),
(82,707,l),
(82,0,l),
(197,0,l)
);
}
);
userData = {
assembly = "NPUSHB[ ]	/* 43 values pushed */
11 8 3 3 3 0 1 76 0 3 0 2 0 3 2 128 1 1 0 0 20 77 5 4 2 2 2 21 2 78 0 0 0 12 0 12 18 17 18 17 6 7 26 
CALL[ ]	/* CallFunction */";
};
width = 872;
}
);
note = uni041C;
unicode = 1052;
},
{
glyphname = uni041D;
layers = (
{
layerId = m01;
shapes = (
{
closed = 1;
nodes = (
(82,707,l),
(82,0,l),
(198,0,l),
(198,296,l),
(537,296,l),
(537,0,l),
(653,0,l),
(653,707,l),
(537,707,l),
(537,400,l),
(198,400,l),
(198,707,l)
);
}
);
userData = {
assembly = "NPUSHB[ ]	/* 30 values pushed */
0 0 0 3 2 0 3 103 5 1 1 1 20 77 4 1 2 2 21 2 78 17 17 17 17 17 16 6 7 28 
CALL[ ]	/* CallFunction */";
};
width = 735;
}
);
note = uni041D;
unicode = 1053;
},
{
glyphname = uni0420;
layers = (
{
layerId = m01;
shapes = (
{
closed = 1;
nodes = (
(197,221,l),
(336,221,ls),
(397,221,o),
(496,255,o),
(566,318,o),
(604,410,o),
(604,468,qs),
(604,531,o),
(567,622,o),
(499,680,o),
(402,707,o),
(341,707,qs),
(82,707,l),
(82,0,l),
(197,0,l)
);
},
{
closed = 1;
nodes = (
(337,603,ls),
(411,603,o),
(488,537,o),
(488,462,qs),
(487,426,o),
(462,374,o),
(420,340,o),
(363,324,o),
(330,324,qs),
(197,324,l),
(197,603,l)
);
}
);
userData = {
assembly = "NPUSHB[ ]	/* 40 values pushed */
0 3 0 1 2 3 1 103 0 4 4 0 95 0 0 0 20 77 5 1 2 2 21 2 78 0 0 25 23 17 15 0 14 0 14 40 33 6 7 24 
CALL[ ]	/* CallFunction */";
};
width = 643;
}
);
note = uni0420;
unicode = 1056;
},
{
glyphname = uni0422;
kernLeft = uni0422;
kernRight = uni0422;
layers = (
{
layerId = m01;
shapes = (
{
closed = 1;
nodes = (
(574,603,l),
(574,707,l),
(9,707,l),
(9,603,l),
(234,603,l),
(234,0,l),
(350,0,l),
(350,603,l)
);
}
);
userData = {
assembly = "NPUSHB[ ]	/* 24 values pushed */
3 1 1 1 2 95 0 2 2 20 77 0 0 0 21 0 78 17 17 17 16 4 7 26 
CALL[ ]	/* CallFunction */";
};
width = 583;
}
);
note = uni0422;
unicode = 1058;
},
{
glyphname = uni0425;
layers = (
{
layerId = m01;
shapes = (
{
closed = 1;
nodes = (
(154,707,l),
(16,707,l),
(244,354,l),
(9,0,l),
(140,0,l),
(313,264,l),
(482,0,l),
(620,0,l),
(386,355,l),
(613,707,l),
(477,707,l),
(316,444,l)
);
}
);
userData = {
assembly = "NPUSHB[ ]	/* 29 values pushed */
11 8 5 2 4 1 0 1 76 3 1 0 0 20 77 2 1 1 1 21 1 78 18 18 18 16 4 7 26 
CALL[ ]	/* CallFunction */";
};
width = 629;
}
);
note = uni0425;
unicode = 1061;
},
{
glyphname = T;
kernLeft = uni0422;
kernRight = uni0422;
layers = (
{
layerId = m01;
shapes = (
{
closed = 1;
nodes = (
(349,603,l),
(574,603,l),
(574,707,l),
(9,707,l),
(9,603,l),
(233,603,l),
(233,0,l),
(349,0,l)
);
}
);
userData = {
assembly = "NPUSHB[ ]	/* 30 values pushed */
2 1 0 0 1 95 0 1 1 38 77 4 1 3 3 39 3 78 0 0 0 7 0 7 17 17 17 5 8 25 
CALL[ ]	/* CallFunction */";
};
width = 583;
}
);
note = T;
unicode = 84;
},
{
glyphname = uni0412;
layers = (
{
layerId = m01;
shapes = (
{
closed = 1;
nodes = (
(387,0,o),
(488,15,o),
(572,59,o),
(626,140,o),
(626,207,qs),
(626,271,o),
(566,360,o),
(501,376,q),
(549,399,o),
(591,479,o),
(591,530,qs),
(591,583,o),
(553,651,o),
(490,691,o),
(407,707,o),
(362,707,qs),
(81,707,l),
(81,0,l),
(341,0,ls)
);
},
{
closed = 1;
nodes = (
(374,603,o),
(421,598,o),
(457,579,o),
(479,542,o),
(479,511,qs),
(479,479,o),
(452,440,o),
(410,417,o),
(357,409,o),
(332,409,qs),
(197,409,l),
(197,603,l),
(349,603,ls)
);
},
{
closed = 1;
nodes = (
(219,308,o),
(241,308,qs),
(327,309,ls),
(349,309,o),
(371,309,qs),
(396,309,o),
(445,301,o),
(485,280,o),
(510,241,o),
(510,211,qs),
(510,175,o),
(477,133,o),
(427,110,o),
(366,103,o),
(339,103,qs),
(197,103,l),
(197,308,l)
);
}
);
userData = {
assembly = "NPUSHB[ ]	/* 59 values pushed */
10 1 5 2 1 76 0 2 0 5 4 2 5 103 7 1 3 3 0 95 0 0 0 20 77 0 4 4 1 95 6 1 1 1 21 1 78 19 19 0 0 48 42 34 32 19 31 19 30 22 20 0 18 0 17 33 8 7 23 
CALL[ ]	/* CallFunction */";
};
width = 670;
}
);
note = uni0412;
unicode = 1042;
},
{
glyphname = uni041F;
layers = (
{
layerId = m01;
shapes = (
{
closed = 1;
nodes = (
(82,707,l),
(82,0,l),
(198,0,l),
(198,603,l),
(540,603,l),
(540,0,l),
(656,0,l),
(656,707,l)
);
}
);
userData = {
assembly = "NPUSHB[ ]	/* 24 values pushed */
0 1 1 3 95 0 3 3 20 77 2 1 0 0 21 0 78 17 17 17 16 4 7 26 
CALL[ ]	/* CallFunction */";
};
width = 738;
}
);
note = uni041F;
unicode = 1055;
},
{
glyphname = uni0413;
kernRight = uni0413;
layers = (
{
layerId = m01;
shapes = (
{
closed = 1;
nodes = (
(198,603,l),
(555,603,l),
(555,707,l),
(82,707,l),
(82,0,l),
(198,0,l)
);
}
);
userData = {
assembly = "NPUSHB[ ]	/* 28 values pushed */
0 1 1 0 95 0 0 0 20 77 3 1 2 2 21 2 78 0 0 0 5 0 5 17 17 4 7 24 
CALL[ ]	/* CallFunction */";
};
width = 579;
}
);
note = uni0413;
unicode = 1043;
},
{
glyphname = uni041B;
layers = (
{
layerId = m01;
shapes = (
{
closed = 1;
nodes = (
(621,707,l),
(135,707,l),
(134,671,o),
(134,600,o),
(132,518,o),
(130,419,o),
(129,355,qs),
(127,308,o),
(120,217,o),
(97,146,o),
(52,102,o),
(14,102,q),
(14,-4,l),
(91,-4,o),
(183,45,o),
(210,100,qs),
(220,120,o),
(231,170,o),
(238,226,o),
(241,283,o),
(241,310,qs),
(243,367,o),
(245,453,o),
(246,521,o),
(246,572,o),
(247,603,q),
(505,603,l),
(505,0,l),
(621,0,l)
);
}
);
userData = {
assembly = "MPPEM[ ]	/* MeasurePixelPerEm */
PUSHB[ ]	/* 1 value pushed */
10 
LT[ ]	/* LessThan */
IF[ ]	/* If */
NPUSHB[ ]	/* 23 values pushed */
0 0 0 3 95 0 3 3 20 77 0 2 2 1 97 5 4 2 1 1 21 1 78 
ELSE[ ]	/* Else */
MPPEM[ ]	/* MeasurePixelPerEm */
PUSHB[ ]	/* 1 value pushed */
12 
LT[ ]	/* LessThan */
IF[ ]	/* If */
NPUSHB[ ]	/* 23 values pushed */
0 0 0 3 95 0 3 3 20 77 0 2 2 1 97 5 4 2 1 1 28 1 78 
ELSE[ ]	/* Else */
MPPEM[ ]	/* MeasurePixelPerEm */
PUSHB[ ]	/* 1 value pushed */
14 
LT[ ]	/* LessThan */
IF[ ]	/* If */
NPUSHB[ ]	/* 23 values pushed */
0 0 0 3 95 0 3 3 20 77 0 2 2 1 97 5 4 2 1 1 21 1 78 
ELSE[ ]	/* Else */
NPUSHB[ ]	/* 23 values pushed */
0 0 0 3 95 0 3 3 20 77 0 2 2 1 97 5 4 2 1 1 28 1 78 
EIF[ ]	/* EndIf */
EIF[ ]	/* EndIf */
EIF[ ]	/* EndIf */
NPUSHB[ ]	/* 13 values pushed */
0 0 0 28 0 28 25 17 28 17 6 7 26 
CALL[ ]	/* CallFunction */";
};
width = 703;
}
);
note = uni041B;
unicode = 1051;
},
{
glyphname = uni0414;
kernRight = uni0414;
layers = (
{
layerId = m01;
shapes = (
{
closed = 1;
nodes = (
(132,0,l),
(595,0,l),
(595,-187,l),
(710,-187,l),
(710,103,l),
(625,103,l),
(625,707,l),
(144,707,l),
(142,607,o),
(139,416,o),
(133,316,qs),
(130,271,o),
(119,194,o),
(95,136,o),
(56,103,o),
(25,103,qs),
(17,103,l),
(17,-187,l),
(132,-187,l)
);
},
{
closed = 1;
nodes = (
(222,131,o),
(236,198,o),
(243,265,o),
(246,328,o),
(247,352,qs),
(254,603,l),
(509,603,l),
(509,103,l),
(211,103,l)
);
}
);
userData = {
assembly = "MPPEM[ ]	/* MeasurePixelPerEm */
PUSHB[ ]	/* 1 value pushed */
14 
LT[ ]	/* LessThan */
IF[ ]	/* If */
NPUSHB[ ]	/* 39 values pushed */
0 6 6 1 95 0 1 1 20 77 9 7 2 3 0 0 4 95 0 4 4 21 77 9 7 2 3 0 0 3 95 8 5 2 3 3 24 3 78 
ELSE[ ]	/* Else */
NPUSHB[ ]	/* 31 values pushed */
8 5 2 3 0 3 83 0 6 6 1 95 0 1 1 20 77 9 7 2 3 0 0 4 95 0 4 4 21 4 78 
EIF[ ]	/* EndIf */
NPUSHB[ ]	/* 22 values pushed */
19 19 0 0 19 27 19 27 21 20 0 18 0 18 17 17 17 23 33 10 7 27 
CALL[ ]	/* CallFunction */";
};
width = 727;
}
);
note = uni0414;
unicode = 1044;
},
{
glyphname = uni0411;
layers = (
{
layerId = m01;
shapes = (
{
closed = 1;
nodes = (
(340,0,ls),
(394,0,o),
(494,21,o),
(572,72,o),
(619,158,o),
(619,222,qs),
(619,280,o),
(582,359,o),
(515,407,o),
(418,426,o),
(360,426,qs),
(198,426,l),
(198,603,l),
(579,603,l),
(579,707,l),
(82,707,l),
(82,0,l)
);
},
{
closed = 1;
nodes = (
(343,323,ls),
(373,323,o),
(431,318,o),
(476,297,o),
(504,255,o),
(504,219,qs),
(504,180,o),
(474,134,o),
(426,110,o),
(364,103,o),
(332,103,qs),
(198,103,l),
(198,323,l)
);
}
);
userData = {
assembly = "NPUSHB[ ]	/* 38 values pushed */
0 2 0 5 4 2 5 103 0 1 1 0 95 0 0 0 20 77 0 4 4 3 95 0 3 3 21 3 78 40 33 40 33 17 16 6 7 28 
CALL[ ]	/* CallFunction */";
};
width = 669;
}
);
note = uni0411;
unicode = 1041;
},
{
glyphname = uni0416;
layers = (
{
layerId = m01;
shapes = (
{
closed = 1;
nodes = (
(512,297,l),
(608,297,l),
(767,0,l),
(899,0,l),
(700,363,l),
(897,707,l),
(767,707,l),
(602,401,l),
(512,401,l),
(512,707,l),
(396,707,l),
(396,401,l),
(307,401,l),
(142,707,l),
(11,707,l),
(208,363,l),
(158,272,o),
(60,91,o),
(9,0,q),
(141,0,l),
(300,297,l),
(396,297,l),
(396,0,l),
(512,0,l)
);
}
);
userData = {
assembly = "NPUSHB[ ]	/* 51 values pushed */
18 7 2 0 3 1 76 5 1 3 8 1 0 1 3 0 103 6 4 2 2 2 20 77 10 9 7 3 1 1 21 1 78 0 0 0 23 0 23 17 18 17 17 17 17 20 17 17 11 7 31 
CALL[ ]	/* CallFunction */";
};
width = 908;
}
);
note = uni0416;
unicode = 1046;
},
{
glyphname = uni0417;
kernLeft = uni0417;
kernRight = uni0417;
layers = (
{
layerId = m01;
shapes = (
{
closed = 1;
nodes = (
(478,15,o),
(555,66,o),
(602,149,o),
(602,209,qs),
(602,271,o),
(539,362,o),
(479,377,q),
(506,391,o),
(543,428,o),
(564,468,o),
(573,511,o),
(573,531,qs),
(573,585,o),
(529,656,o),
(458,698,o),
(368,715,o),
(321,715,qs),
(268,715,o),
(172,692,o),
(99,643,o),
(56,568,o),
(56,516,q),
(169,516,l),
(170,541,o),
(196,577,o),
(238,601,o),
(291,612,o),
(318,612,qs),
(342,612,o),
(392,604,o),
(433,582,o),
(460,543,o),
(460,512,qs),
(458,482,o),
(432,443,o),
(392,420,o),
(342,410,o),
(318,409,qs),
(238,409,l),
(238,310,l),
(328,310,ls),
(352,310,o),
(407,306,o),
(454,287,o),
(486,246,o),
(486,209,qs),
(486,174,o),
(456,130,o),
(411,106,o),
(356,97,o),
(331,97,qs),
(309,97,o),
(251,103,o),
(199,123,o),
(156,164,o),
(152,199,q),
(39,199,l),
(45,130,o),
(112,48,o),
(202,5,o),
(295,-7,o),
(326,-7,qs),
(378,-7,o)
);
}
);
userData = {
assembly = "NPUSHB[ ]	/* 75 values pushed */
55 1 3 4 1 76 0 6 5 4 5 6 4 128 0 1 3 2 3 1 2 128 0 4 0 3 1 4 3 103 0 5 5 7 97 0 7 7 27 77 0 2 2 0 97 8 1 0 0 28 0 78 1 0 46 44 40 39 35 33 25 23 22 20 12 10 6 5 0 62 1 62 9 7 22 
CALL[ ]	/* CallFunction */";
};
width = 646;
}
);
note = uni0417;
unicode = 1047;
},
{
glyphname = uni0418;
layers = (
{
layerId = m01;
shapes = (
{
closed = 1;
nodes = (
(549,514,l),
(549,0,l),
(665,0,l),
(665,707,l),
(561,707,l),
(198,188,l),
(198,707,l),
(82,707,l),
(82,0,l),
(186,0,l)
);
}
);
userData = {
assembly = "NPUSHB[ ]	/* 33 values pushed */
8 3 2 2 0 1 76 1 1 0 0 20 77 4 3 2 2 2 21 2 78 0 0 0 9 0 9 17 18 17 5 7 25 
CALL[ ]	/* CallFunction */";
};
width = 747;
}
);
note = uni0418;
unicode = 1048;
},
{
glyphname = uni0419;
layers = (
{
layerId = m01;
shapes = (
{
closed = 1;
nodes = (
(296,883,o),
(291,917,q),
(188,917,l),
(194,840,o),
(294,761,o),
(378,761,qs),
(462,761,o),
(562,840,o),
(569,917,q),
(466,917,l),
(462,884,o),
(416,848,o),
(379,848,qs),
(341,848,o)
);
},
{
closed = 1;
nodes = (
(549,514,l),
(549,0,l),
(665,0,l),
(665,707,l),
(561,707,l),
(198,188,l),
(198,707,l),
(82,707,l),
(82,0,l),
(186,0,l)
);
}
);
userData = {
assembly = "NPUSHB[ ]	/* 63 values pushed */
22 17 2 6 4 1 76 3 1 1 0 1 133 8 1 0 0 2 4 0 2 105 5 1 4 4 20 77 9 7 2 6 6 21 6 78 14 14 1 0 14 23 14 23 21 20 19 18 16 15 11 10 8 6 4 3 0 13 1 13 10 7 22 
CALL[ ]	/* CallFunction */";
};
width = 747;
}
);
note = uni0419;
unicode = 1049;
},
{
glyphname = uni041A;
layers = (
{
layerId = m01;
shapes = (
{
closed = 1;
nodes = (
(300,295,l),
(508,0,l),
(643,0,l),
(388,364,l),
(640,707,l),
(507,707,l),
(289,398,l),
(198,398,l),
(198,707,l),
(82,707,l),
(82,0,l),
(198,0,l),
(198,295,l)
);
}
);
userData = {
assembly = "NPUSHB[ ]	/* 36 values pushed */
8 1 5 2 1 76 0 2 0 5 0 2 5 103 3 1 1 1 20 77 4 1 0 0 21 0 78 17 18 17 17 17 16 6 7 28 
CALL[ ]	/* CallFunction */";
};
width = 652;
}
);
note = uni041A;
unicode = 1050;
},
{
glyphname = uni0423;
layers = (
{
layerId = m01;
shapes = (
{
closed = 1;
nodes = (
(10,707,l),
(273,194,l),
(255,160,o),
(213,124,o),
(168,107,o),
(124,105,o),
(103,105,q),
(103,0,l),
(167,0,o),
(259,20,o),
(295,47,qs),
(331,74,o),
(380,151,o),
(398,190,qs),
(618,707,l),
(490,707,l),
(453,615,o),
(402,488,o),
(368,403,o),
(348,353,o),
(338,327,o),
(335,318,o),
(334,315,q),
(145,707,l)
);
}
);
userData = {
assembly = "NPUSHB[ ]	/* 30 values pushed */
21 1 2 0 1 76 3 1 0 0 20 77 0 2 2 1 98 0 1 1 21 1 78 20 33 22 23 4 7 26 
CALL[ ]	/* CallFunction */";
};
width = 612;
}
);
note = uni0423;
unicode = 1059;
},
{
glyphname = uni0424;
kernLeft = uni0417;
kernRight = uni0417;
layers = (
{
layerId = m01;
shapes = (
{
closed = 1;
nodes = (
(484,100,l),
(542,100,ls),
(605,100,o),
(704,139,o),
(772,211,o),
(809,312,o),
(809,375,qs),
(808,438,o),
(768,537,o),
(695,605,o),
(595,641,o),
(534,641,qs),
(484,641,l),
(484,743,l),
(368,743,l),
(368,641,l),
(315,641,ls),
(254,641,o),
(154,605,o),
(82,536,o),
(43,436,o),
(43,372,qs),
(43,310,o),
(79,210,o),
(148,139,o),
(247,100,o),
(310,100,qs),
(368,100,l),
(368,-13,l),
(484,-13,l)
);
},
{
closed = 1;
nodes = (
(368,198,l),
(318,198,ls),
(277,198,o),
(217,224,o),
(177,272,o),
(158,338,o),
(158,377,qs),
(158,451,o),
(240,544,o),
(318,544,qs),
(368,544,l)
);
},
{
closed = 1;
nodes = (
(532,544,ls),
(570,544,o),
(630,519,o),
(672,473,o),
(694,410,o),
(694,373,qs),
(694,335,o),
(676,271,o),
(637,225,o),
(577,198,o),
(536,198,qs),
(484,198,l),
(484,544,l)
);
}
);
userData = {
assembly = "MPPEM[ ]	/* MeasurePixelPerEm */
PUSHB[ ]	/* 1 value pushed */
38 
LT[ ]	/* LessThan */
IF[ ]	/* If */
NPUSHB[ ]	/* 33 values pushed */
3 1 1 9 11 2 6 7 1 6 105 8 1 7 4 1 0 5 7 0 105 0 2 2 5 95 10 1 5 5 21 5 78 
ELSE[ ]	/* Else */
NPUSHB[ ]	/* 38 values pushed */
0 2 1 5 2 87 3 1 1 9 11 2 6 7 1 6 105 8 1 7 4 1 0 5 7 0 105 0 2 2 5 95 10 1 5 2 5 79 
EIF[ ]	/* EndIf */
NPUSHB[ ]	/* 26 values pushed */
31 30 0 0 53 51 43 41 39 37 30 40 31 40 0 29 0 29 40 33 17 40 33 12 7 27 
CALL[ ]	/* CallFunction */";
};
width = 852;
}
);
note = uni0424;
unicode = 1060;
},
{
glyphname = uni0426;
kernRight = uni0414;
layers = (
{
layerId = m01;
shapes = (
{
closed = 1;
nodes = (
(608,-187,l),
(723,-187,l),
(723,103,l),
(638,103,l),
(638,707,l),
(523,707,l),
(523,103,l),
(198,103,l),
(198,707,l),
(82,707,l),
(82,0,l),
(608,0,l)
);
}
);
userData = {
assembly = "MPPEM[ ]	/* MeasurePixelPerEm */
PUSHB[ ]	/* 1 value pushed */
14 
LT[ ]	/* LessThan */
IF[ ]	/* If */
NPUSHB[ ]	/* 30 values pushed */
2 1 0 0 20 77 3 1 1 1 5 96 6 1 5 5 21 77 3 1 1 1 4 96 0 4 4 24 4 78 
ELSE[ ]	/* Else */
NPUSHB[ ]	/* 24 values pushed */
0 4 1 4 84 2 1 0 0 20 77 3 1 1 1 5 96 6 1 5 5 21 5 78 
EIF[ ]	/* EndIf */
NPUSHB[ ]	/* 14 values pushed */
0 0 0 11 0 11 17 17 17 17 17 7 7 27 
CALL[ ]	/* CallFunction */";
};
width = 737;
}
);
note = uni0426;
unicode = 1062;
},
{
glyphname = uni0427;
layers = (
{
layerId = m01;
shapes = (
{
closed = 1;
nodes = (
(234,356,o),
(194,389,o),
(175,446,o),
(175,492,qs),
(175,707,l),
(59,707,l),
(59,470,ls),
(59,404,o),
(94,315,o),
(163,261,o),
(262,238,o),
(327,238,qs),
(365,238,o),
(446,244,o),
(480,250,q),
(480,0,l),
(596,0,l),
(596,707,l),
(480,707,l),
(480,354,l),
(439,348,o),
(371,343,o),
(336,343,qs),
(294,344,o)
);
}
);
userData = {
assembly = "NPUSHB[ ]	/* 48 values pushed */
3 1 0 1 8 1 3 0 2 76 5 1 0 0 3 2 0 3 105 4 1 1 1 20 77 0 2 2 21 2 78 1 0 18 17 12 10 7 6 5 4 0 23 1 23 6 7 22 
CALL[ ]	/* CallFunction */";
};
width = 678;
}
);
note = uni0427;
unicode = 1063;
},
{
glyphname = uni0428;
layers = (
{
layerId = m01;
shapes = (
{
closed = 1;
nodes = (
(908,0,l),
(908,707,l),
(792,707,l),
(792,103,l),
(553,103,l),
(553,707,l),
(437,707,l),
(437,103,l),
(198,103,l),
(198,707,l),
(82,707,l),
(82,0,l)
);
}
);
userData = {
assembly = "NPUSHB[ ]	/* 28 values pushed */
4 2 2 0 0 20 77 3 1 1 1 5 96 0 5 5 21 5 78 17 17 17 17 17 16 6 7 28 
CALL[ ]	/* CallFunction */";
};
width = 990;
}
);
note = uni0428;
unicode = 1064;
},
{
glyphname = uni0429;
kernRight = uni0414;
layers = (
{
layerId = m01;
shapes = (
{
closed = 1;
nodes = (
(877,0,l),
(877,-187,l),
(992,-187,l),
(992,103,l),
(907,103,l),
(907,707,l),
(791,707,l),
(791,103,l),
(552,103,l),
(552,707,l),
(437,707,l),
(437,103,l),
(197,103,l),
(197,707,l),
(82,707,l),
(82,0,l)
);
}
);
userData = {
assembly = "MPPEM[ ]	/* MeasurePixelPerEm */
PUSHB[ ]	/* 1 value pushed */
14 
LT[ ]	/* LessThan */
IF[ ]	/* If */
NPUSHB[ ]	/* 32 values pushed */
4 2 2 0 0 20 77 5 3 2 1 1 7 96 0 7 7 21 77 5 3 2 1 1 6 96 0 6 6 24 6 78 
ELSE[ ]	/* Else */
NPUSHB[ ]	/* 25 values pushed */
0 6 1 6 84 4 2 2 0 0 20 77 5 3 2 1 1 7 96 0 7 7 21 7 78 
EIF[ ]	/* EndIf */
NPUSHB[ ]	/* 11 values pushed */
17 17 17 17 17 17 17 16 8 7 30 
CALL[ ]	/* CallFunction */";
};
width = 1006;
}
);
note = uni0429;
unicode = 1065;
},
{
glyphname = uni042A;
layers = (
{
layerId = m01;
shapes = (
{
closed = 1;
nodes = (
(424,0,ls),
(482,0,o),
(585,22,o),
(661,74,o),
(705,160,o),
(705,225,qs),
(705,285,o),
(665,365,o),
(596,413,o),
(502,434,o),
(447,434,qs),
(290,434,l),
(290,707,l),
(9,707,l),
(9,603,l),
(174,603,l),
(174,0,l)
);
},
{
closed = 1;
nodes = (
(430,330,ls),
(460,330,o),
(517,324,o),
(562,301,o),
(590,258,o),
(590,222,qs),
(590,183,o),
(560,137,o),
(512,111,o),
(450,103,o),
(418,103,qs),
(290,103,l),
(290,330,l)
);
}
);
userData = {
assembly = "NPUSHB[ ]	/* 38 values pushed */
0 2 0 5 4 2 5 103 0 0 0 1 95 0 1 1 20 77 0 4 4 3 95 0 3 3 21 3 78 40 33 40 33 17 16 6 7 28 
CALL[ ]	/* CallFunction */";
};
width = 750;
}
);
note = uni042A;
unicode = 1066;
},
{
glyphname = uni042B;
layers = (
{
layerId = m01;
shapes = (
{
closed = 1;
nodes = (
(307,0,ls),
(365,0,o),
(468,22,o),
(543,74,o),
(587,160,o),
(587,225,qs),
(587,284,o),
(547,364,o),
(478,414,o),
(384,434,o),
(329,434,qs),
(197,434,l),
(197,707,l),
(82,707,l),
(82,0,l)
);
},
{
closed = 1;
nodes = (
(800,707,l),
(684,707,l),
(684,0,l),
(800,0,l)
);
},
{
closed = 1;
nodes = (
(312,330,ls),
(342,330,o),
(400,324,o),
(445,302,o),
(472,259,o),
(472,222,qs),
(472,183,o),
(442,137,o),
(394,111,o),
(332,103,o),
(300,103,qs),
(197,103,l),
(197,330,l)
);
}
);
userData = {
assembly = "NPUSHB[ ]	/* 44 values pushed */
0 1 0 6 5 1 6 103 3 1 0 0 20 77 0 5 5 2 96 7 4 2 2 2 21 2 78 15 15 31 29 21 19 15 18 15 18 18 40 33 16 8 7 26 
CALL[ ]	/* CallFunction */";
};
width = 882;
}
);
note = uni042B;
unicode = 1067;
},
{
glyphname = uni042C;
layers = (
{
layerId = m01;
shapes = (
{
closed = 1;
nodes = (
(330,0,ls),
(388,0,o),
(490,22,o),
(566,74,o),
(611,160,o),
(611,225,qs),
(610,285,o),
(571,365,o),
(502,414,o),
(408,434,o),
(353,434,qs),
(197,434,l),
(197,707,l),
(81,707,l),
(81,0,l)
);
},
{
closed = 1;
nodes = (
(335,330,ls),
(366,330,o),
(424,323,o),
(469,301,o),
(496,257,o),
(496,220,qs),
(496,182,o),
(466,136,o),
(418,111,o),
(356,103,o),
(325,103,qs),
(197,103,l),
(197,330,l)
);
}
);
userData = {
assembly = "NPUSHB[ ]	/* 32 values pushed */
0 1 0 4 3 1 4 103 0 0 0 20 77 0 3 3 2 96 0 2 2 21 2 78 40 33 40 33 16 5 7 27 
CALL[ ]	/* CallFunction */";
};
width = 656;
}
);
note = uni042C;
unicode = 1068;
},
{
glyphname = uni042D;
kernLeft = uni0417;
kernRight = uni0417;
layers = (
{
layerId = m01;
shapes = (
{
closed = 1;
nodes = (
(467,579,o),
(517,522,o),
(545,446,o),
(548,404,q),
(247,404,l),
(247,303,l),
(548,303,l),
(546,259,o),
(518,183,o),
(466,128,o),
(391,97,o),
(343,97,qs),
(313,97,o),
(255,109,o),
(206,135,o),
(169,178,o),
(161,208,q),
(43,208,l),
(52,152,o),
(107,71,o),
(187,18,o),
(287,-7,o),
(341,-7,qs),
(423,-7,o),
(547,47,o),
(629,143,o),
(670,274,o),
(670,351,qs),
(670,427,o),
(632,561,o),
(553,659,o),
(431,716,o),
(347,716,qs),
(293,716,o),
(193,689,o),
(113,635,o),
(59,553,o),
(50,499,q),
(165,499,l),
(179,551,o),
(275,612,o),
(344,612,qs),
(393,612,o)
);
}
);
userData = {
assembly = "NPUSHB[ ]	/* 69 values pushed */
0 1 0 7 0 1 7 128 0 4 6 5 6 4 5 128 0 7 0 6 4 7 6 103 8 1 0 0 2 97 0 2 2 27 77 0 5 5 3 97 0 3 3 28 3 78 1 0 38 37 36 35 31 29 25 24 20 18 10 8 4 3 0 42 1 42 9 7 22 
CALL[ ]	/* CallFunction */";
};
width = 713;
}
);
note = uni042D;
unicode = 1069;
},
{
glyphname = uni042E;
kernRight = uni0417;
layers = (
{
layerId = m01;
shapes = (
{
closed = 1;
nodes = (
(198,299,l),
(300,299,l),
(306,231,o),
(354,119,o),
(437,38,o),
(553,-7,o),
(628,-7,qs),
(710,-7,o),
(836,48,o),
(921,145,o),
(965,277,o),
(965,355,qs),
(965,433,o),
(922,565,o),
(836,661,o),
(710,715,o),
(628,715,qs),
(552,715,o),
(435,669,o),
(352,586,o),
(305,471,o),
(299,403,q),
(198,403,l),
(198,707,l),
(82,707,l),
(82,0,l),
(198,0,l)
);
},
{
closed = 1;
nodes = (
(767,569,o),
(820,498,o),
(846,405,o),
(846,354,qs),
(846,351,o),
(846,347,qs),
(846,302,o),
(820,209,o),
(766,139,o),
(684,97,o),
(627,97,qs),
(570,97,o),
(489,139,o),
(438,210,o),
(415,303,o),
(415,354,qs),
(415,405,o),
(439,498,o),
(490,569,o),
(571,611,o),
(627,611,qs),
(684,611,o)
);
}
);
userData = {
assembly = "MPPEM[ ]	/* MeasurePixelPerEm */
PUSHB[ ]	/* 1 value pushed */
29 
LT[ ]	/* LessThan */
IF[ ]	/* If */
NPUSHB[ ]	/* 33 values pushed */
0 1 0 4 7 1 4 103 9 1 6 6 0 97 2 1 0 0 20 77 0 7 7 3 97 8 5 2 3 3 28 3 78 
ELSE[ ]	/* Else */
MPPEM[ ]	/* MeasurePixelPerEm */
PUSHB[ ]	/* 1 value pushed */
33 
LT[ ]	/* LessThan */
IF[ ]	/* If */
NPUSHB[ ]	/* 37 values pushed */
0 1 0 4 7 1 4 103 0 0 0 20 77 9 1 6 6 2 97 0 2 2 27 77 0 7 7 3 97 8 5 2 3 3 28 3 78 
ELSE[ ]	/* Else */
NPUSHB[ ]	/* 41 values pushed */
0 1 0 4 7 1 4 103 0 0 0 20 77 9 1 6 6 2 97 0 2 2 27 77 8 1 5 5 21 77 0 7 7 3 97 0 3 3 28 3 78 
EIF[ ]	/* EndIf */
EIF[ ]	/* EndIf */
NPUSHB[ ]	/* 22 values pushed */
28 27 0 0 38 36 27 48 28 48 0 26 0 26 20 40 36 17 17 10 7 27 
CALL[ ]	/* CallFunction */";
};
width = 1008;
}
);
note = uni042E;
unicode = 1070;
},
{
glyphname = uni042F;
layers = (
{
layerId = m01;
shapes = (
{
closed = 1;
nodes = (
(479,0,l),
(594,0,l),
(594,707,l),
(326,707,ls),
(265,707,o),
(165,682,o),
(95,626,o),
(56,538,o),
(56,474,qs),
(56,389,o),
(144,285,o),
(219,268,q),
(50,0,l),
(183,0,l),
(337,252,l),
(479,252,l)
);
},
{
closed = 1;
nodes = (
(319,354,o),
(256,363,o),
(206,388,o),
(172,437,o),
(171,475,qs),
(171,546,o),
(249,603,o),
(326,603,qs),
(479,603,l),
(479,354,l),
(348,354,ls)
);
}
);
userData = {
assembly = "NPUSHB[ ]	/* 53 values pushed */
3 1 3 5 1 76 7 1 5 6 1 3 0 5 3 103 0 4 4 1 95 0 1 1 20 77 2 1 0 0 21 0 78 16 16 0 0 16 26 16 25 19 17 0 15 0 15 17 40 17 8 7 25 
CALL[ ]	/* CallFunction */";
};
width = 676;
}
);
note = uni042F;
unicode = 1071;
},
{
glyphname = uni0440;
kernLeft = uni0432;
layers = (
{
layerId = m01;
shapes = (
{
closed = 1;
nodes = (
(208,24,o),
(295,-7,o),
(343,-7,qs),
(405,-7,o),
(492,33,o),
(551,106,o),
(581,206,o),
(581,265,qs),
(581,328,o),
(550,427,o),
(489,497,o),
(403,536,o),
(349,536,qs),
(298,536,o),
(205,493,o),
(176,452,q),
(170,527,l),
(62,527,l),
(62,-205,l),
(176,-205,l),
(176,60,l)
);
},
{
closed = 1;
nodes = (
(230,120,o),
(193,165,o),
(175,228,o),
(175,264,qs),
(175,297,o),
(194,360,o),
(232,406,o),
(289,434,o),
(323,434,qs),
(361,434,o),
(416,408,o),
(451,362,o),
(468,299,o),
(468,263,qs),
(468,227,o),
(451,165,o),
(416,119,o),
(362,92,o),
(325,92,qs),
(286,92,o)
);
}
);
userData = {
assembly = "NPUSHB[ ]	/* 10 values pushed */
4 1 5 1 20 1 3 4 2 76 
MPPEM[ ]	/* MeasurePixelPerEm */
PUSHB[ ]	/* 1 value pushed */
14 
LT[ ]	/* LessThan */
IF[ ]	/* If */
NPUSHB[ ]	/* 28 values pushed */
0 5 5 1 97 2 1 1 1 22 77 6 1 4 4 3 97 0 3 3 28 77 0 0 0 24 0 78 
ELSE[ ]	/* Else */
MPPEM[ ]	/* MeasurePixelPerEm */
PUSHB[ ]	/* 1 value pushed */
27 
LT[ ]	/* LessThan */
IF[ ]	/* If */
NPUSHB[ ]	/* 34 values pushed */
0 5 5 1 97 2 1 1 1 22 77 6 1 4 4 3 97 0 3 3 28 77 0 0 0 1 97 2 1 1 1 22 0 78 
ELSE[ ]	/* Else */
NPUSHB[ ]	/* 32 values pushed */
0 5 5 2 97 0 2 2 29 77 6 1 4 4 3 97 0 3 3 28 77 0 0 0 1 95 0 1 1 22 0 78 
EIF[ ]	/* EndIf */
EIF[ ]	/* EndIf */
NPUSHB[ ]	/* 15 values pushed */
22 21 32 30 21 40 22 40 40 35 17 16 7 7 26 
CALL[ ]	/* CallFunction */";
};
width = 619;
}
);
note = uni0440;
unicode = 1088;
},
{
glyphname = O;
kernLeft = O;
kernRight = O;
layers = (
{
layerId = m01;
shapes = (
{
closed = 1;
nodes = (
(594,48,o),
(681,144,o),
(726,277,o),
(726,355,qs),
(726,434,o),
(681,567,o),
(594,663,o),
(467,716,o),
(385,716,qs),
(303,716,o),
(176,662,o),
(89,566,o),
(43,433,o),
(43,354,qs),
(43,276,o),
(88,144,o),
(174,48,o),
(301,-7,o),
(384,-7,qs),
(466,-7,o)
);
},
{
closed = 1;
nodes = (
(525,570,o),
(580,499,o),
(607,406,o),
(607,354,qs),
(607,301,o),
(580,208,o),
(525,138,o),
(441,97,o),
(385,97,qs),
(328,97,o),
(244,139,o),
(189,211,o),
(162,304,o),
(162,355,qs),
(162,406,o),
(189,500,o),
(245,570,o),
(328,612,o),
(385,612,qs),
(442,612,o)
);
}
);
userData = {
assembly = "NPUSHB[ ]	/* 42 values pushed */
5 1 2 2 1 97 0 1 1 46 77 0 3 3 0 97 4 1 0 0 47 0 78 21 20 1 0 31 29 20 39 21 39 11 9 0 19 1 19 6 8 22 
CALL[ ]	/* CallFunction */";
};
width = 769;
}
);
note = O;
unicode = 79;
},
{
glyphname = a;
kernLeft = a;
layers = (
{
layerId = m01;
shapes = (
{
closed = 1;
nodes = (
(506,0,l),
(506,284,ls),
(506,343,o),
(482,443,o),
(447,479,qs),
(416,510,o),
(332,536,o),
(283,536,qs),
(245,536,o),
(170,520,o),
(109,482,o),
(66,424,o),
(60,382,q),
(177,382,l),
(186,412,o),
(241,438,o),
(279,438,qs),
(344,437,o),
(396,373,o),
(396,315,q),
(261,315,ls),
(217,315,o),
(137,296,o),
(78,258,o),
(44,197,o),
(44,154,qs),
(44,115,o),
(74,54,o),
(126,13,o),
(195,-7,o),
(237,-7,qs),
(290,-7,o),
(376,28,o),
(402,65,q),
(407,0,l)
);
},
{
closed = 1;
nodes = (
(375,137,o),
(337,100,o),
(284,84,o),
(253,84,qs),
(213,84,o),
(158,123,o),
(158,161,qs),
(158,192,o),
(199,225,o),
(257,234,o),
(286,234,qs),
(396,234,l),
(396,194,o)
);
}
);
userData = {
assembly = "MPPEM[ ]	/* MeasurePixelPerEm */
PUSHB[ ]	/* 1 value pushed */
33 
LT[ ]	/* LessThan */
IF[ ]	/* If */
NPUSHB[ ]	/* 38 values pushed */
0 3 2 1 2 3 1 128 0 1 0 6 7 1 6 103 0 2 2 4 97 0 4 4 49 77 0 7 7 0 97 5 1 0 0 47 0 78 
ELSE[ ]	/* Else */
NPUSHB[ ]	/* 42 values pushed */
0 3 2 1 2 3 1 128 0 1 0 6 7 1 6 103 0 2 2 4 97 0 4 4 49 77 0 5 5 39 77 0 7 7 0 97 0 0 0 47 0 78 
EIF[ ]	/* EndIf */
NPUSHB[ ]	/* 11 values pushed */
37 33 22 36 18 34 40 34 8 8 30 
CALL[ ]	/* CallFunction */";
};
width = 566;
}
);
note = a;
unicode = 97;
},
{
glyphname = c;
kernLeft = d;
layers = (
{
layerId = m01;
shapes = (
{
closed = 1;
nodes = (
(413,12,o),
(475,54,o),
(518,120,o),
(526,165,q),
(408,165,l),
(400,132,o),
(341,92,o),
(296,92,qs),
(258,92,o),
(204,119,o),
(170,164,o),
(154,226,o),
(154,261,qs),
(154,295,o),
(169,358,o),
(203,406,o),
(257,434,o),
(295,434,qs),
(338,434,o),
(398,398,o),
(407,363,q),
(524,363,l),
(508,453,o),
(388,536,o),
(297,536,qs),
(235,536,o),
(141,494,o),
(75,422,o),
(42,322,o),
(42,262,qs),
(42,202,o),
(73,103,o),
(136,32,o),
(230,-7,o),
(294,-7,qs),
(337,-7,o)
);
}
);
userData = {
assembly = "NPUSHB[ ]	/* 56 values pushed */
0 2 3 5 3 2 5 128 0 5 4 3 5 4 126 0 3 3 1 97 0 1 1 49 77 0 4 4 0 97 6 1 0 0 47 0 78 1 0 31 30 28 26 18 16 14 13 11 9 0 35 1 35 7 8 22 
CALL[ ]	/* CallFunction */";
};
width = 562;
}
);
note = c;
unicode = 99;
},
{
glyphname = e;
kernLeft = d;
layers = (
{
layerId = m01;
shapes = (
{
closed = 1;
nodes = (
(535,250,o),
(535,276,qs),
(535,331,o),
(505,425,o),
(444,495,o),
(354,536,o),
(292,536,qs),
(233,536,o),
(141,495,o),
(76,423,o),
(42,324,o),
(42,264,qs),
(42,202,o),
(73,103,o),
(137,31,o),
(232,-7,o),
(295,-7,qs),
(336,-7,o),
(409,10,o),
(470,47,o),
(515,105,o),
(525,145,q),
(408,145,l),
(394,113,o),
(334,87,o),
(298,87,qs),
(264,87,o),
(213,109,o),
(178,146,o),
(158,196,o),
(156,225,q),
(532,225,l)
);
},
{
closed = 1;
nodes = (
(160,337,o),
(180,383,o),
(213,417,o),
(261,437,o),
(293,437,qs),
(350,437,o),
(422,371,o),
(424,311,q),
(157,311,l)
);
}
);
userData = {
assembly = "NPUSHB[ ]	/* 60 values pushed */
0 1 4 0 4 1 0 128 8 1 6 7 1 4 1 6 4 103 0 5 5 3 97 0 3 3 49 77 0 0 0 2 97 0 2 2 47 2 78 32 32 0 0 32 40 32 40 36 34 0 31 0 31 40 36 18 36 9 8 26 
CALL[ ]	/* CallFunction */";
};
width = 576;
}
);
note = e;
unicode = 101;
},
{
glyphname = f;
layers = (
{
layerId = m01;
shapes = (
{
closed = 1;
nodes = (
(223,428,l),
(358,428,l),
(358,527,l),
(223,527,l),
(223,576,ls),
(223,617,o),
(251,661,o),
(293,661,qs),
(358,661,l),
(358,760,l),
(286,760,ls),
(194,760,o),
(111,677,o),
(111,589,qs),
(111,527,l),
(27,527,l),
(27,428,l),
(111,428,l),
(111,0,l),
(223,0,l)
);
}
);
userData = {
assembly = "NPUSHB[ ]	/* 42 values pushed */
0 2 0 3 1 2 3 105 5 1 0 0 1 95 4 1 1 1 41 77 7 1 6 6 39 6 78 0 0 0 19 0 19 17 19 33 35 17 17 8 8 28 
CALL[ ]	/* CallFunction */";
};
width = 375;
}
);
note = f;
unicode = 102;
},
{
glyphname = g;
kernLeft = d;
layers = (
{
layerId = m01;
shapes = (
{
closed = 1;
nodes = (
(460,527,l),
(451,464,l),
(421,500,o),
(340,535,o),
(288,536,qs),
(227,535,o),
(135,493,o),
(73,419,o),
(42,319,o),
(42,259,qs),
(42,205,o),
(70,109,o),
(128,35,o),
(217,-8,o),
(285,-7,qs),
(344,-8,o),
(423,28,o),
(448,67,q),
(448,23,o),
(440,-56,o),
(410,-117,o),
(353,-152,o),
(305,-152,qs),
(263,-152,o),
(194,-116,o),
(186,-80,q),
(67,-80,l),
(74,-126,o),
(118,-191,o),
(181,-233,o),
(260,-253,o),
(304,-253,qs),
(398,-253,o),
(524,-169,o),
(548,-84,qs),
(560,-39,o),
(562,49,o),
(562,93,qs),
(562,527,l)
);
},
{
closed = 1;
nodes = (
(394,406,o),
(431,361,o),
(449,299,o),
(449,265,qs),
(449,232,o),
(431,170,o),
(395,121,o),
(340,91,o),
(301,91,qs),
(263,91,o),
(208,118,o),
(172,164,o),
(155,225,o),
(155,261,qs),
(155,297,o),
(172,360,o),
(207,406,o),
(262,434,o),
(300,434,qs),
(338,434,o)
);
}
);
userData = {
assembly = "MPPEM[ ]	/* MeasurePixelPerEm */
PUSHB[ ]	/* 1 value pushed */
29 
LT[ ]	/* LessThan */
IF[ ]	/* If */
NPUSHB[ ]	/* 10 values pushed */
36 1 6 4 20 1 3 7 2 76 
ELSE[ ]	/* Else */
NPUSHB[ ]	/* 10 values pushed */
36 1 6 5 20 1 3 7 2 76 
EIF[ ]	/* EndIf */
MPPEM[ ]	/* MeasurePixelPerEm */
PUSHB[ ]	/* 1 value pushed */
16 
LT[ ]	/* LessThan */
IF[ ]	/* If */
NPUSHB[ ]	/* 41 values pushed */
0 1 3 2 3 1 2 128 8 1 6 6 4 97 5 1 4 4 49 77 0 7 7 3 97 0 3 3 47 77 0 2 2 0 97 0 0 0 51 0 78 
ELSE[ ]	/* Else */
MPPEM[ ]	/* MeasurePixelPerEm */
PUSHB[ ]	/* 1 value pushed */
29 
LT[ ]	/* LessThan */
IF[ ]	/* If */
NPUSHB[ ]	/* 38 values pushed */
0 1 3 2 3 1 2 128 0 2 0 0 2 0 101 8 1 6 6 4 97 5 1 4 4 49 77 0 7 7 3 97 0 3 3 47 3 78 
ELSE[ ]	/* Else */
NPUSHB[ ]	/* 42 values pushed */
0 1 3 2 3 1 2 128 0 2 0 0 2 0 101 0 5 5 41 77 8 1 6 6 4 97 0 4 4 49 77 0 7 7 3 97 0 3 3 47 3 78 
EIF[ ]	/* EndIf */
EIF[ ]	/* EndIf */
NPUSHB[ ]	/* 17 values pushed */
40 39 50 48 39 58 40 58 19 40 38 34 20 37 9 8 28 
CALL[ ]	/* CallFunction */";
};
width = 624;
}
);
note = g;
unicode = 103;
},
{
glyphname = j;
layers = (
{
layerId = m01;
shapes = (
{
closed = 1;
nodes = (
(61,708,o),
(61,675,qs),
(61,643,o),
(102,604,o),
(134,604,qs),
(166,604,o),
(207,643,o),
(207,675,qs),
(207,708,o),
(166,747,o),
(134,747,qs),
(102,747,o)
);
},
{
closed = 1;
nodes = (
(77,-24,ls),
(77,-66,o),
(47,-112,o),
(3,-112,qs),
(-36,-112,l),
(-36,-211,l),
(24,-211,ls),
(116,-211,o),
(191,-126,o),
(191,-37,qs),
(191,527,l),
(77,527,l)
);
}
);
userData = {
assembly = "MPPEM[ ]	/* MeasurePixelPerEm */
PUSHB[ ]	/* 1 value pushed */
16 
LT[ ]	/* LessThan */
IF[ ]	/* If */
NPUSHB[ ]	/* 28 values pushed */
0 1 1 0 97 5 1 0 0 48 77 6 1 4 4 41 77 0 3 3 2 98 0 2 2 43 2 78 
ELSE[ ]	/* Else */
MPPEM[ ]	/* MeasurePixelPerEm */
PUSHB[ ]	/* 1 value pushed */
20 
LT[ ]	/* LessThan */
IF[ ]	/* If */
NPUSHB[ ]	/* 25 values pushed */
0 3 0 2 3 2 102 0 1 1 0 97 5 1 0 0 48 77 6 1 4 4 41 4 78 
ELSE[ ]	/* Else */
NPUSHB[ ]	/* 23 values pushed */
5 1 0 0 1 4 0 1 105 0 3 0 2 3 2 102 6 1 4 4 41 4 78 
EIF[ ]	/* EndIf */
EIF[ ]	/* EndIf */
NPUSHB[ ]	/* 21 values pushed */
12 12 1 0 12 23 12 23 20 18 17 15 7 5 0 11 1 11 7 8 22 
CALL[ ]	/* CallFunction */";
};
width = 261;
}
);
note = j;
unicode = 106;
},
{
glyphname = o;
kernLeft = d;
layers = (
{
layerId = m01;
shapes = (
{
closed = 1;
nodes = (
(141,496,o),
(75,425,o),
(42,325,o),
(42,264,qs),
(42,203,o),
(75,103,o),
(140,32,o),
(236,-7,o),
(299,-7,qs),
(363,-7,o),
(460,31,o),
(526,103,o),
(559,202,o),
(559,264,qs),
(559,325,o),
(525,425,o),
(458,496,o),
(362,536,o),
(299,536,qs),
(237,536,o)
);
},
{
closed = 1;
nodes = (
(206,119,o),
(171,165,o),
(154,227,o),
(154,263,qs),
(154,299,o),
(171,362,o),
(207,408,o),
(261,434,o),
(299,434,qs),
(338,434,o),
(393,408,o),
(428,362,o),
(445,299,o),
(445,263,qs),
(445,227,o),
(428,165,o),
(393,119,o),
(338,92,o),
(299,92,qs),
(261,92,o)
);
}
);
userData = {
assembly = "NPUSHB[ ]	/* 42 values pushed */
0 3 3 0 97 4 1 0 0 49 77 5 1 2 2 1 97 0 1 1 47 1 78 21 20 1 0 31 29 20 39 21 39 11 9 0 19 1 19 6 8 22 
CALL[ ]	/* CallFunction */";
};
width = 601;
}
);
note = o;
unicode = 111;
},
{
glyphname = r;
kernLeft = r;
kernRight = r;
layers = (
{
layerId = m01;
shapes = (
{
closed = 1;
nodes = (
(176,247,ls),
(176,284,o),
(192,349,o),
(229,397,o),
(288,426,o),
(332,427,qs),
(343,427,o),
(366,428,o),
(378,428,q),
(378,534,l),
(370,535,o),
(351,536,o),
(341,536,qs),
(236,536,o),
(175,452,q),
(169,527,l),
(62,527,l),
(62,0,l),
(176,0,l)
);
}
);
userData = {
assembly = "MPPEM[ ]	/* MeasurePixelPerEm */
PUSHB[ ]	/* 1 value pushed */
29 
LT[ ]	/* LessThan */
IF[ ]	/* If */
NPUSHB[ ]	/* 10 values pushed */
3 1 2 0 1 76 8 1 0 74 
ELSE[ ]	/* Else */
NPUSHB[ ]	/* 10 values pushed */
8 1 0 1 3 1 2 0 2 76 
EIF[ ]	/* EndIf */
MPPEM[ ]	/* MeasurePixelPerEm */
PUSHB[ ]	/* 1 value pushed */
29 
LT[ ]	/* LessThan */
IF[ ]	/* If */
NPUSHB[ ]	/* 18 values pushed */
0 2 2 0 97 1 1 0 0 41 77 4 1 3 3 39 3 78 
ELSE[ ]	/* Else */
NPUSHB[ ]	/* 22 values pushed */
0 0 0 41 77 0 2 2 1 97 0 1 1 49 77 4 1 3 3 39 3 78 
EIF[ ]	/* EndIf */
NPUSHB[ ]	/* 12 values pushed */
0 0 0 18 0 18 66 50 17 5 8 25 
CALL[ ]	/* CallFunction */";
};
width = 390;
}
);
note = r;
unicode = 114;
},
{
glyphname = t;
kernLeft = t;
layers = (
{
layerId = m01;
shapes = (
{
closed = 1;
nodes = (
(107,676,l),
(107,527,l),
(24,527,l),
(24,428,l),
(107,428,l),
(107,171,ls),
(107,80,o),
(190,0,o),
(287,0,qs),
(349,0,l),
(349,98,l),
(297,98,ls),
(252,98,o),
(220,142,o),
(220,187,qs),
(220,428,l),
(353,428,l),
(353,527,l),
(220,527,l),
(220,676,l)
);
}
);
userData = {
assembly = "NPUSHB[ ]	/* 38 values pushed */
0 6 0 6 133 4 1 1 1 0 95 5 1 0 0 41 77 0 2 2 3 98 0 3 3 39 3 78 17 17 19 33 35 17 16 7 8 29 
CALL[ ]	/* CallFunction */";
};
width = 377;
}
);
note = t;
unicode = 116;
},
{
glyphname = y2_alt;
layers = (
{
layerId = m01;
shapes = (
{
closed = 1;
nodes = (
(149,527,l),
(15,527,l),
(251,-33,l),
(239,-62,o),
(211,-107,o),
(173,-135,o),
(128,-149,o),
(102,-149,qs),
(95,-149,o),
(88,-149,q),
(88,-251,l),
(105,-251,ls),
(180,-251,o),
(274,-207,o),
(339,-122,o),
(387,5,o),
(414,86,qs),
(562,527,l),
(440,527,l),
(309,108,l)
);
}
);
userData = {
assembly = "PUSHB[ ]	/* 7 values pushed */
19 16 2 2 0 1 76 
MPPEM[ ]	/* MeasurePixelPerEm */
PUSHB[ ]	/* 1 value pushed */
14 
LT[ ]	/* LessThan */
IF[ ]	/* If */
NPUSHB[ ]	/* 17 values pushed */
3 1 0 0 22 77 0 2 2 1 98 0 1 1 31 1 78 
ELSE[ ]	/* Else */
NPUSHB[ ]	/* 14 values pushed */
0 2 0 1 2 1 102 3 1 0 0 22 0 78 
EIF[ ]	/* EndIf */
PUSHB[ ]	/* 7 values pushed */
21 49 37 16 4 7 26 
CALL[ ]	/* CallFunction */";
};
width = 569;
}
);
note = y2_alt;
},
{
glyphname = uni0443;
layers = (
{
layerId = m01;
shapes = (
{
closed = 1;
nodes = (
(151,527,l),
(17,527,l),
(251,-33,l),
(239,-62,o),
(211,-107,o),
(173,-135,o),
(126,-149,o),
(96,-149,qs),
(92,-149,o),
(88,-149,q),
(88,-251,l),
(105,-251,ls),
(180,-251,o),
(273,-208,o),
(337,-124,o),
(384,2,o),
(413,84,qs),
(565,527,l),
(440,527,l),
(310,110,l)
);
}
);
userData = {
assembly = "PUSHB[ ]	/* 7 values pushed */
19 16 2 2 0 1 76 
MPPEM[ ]	/* MeasurePixelPerEm */
PUSHB[ ]	/* 1 value pushed */
14 
LT[ ]	/* LessThan */
IF[ ]	/* If */
NPUSHB[ ]	/* 17 values pushed */
3 1 0 0 22 77 0 2 2 1 98 0 1 1 31 1 78 
ELSE[ ]	/* Else */
NPUSHB[ ]	/* 14 values pushed */
0 2 0 1 2 1 102 3 1 0 0 22 0 78 
EIF[ ]	/* EndIf */
PUSHB[ ]	/* 7 values pushed */
21 49 37 16 4 7 26 
CALL[ ]	/* CallFunction */";
};
width = 572;
}
);
note = uni0443;
unicode = 1091;
},
{
glyphname = uni0451;
kernLeft = uni0444;
layers = (
{
layerId = m01;
shapes = (
{
closed = 1;
nodes = (
(108,688,o),
(108,656,qs),
(108,624,o),
(148,586,o),
(179,586,qs),
(211,586,o),
(252,624,o),
(252,656,qs),
(252,688,o),
(211,727,o),
(179,727,qs),
(148,727,o)
);
},
{
closed = 1;
nodes = (
(343,688,o),
(343,656,qs),
(343,624,o),
(382,586,o),
(414,586,qs),
(446,586,o),
(486,624,o),
(486,656,qs),
(486,688,o),
(446,727,o),
(414,727,qs),
(382,727,o)
);
},
{
closed = 1;
nodes = (
(535,250,o),
(535,276,qs),
(535,331,o),
(505,425,o),
(444,495,o),
(355,536,o),
(293,536,qs),
(233,536,o),
(141,495,o),
(76,423,o),
(42,324,o),
(42,264,qs),
(42,202,o),
(73,103,o),
(137,31,o),
(233,-7,o),
(296,-7,qs),
(337,-7,o),
(409,10,o),
(470,47,o),
(515,105,o),
(525,145,q),
(408,145,l),
(394,113,o),
(334,87,o),
(298,87,qs),
(264,87,o),
(213,109,o),
(178,146,o),
(158,196,o),
(156,225,q),
(532,225,l)
);
},
{
closed = 1;
nodes = (
(160,337,o),
(180,383,o),
(213,417,o),
(261,437,o),
(293,437,qs),
(350,437,o),
(422,371,o),
(424,311,q),
(157,311,l)
);
}
);
userData = {
assembly = "MPPEM[ ]	/* MeasurePixelPerEm */
PUSHB[ ]	/* 1 value pushed */
44 
LT[ ]	/* LessThan */
IF[ ]	/* If */
NPUSHB[ ]	/* 53 values pushed */
0 5 8 4 8 5 4 128 14 1 10 13 1 8 5 10 8 103 3 1 1 1 0 97 12 2 11 3 0 0 27 77 0 9 9 7 97 0 7 7 29 77 0 4 4 6 97 0 6 6 28 6 78 
ELSE[ ]	/* Else */
NPUSHB[ ]	/* 51 values pushed */
0 5 8 4 8 5 4 128 12 2 11 3 0 3 1 1 7 0 1 105 14 1 10 13 1 8 5 10 8 103 0 9 9 7 97 0 7 7 29 77 0 4 4 6 97 0 6 6 28 6 78 
EIF[ ]	/* EndIf */
NPUSHB[ ]	/* 41 values pushed */
56 56 24 24 13 12 1 0 56 64 56 64 60 58 24 55 24 55 49 47 39 37 33 32 30 28 19 17 12 23 13 23 7 5 0 11 1 11 15 7 22 
CALL[ ]	/* CallFunction */";
};
width = 576;
}
);
note = uni0451;
unicode = 1105;
},
{
glyphname = uni0437;
kernLeft = uni0444;
layers = (
{
layerId = m01;
shapes = (
{
closed = 1;
nodes = (
(470,351,o),
(470,389,qs),
(470,431,o),
(437,484,o),
(377,522,o),
(306,536,o),
(269,536,qs),
(232,536,o),
(157,522,o),
(95,486,o),
(53,425,o),
(49,378,q),
(158,378,l),
(160,397,o),
(182,421,o),
(214,435,o),
(250,440,o),
(267,440,qs),
(280,440,o),
(314,435,o),
(342,421,o),
(361,396,o),
(361,377,qs),
(361,340,o),
(309,310,o),
(272,310,qs),
(193,310,l),
(193,220,l),
(281,220,ls),
(324,220,o),
(381,194,o),
(381,156,qs),
(381,134,o),
(359,107,o),
(326,92,o),
(284,87,o),
(266,87,qs),
(249,87,o),
(209,93,o),
(173,109,o),
(146,135,o),
(142,155,q),
(32,155,l),
(35,108,o),
(79,46,o),
(146,8,o),
(227,-7,o),
(266,-7,qs),
(306,-7,o),
(383,7,o),
(450,46,o),
(490,112,o),
(490,162,qs),
(490,164,o),
(490,166,qs),
(490,205,o),
(450,268,o),
(408,282,q),
(435,297,o)
);
}
);
userData = {
assembly = "NPUSHB[ ]	/* 56 values pushed */
0 6 5 4 5 6 4 128 0 1 3 2 3 1 2 128 0 4 0 3 1 4 3 103 0 5 5 7 97 0 7 7 29 77 0 2 2 0 97 0 0 0 28 0 78 36 20 38 33 38 36 20 41 8 7 30 
CALL[ ]	/* CallFunction */";
};
width = 529;
}
);
note = uni0437;
unicode = 1079;
},
{
glyphname = uni044D;
kernLeft = uni0444;
layers = (
{
layerId = m01;
shapes = (
{
closed = 1;
nodes = (
(191,216,l),
(404,216,l),
(402,161,o),
(336,91,o),
(270,91,qs),
(251,91,o),
(214,98,o),
(182,113,o),
(157,136,o),
(151,151,q),
(34,151,l),
(43,107,o),
(91,47,o),
(156,9,o),
(231,-7,o),
(268,-7,qs),
(333,-7,o),
(426,32,o),
(486,103,o),
(516,203,o),
(516,263,qs),
(516,324,o),
(485,424,o),
(425,495,o),
(333,536,o),
(271,536,qs),
(230,536,o),
(154,518,o),
(91,477,o),
(46,415,o),
(36,372,q),
(154,372,l),
(159,389,o),
(183,413,o),
(215,428,o),
(252,434,o),
(271,434,qs),
(336,434,o),
(401,364,o),
(405,309,q),
(191,309,l)
);
}
);
userData = {
assembly = "NPUSHB[ ]	/* 62 values pushed */
0 1 0 7 0 1 7 128 0 4 6 5 6 4 5 128 8 1 7 0 6 4 7 6 103 0 0 0 2 97 0 2 2 29 77 0 5 5 3 97 0 3 3 28 3 78 0 0 0 40 0 40 18 36 20 40 36 20 34 9 7 29 
CALL[ ]	/* CallFunction */";
};
width = 554;
}
);
note = uni044D;
unicode = 1101;
},
{
glyphname = C;
kernLeft = O;
kernRight = O;
layers = (
{
layerId = m01;
shapes = (
{
closed = 1;
nodes = (
(536,551,o),
(549,499,q),
(663,499,l),
(647,606,o),
(495,716,o),
(378,716,qs),
(295,716,o),
(170,661,o),
(86,564,o),
(43,431,o),
(43,354,qs),
(43,275,o),
(85,143,o),
(169,47,o),
(294,-7,o),
(377,-7,qs),
(434,-7,o),
(534,22,o),
(610,77,o),
(661,157,o),
(669,208,q),
(553,208,l),
(541,157,o),
(448,97,o),
(379,97,qs),
(323,97,o),
(241,139,o),
(188,210,o),
(162,304,o),
(162,356,qs),
(162,407,o),
(187,500,o),
(239,570,o),
(320,612,o),
(376,612,qs),
(446,612,o)
);
}
);
userData = {
assembly = "NPUSHB[ ]	/* 56 values pushed */
0 5 0 2 0 5 2 128 0 2 1 0 2 1 126 6 1 0 0 4 97 0 4 4 46 77 0 1 1 3 97 0 3 3 47 3 78 1 0 33 32 30 28 20 18 14 13 11 9 0 35 1 35 7 8 22 
CALL[ ]	/* CallFunction */";
};
width = 706;
}
);
note = C;
unicode = 67;
},
{
glyphname = S;
kernLeft = O;
kernRight = O;
layers = (
{
layerId = m01;
shapes = (
{
closed = 1;
nodes = (
(404,601,o),
(441,578,o),
(466,542,o),
(470,515,q),
(584,515,l),
(580,569,o),
(537,645,o),
(467,693,o),
(377,716,o),
(327,716,qs),
(280,716,o),
(190,695,o),
(119,647,o),
(75,568,o),
(75,510,qs),
(75,472,o),
(96,415,o),
(134,373,o),
(184,343,o),
(214,332,qs),
(259,315,o),
(360,294,o),
(408,280,qs),
(443,271,o),
(485,234,o),
(485,194,qs),
(485,165,o),
(461,129,o),
(423,107,o),
(371,98,o),
(343,98,qs),
(317,98,o),
(263,108,o),
(216,132,o),
(180,172,o),
(172,202,q),
(52,202,l),
(59,146,o),
(111,66,o),
(189,15,o),
(288,-8,o),
(343,-8,qs),
(397,-8,o),
(491,16,o),
(561,68,o),
(602,148,o),
(602,205,qs),
(602,253,o),
(569,318,o),
(513,361,o),
(438,387,o),
(396,396,qs),
(372,401,o),
(315,415,o),
(287,423,qs),
(248,434,o),
(192,477,o),
(192,519,qs),
(192,547,o),
(218,584,o),
(258,605,o),
(306,613,o),
(329,613,qs),
(356,612,o)
);
}
);
userData = {
assembly = "NPUSHB[ ]	/* 56 values pushed */
0 5 0 2 0 5 2 128 0 2 3 0 2 3 126 6 1 0 0 4 97 0 4 4 46 77 0 3 3 1 97 0 1 1 47 1 78 1 0 59 58 54 52 33 31 27 26 22 20 0 63 1 63 7 8 22 
CALL[ ]	/* CallFunction */";
};
width = 655;
}
);
note = S;
unicode = 83;
},
{
glyphname = uni0421;
kernLeft = uni0417;
kernRight = uni0417;
layers = (
{
layerId = m01;
shapes = (
{
closed = 1;
nodes = (
(536,551,o),
(549,499,q),
(663,499,l),
(647,606,o),
(495,716,o),
(378,716,qs),
(295,716,o),
(170,661,o),
(86,564,o),
(43,431,o),
(43,354,qs),
(43,275,o),
(85,143,o),
(169,47,o),
(294,-7,o),
(377,-7,qs),
(434,-7,o),
(534,22,o),
(610,77,o),
(661,157,o),
(669,208,q),
(553,208,l),
(541,157,o),
(448,97,o),
(379,97,qs),
(323,97,o),
(241,139,o),
(188,210,o),
(162,304,o),
(162,356,qs),
(162,407,o),
(187,500,o),
(239,570,o),
(320,612,o),
(376,612,qs),
(446,612,o)
);
}
);
userData = {
assembly = "NPUSHB[ ]	/* 56 values pushed */
0 5 0 2 0 5 2 128 0 2 1 0 2 1 126 6 1 0 0 4 97 0 4 4 27 77 0 1 1 3 97 0 3 3 28 3 78 1 0 33 32 30 28 20 18 14 13 11 9 0 35 1 35 7 7 22 
CALL[ ]	/* CallFunction */";
};
width = 712;
}
);
note = uni0421;
unicode = 1057;
},
{
glyphname = G;
kernLeft = O;
kernRight = O;
layers = (
{
layerId = m01;
shapes = (
{
closed = 1;
nodes = (
(537,552,o),
(550,499,q),
(667,499,l),
(659,551,o),
(609,632,o),
(533,687,o),
(434,716,o),
(376,716,qs),
(293,716,o),
(168,662,o),
(85,565,o),
(43,431,o),
(43,352,qs),
(43,274,o),
(85,142,o),
(169,46,o),
(294,-7,o),
(377,-7,qs),
(441,-7,o),
(540,27,o),
(612,85,o),
(658,164,o),
(670,209,qs),
(680,251,o),
(683,328,o),
(683,366,q),
(365,366,l),
(365,268,l),
(572,268,l),
(570,192,o),
(469,97,o),
(378,97,qs),
(322,97,o),
(240,138,o),
(187,209,o),
(162,302,o),
(162,354,qs),
(162,406,o),
(186,499,o),
(237,569,o),
(317,611,o),
(373,612,qs),
(442,612,o)
);
}
);
userData = {
assembly = "NPUSHB[ ]	/* 59 values pushed */
0 6 0 3 0 6 3 128 0 3 0 2 1 3 2 103 7 1 0 0 5 97 0 5 5 46 77 0 1 1 4 97 0 4 4 47 4 78 1 0 40 39 35 33 25 23 16 15 14 13 11 9 0 42 1 42 8 8 22 
CALL[ ]	/* CallFunction */";
};
width = 726;
}
);
note = G;
unicode = 71;
},
{
glyphname = uni041E;
kernLeft = uni0417;
kernRight = uni0417;
layers = (
{
layerId = m01;
shapes = (
{
closed = 1;
nodes = (
(594,48,o),
(681,144,o),
(726,277,o),
(726,355,qs),
(726,434,o),
(681,567,o),
(594,663,o),
(467,716,o),
(385,716,qs),
(303,716,o),
(176,662,o),
(89,566,o),
(43,433,o),
(43,354,qs),
(43,276,o),
(88,144,o),
(174,48,o),
(301,-7,o),
(384,-7,qs),
(466,-7,o)
);
},
{
closed = 1;
nodes = (
(525,570,o),
(580,499,o),
(607,406,o),
(607,354,qs),
(607,301,o),
(580,208,o),
(525,138,o),
(441,97,o),
(385,97,qs),
(328,97,o),
(244,139,o),
(189,211,o),
(162,304,o),
(162,355,qs),
(162,406,o),
(189,500,o),
(245,570,o),
(328,612,o),
(385,612,qs),
(442,612,o)
);
}
);
userData = {
assembly = "NPUSHB[ ]	/* 42 values pushed */
5 1 2 2 1 97 0 1 1 27 77 0 3 3 0 97 4 1 0 0 28 0 78 21 20 1 0 31 29 20 39 21 39 11 9 0 19 1 19 6 7 22 
CALL[ ]	/* CallFunction */";
};
width = 769;
}
);
note = uni041E;
unicode = 1054;
},
{
glyphname = Q;
kernLeft = O;
kernRight = O;
layers = (
{
layerId = m01;
shapes = (
{
closed = 1;
nodes = (
(715,-51,l),
(618,78,l),
(671,127,o),
(725,269,o),
(725,355,qs),
(725,434,o),
(680,567,o),
(593,663,o),
(467,716,o),
(385,716,qs),
(303,716,o),
(176,662,o),
(89,566,o),
(43,433,o),
(43,354,qs),
(43,276,o),
(87,144,o),
(174,48,o),
(300,-7,o),
(383,-7,qs),
(460,-7,o),
(522,17,q),
(625,-120,l)
);
},
{
closed = 1;
nodes = (
(524,570,o),
(579,499,o),
(606,406,o),
(606,354,qs),
(606,301,o),
(579,208,o),
(524,138,o),
(440,97,o),
(384,97,qs),
(327,97,o),
(243,139,o),
(188,211,o),
(161,304,o),
(161,355,qs),
(161,406,o),
(188,500,o),
(244,570,o),
(328,612,o),
(384,612,qs),
(441,612,o)
);
}
);
userData = {
assembly = "NPUSHB[ ]	/* 46 values pushed */
20 1 0 3 1 76 22 21 2 0 73 4 1 2 2 1 97 0 1 1 46 77 0 3 3 0 97 0 0 0 47 0 78 24 23 34 32 23 42 24 42 40 33 5 8 24 
CALL[ ]	/* CallFunction */";
};
width = 768;
}
);
note = Q;
unicode = 81;
},
{
glyphname = J;
layers = (
{
layerId = m01;
shapes = (
{
closed = 1;
nodes = (
(39,103,o),
(166,-7,o),
(278,-7,qs),
(338,-7,o),
(422,30,o),
(476,97,o),
(500,187,o),
(500,244,qs),
(500,707,l),
(384,707,l),
(384,231,ls),
(384,201,o),
(373,151,o),
(346,116,o),
(302,96,o),
(269,96,qs),
(212,96,o),
(157,163,o),
(154,216,q),
(37,216,l)
);
}
);
userData = {
assembly = "NPUSHB[ ]	/* 37 values pushed */
4 1 3 1 0 1 3 0 128 0 1 1 38 77 0 0 0 2 97 0 2 2 47 2 78 0 0 0 19 0 19 37 21 34 5 8 25 
CALL[ ]	/* CallFunction */";
};
width = 577;
}
);
note = J;
unicode = 74;
},
{
glyphname = K_alt;
kernRight = K_alt;
layers = (
{
layerId = m01;
shapes = (
{
closed = 1;
nodes = (
(198,249,l),
(264,318,l),
(508,0,l),
(643,0,l),
(345,390,l),
(643,707,l),
(507,707,l),
(198,373,l),
(198,707,l),
(82,707,l),
(82,0,l),
(198,0,l)
);
}
);
userData = {
assembly = "NPUSHB[ ]	/* 35 values pushed */
10 9 6 3 4 2 0 1 76 1 1 0 0 20 77 4 3 2 2 2 21 2 78 0 0 0 11 0 11 18 18 17 5 7 25 
CALL[ ]	/* CallFunction */";
};
width = 652;
}
);
note = K_alt;
},
{
glyphname = K;
kernRight = K_alt;
layers = (
{
layerId = m01;
shapes = (
{
closed = 1;
nodes = (
(198,295,l),
(299,295,l),
(507,0,l),
(643,0,l),
(388,364,l),
(640,707,l),
(506,707,l),
(288,398,l),
(198,398,l),
(198,707,l),
(82,707,l),
(82,0,l),
(198,0,l)
);
}
);
userData = {
assembly = "NPUSHB[ ]	/* 42 values pushed */
7 1 4 1 1 76 0 1 0 4 3 1 4 103 2 1 0 0 38 77 6 5 2 3 3 39 3 78 0 0 0 12 0 12 17 18 17 17 17 7 8 27 
CALL[ ]	/* CallFunction */";
};
width = 652;
}
);
note = K;
unicode = 75;
},
{
glyphname = k_alt;
layers = (
{
layerId = m01;
shapes = (
{
closed = 1;
nodes = (
(176,173,l),
(237,235,l),
(410,0,l),
(539,0,l),
(317,306,l),
(529,527,l),
(394,527,l),
(176,293,l),
(176,707,l),
(62,707,l),
(62,0,l),
(176,0,l)
);
}
);
userData = {
assembly = "NPUSHB[ ]	/* 39 values pushed */
10 9 6 3 4 2 1 1 76 0 0 0 20 77 0 1 1 22 77 4 3 2 2 2 21 2 78 0 0 0 11 0 11 18 18 17 5 7 25 
CALL[ ]	/* CallFunction */";
};
width = 548;
}
);
note = k_alt;
},
{
glyphname = k;
layers = (
{
layerId = m01;
shapes = (
{
closed = 1;
nodes = (
(175,213,l),
(264,213,l),
(403,0,l),
(535,0,l),
(355,276,l),
(521,527,l),
(393,527,l),
(257,312,l),
(175,312,l),
(175,707,l),
(62,707,l),
(62,0,l),
(175,0,l)
);
}
);
userData = {
assembly = "NPUSHB[ ]	/* 46 values pushed */
7 1 4 1 1 76 0 1 0 4 3 1 4 103 0 0 0 38 77 0 2 2 41 77 6 5 2 3 3 39 3 78 0 0 0 12 0 12 17 18 17 17 17 7 8 27 
CALL[ ]	/* CallFunction */";
};
width = 537;
}
);
note = k;
unicode = 107;
},
{
glyphname = i_alt;
layers = (
{
layerId = m01;
shapes = (
{
closed = 1;
nodes = (
(74,708,o),
(74,675,qs),
(74,643,o),
(115,605,o),
(147,605,qs),
(179,605,o),
(219,643,o),
(219,675,qs),
(219,708,o),
(179,746,o),
(147,746,qs),
(115,746,o)
);
},
{
closed = 1;
nodes = (
(203,527,l),
(7,527,l),
(7,428,l),
(89,428,l),
(89,0,l),
(203,0,l)
);
}
);
userData = {
assembly = "NPUSHB[ ]	/* 47 values pushed */
5 1 0 0 1 3 0 1 105 0 2 2 3 95 0 3 3 22 77 6 1 4 4 21 4 78 12 12 1 0 12 17 12 17 16 15 14 13 7 5 0 11 1 11 7 7 22 
CALL[ ]	/* CallFunction */";
};
width = 273;
}
);
note = i_alt;
},
{
glyphname = j_alt;
layers = (
{
layerId = m01;
shapes = (
{
closed = 1;
nodes = (
(65,708,o),
(65,675,qs),
(65,643,o),
(107,604,o),
(139,604,qs),
(170,604,o),
(211,643,o),
(211,675,qs),
(211,708,o),
(170,747,o),
(139,747,qs),
(107,747,o)
);
},
{
closed = 1;
nodes = (
(-2,527,l),
(-2,428,l),
(81,428,l),
(81,-23,ls),
(81,-65,o),
(45,-112,o),
(1,-112,qs),
(-23,-112,l),
(-23,-211,l),
(21,-211,ls),
(113,-211,o),
(196,-126,o),
(196,-37,qs),
(196,527,l)
);
}
);
userData = {
assembly = "MPPEM[ ]	/* MeasurePixelPerEm */
PUSHB[ ]	/* 1 value pushed */
14 
LT[ ]	/* LessThan */
IF[ ]	/* If */
NPUSHB[ ]	/* 30 values pushed */
6 1 0 0 1 5 0 1 105 0 4 4 5 95 0 5 5 22 77 0 3 3 2 97 0 2 2 24 2 78 
ELSE[ ]	/* Else */
NPUSHB[ ]	/* 27 values pushed */
6 1 0 0 1 5 0 1 105 0 3 0 2 3 2 101 0 4 4 5 95 0 5 5 22 4 78 
EIF[ ]	/* EndIf */
NPUSHB[ ]	/* 19 values pushed */
1 0 25 24 23 22 19 17 16 14 7 5 0 11 1 11 7 7 22 
CALL[ ]	/* CallFunction */";
};
width = 265;
}
);
note = j_alt;
},
{
glyphname = s_alt;
kernLeft = d;
layers = (
{
layerId = m01;
shapes = (
{
closed = 1;
nodes = (
(382,410,o),
(387,375,q),
(492,375,l),
(490,412,o),
(458,471,o),
(401,514,o),
(323,536,o),
(276,536,qs),
(236,536,o),
(157,520,o),
(94,481,o),
(56,419,o),
(56,373,qs),
(56,317,o),
(111,256,o),
(193,228,o),
(290,213,o),
(335,206,qs),
(364,200,o),
(397,174,o),
(397,147,qs),
(397,127,o),
(375,104,o),
(359,97,qs),
(335,87,o),
(295,87,qs),
(292,87,o),
(288,87,qs),
(269,87,o),
(226,93,o),
(186,111,o),
(155,139,o),
(150,161,q),
(38,161,l),
(41,113,o),
(86,47,o),
(158,7,o),
(242,-10,o),
(292,-10,qs),
(331,-10,o),
(408,7,o),
(469,46,o),
(509,110,o),
(509,157,qs),
(509,202,o),
(465,270,o),
(415,287,qs),
(381,298,o),
(294,312,o),
(213,325,o),
(167,353,o),
(167,381,qs),
(167,399,o),
(189,424,o),
(221,436,o),
(257,440,o),
(272,440,qs),
(316,439,o)
);
}
);
userData = {
assembly = "NPUSHB[ ]	/* 56 values pushed */
0 5 0 2 0 5 2 128 0 2 3 0 2 3 126 6 1 0 0 4 97 0 4 4 29 77 0 3 3 1 97 0 1 1 28 1 78 1 0 55 54 50 48 32 28 24 23 19 17 0 57 1 57 7 7 22 
CALL[ ]	/* CallFunction */";
};
width = 548;
}
);
note = s_alt;
},
{
glyphname = s;
kernLeft = d;
layers = (
{
layerId = m01;
shapes = (
{
closed = 1;
nodes = (
(348,412,o),
(353,380,q),
(460,380,l),
(455,456,o),
(344,536,o),
(257,536,qs),
(221,536,o),
(147,521,o),
(87,482,o),
(49,420,o),
(49,372,qs),
(49,327,o),
(91,269,o),
(156,240,o),
(231,222,o),
(264,216,qs),
(285,211,o),
(323,202,o),
(350,186,o),
(366,163,o),
(366,146,qs),
(366,128,o),
(345,105,o),
(315,91,o),
(280,87,o),
(268,87,qs),
(252,87,o),
(214,93,o),
(179,109,o),
(153,135,o),
(149,155,q),
(34,155,l),
(39,110,o),
(82,47,o),
(147,9,o),
(225,-7,o),
(265,-7,qs),
(305,-7,o),
(380,9,o),
(439,46,o),
(476,108,o),
(476,153,qs),
(476,195,o),
(449,247,o),
(401,280,o),
(332,301,o),
(289,309,qs),
(273,312,o),
(228,321,o),
(187,334,o),
(159,360,o),
(159,381,qs),
(159,400,o),
(178,424,o),
(207,437,o),
(240,441,o),
(255,441,qs),
(293,440,o)
);
}
);
userData = {
assembly = "NPUSHB[ ]	/* 56 values pushed */
0 5 0 2 0 5 2 128 0 2 3 0 2 3 126 6 1 0 0 4 97 0 4 4 49 77 0 3 3 1 97 0 1 1 47 1 78 1 0 55 54 52 50 32 30 26 25 21 19 0 57 1 57 7 8 22 
CALL[ ]	/* CallFunction */";
};
width = 511;
}
);
note = s;
unicode = 115;
},
{
glyphname = c_alt;
kernLeft = d;
layers = (
{
layerId = m01;
shapes = (
{
closed = 1;
nodes = (
(404,9,o),
(463,44,o),
(507,99,o),
(518,139,q),
(397,139,l),
(384,115,o),
(329,92,o),
(296,92,qs),
(257,92,o),
(202,120,o),
(167,166,o),
(150,228,o),
(150,263,qs),
(150,298,o),
(166,361,o),
(201,407,o),
(255,434,o),
(293,434,qs),
(333,434,o),
(390,401,o),
(401,372,q),
(519,372,l),
(510,415,o),
(469,476,o),
(411,517,o),
(338,536,o),
(294,536,qs),
(233,536,o),
(138,496,o),
(72,424,o),
(38,325,o),
(38,264,qs),
(38,204,o),
(69,105,o),
(133,32,o),
(228,-7,o),
(292,-7,qs),
(332,-7,o)
);
}
);
userData = {
assembly = "NPUSHB[ ]	/* 56 values pushed */
0 2 3 5 3 2 5 128 0 5 4 3 5 4 126 0 3 3 1 97 0 1 1 29 77 0 4 4 0 97 6 1 0 0 28 0 78 1 0 33 32 30 28 20 18 16 15 11 9 0 37 1 37 7 7 22 
CALL[ ]	/* CallFunction */";
};
width = 557;
}
);
note = c_alt;
},
{
glyphname = copyright;
layers = (
{
layerId = m01;
shapes = (
{
closed = 1;
nodes = (
(221,663,o),
(113,555,o),
(54,402,o),
(54,308,qs),
(54,212,o),
(112,59,o),
(219,-48,o),
(369,-105,o),
(461,-105,qs),
(552,-105,o),
(702,-48,o),
(808,59,o),
(866,212,o),
(866,308,qs),
(866,401,o),
(807,554,o),
(700,662,o),
(551,722,o),
(461,722,qs),
(371,722,o)
);
},
{
closed = 1;
nodes = (
(649,591,o),
(732,505,o),
(778,383,o),
(778,307,qs),
(778,230,o),
(734,109,o),
(651,24,o),
(535,-21,o),
(463,-21,qs),
(391,-21,o),
(274,24,o),
(190,109,o),
(145,230,o),
(145,307,qs),
(145,383,o),
(191,505,o),
(275,591,o),
(392,637,o),
(463,637,qs),
(533,637,o)
);
},
{
closed = 1;
nodes = (
(636,162,o),
(649,235,q),
(552,235,l),
(546,210,o),
(505,181,o),
(472,181,qs),
(443,181,o),
(403,201,o),
(378,236,o),
(366,282,o),
(366,309,qs),
(366,335,o),
(377,381,o),
(402,415,o),
(441,435,o),
(469,435,qs),
(501,435,o),
(544,406,o),
(551,380,q),
(647,380,l),
(634,453,o),
(541,519,o),
(469,519,qs),
(421,519,o),
(348,488,o),
(298,432,o),
(272,355,o),
(272,309,qs),
(272,262,o),
(297,183,o),
(346,127,o),
(420,96,o),
(470,96,qs),
(541,96,o)
);
}
);
userData = {
assembly = "PUSHB[ ]	/* 2 values pushed */
6 100 
WCVTP[ ]	/* WriteCVTInPixels */
NPUSHB[ ]	/* 93 values pushed */
0 6 7 9 7 6 9 128 0 9 8 7 9 8 126 10 1 0 11 1 2 5 0 2 105 0 5 0 7 6 5 7 105 0 8 12 1 4 3 8 4 105 0 3 1 1 3 89 0 3 3 1 97 0 1 3 1 81 41 40 21 20 1 0 71 70 68 66 58 56 54 53 51 49 40 73 41 73 31 29 20 39 21 39 11 9 0 19 1 19 13 8 22 
CALL[ ]	/* CallFunction */
PUSHB[ ]	/* 2 values pushed */
6 0 
WCVTP[ ]	/* WriteCVTInPixels */";
};
width = 920;
}
);
note = copyright;
unicode = 169;
},
{
glyphname = ampersand;
layers = (
{
layerId = m01;
shapes = (
{
closed = 1;
nodes = (
(675,0,l),
(554,133,l),
(584,177,o),
(618,272,o),
(623,322,q),
(519,322,l),
(515,292,o),
(498,234,o),
(484,208,q),
(354,359,l),
(382,375,o),
(435,415,o),
(474,463,o),
(498,520,o),
(498,552,qs),
(498,591,o),
(470,651,o),
(420,692,o),
(354,713,o),
(317,713,qs),
(276,713,o),
(206,689,o),
(154,642,o),
(124,574,o),
(124,531,qs),
(124,487,o),
(163,411,o),
(197,378,q),
(137,346,o),
(62,252,o),
(62,183,qs),
(62,136,o),
(97,63,o),
(156,14,o),
(236,-12,o),
(281,-12,qs),
(342,-12,o),
(441,20,o),
(481,55,q),
(532,0,l)
);
},
{
closed = 1;
nodes = (
(257,461,o),
(239,488,o),
(228,520,o),
(228,538,qs),
(228,577,o),
(277,617,o),
(315,617,qs),
(350,617,o),
(393,576,o),
(393,541,qs),
(393,522,o),
(372,488,o),
(340,458,o),
(304,434,o),
(289,425,q),
(279,437,o)
);
},
{
closed = 1;
nodes = (
(392,107,o),
(330,86,o),
(298,86,qs),
(274,86,o),
(229,98,o),
(193,123,o),
(171,162,o),
(171,189,qs),
(171,230,o),
(222,287,o),
(258,307,q),
(418,128,l)
);
}
);
userData = {
assembly = "NPUSHB[ ]	/* 13 values pushed */
29 11 2 2 4 67 37 30 3 5 2 2 76 
MPPEM[ ]	/* MeasurePixelPerEm */
PUSHB[ ]	/* 1 value pushed */
20 
LT[ ]	/* LessThan */
IF[ ]	/* If */
NPUSHB[ ]	/* 33 values pushed */
0 4 4 1 97 0 1 1 46 77 0 2 2 0 97 3 1 0 0 47 77 0 5 5 0 97 3 1 0 0 47 0 78 
ELSE[ ]	/* Else */
NPUSHB[ ]	/* 31 values pushed */
0 4 4 1 97 0 1 1 46 77 0 2 2 3 95 0 3 3 39 77 0 5 5 0 97 0 0 0 47 0 78 
EIF[ ]	/* EndIf */
NPUSHB[ ]	/* 9 values pushed */
46 40 20 29 46 34 6 8 28 
CALL[ ]	/* CallFunction */";
};
width = 694;
}
);
note = ampersand;
unicode = 38;
},
{
glyphname = dollar;
layers = (
{
layerId = m01;
shapes = (
{
closed = 1;
nodes = (
(243,708,o),
(169,681,o),
(112,632,o),
(77,560,o),
(77,512,qs),
(77,464,o),
(110,396,o),
(169,348,o),
(249,317,o),
(297,307,qs),
(327,300,o),
(396,290,o),
(455,269,o),
(494,232,o),
(494,198,qs),
(494,169,o),
(468,130,o),
(427,107,o),
(375,98,o),
(348,98,qs),
(320,98,o),
(262,109,o),
(212,135,o),
(176,178,o),
(170,210,q),
(54,210,l),
(58,163,o),
(94,90,o),
(153,36,o),
(232,3,o),
(279,-3,q),
(279,-137,l),
(386,-137,l),
(386,-6,l),
(431,-3,o),
(512,24,o),
(573,75,o),
(609,152,o),
(609,205,qs),
(609,257,o),
(573,325,o),
(510,369,o),
(424,393,o),
(374,402,qs),
(343,408,o),
(280,421,o),
(229,446,o),
(197,488,o),
(197,523,qs),
(197,550,o),
(223,587,o),
(243,597,qs),
(262,607,o),
(310,613,o),
(330,613,qs),
(361,613,o),
(412,602,o),
(452,577,o),
(478,537,o),
(482,507,q),
(592,507,l),
(587,599,o),
(478,702,o),
(391,712,q),
(391,846,l),
(283,846,l),
(283,713,l)
);
}
);
userData = {
assembly = "NPUSHB[ ]	/* 61 values pushed */
66 2 2 2 0 35 1 3 6 2 76 0 1 2 5 2 1 5 128 0 5 6 2 5 6 126 0 0 0 2 1 0 2 105 0 6 0 4 6 4 99 0 3 3 47 3 78 47 45 41 40 34 33 32 31 36 20 16 7 8 25 
CALL[ ]	/* CallFunction */";
};
width = 664;
}
);
note = dollar;
unicode = 36;
},
{
glyphname = parenleft;
layers = (
{
layerId = m01;
shapes = (
{
closed = 1;
nodes = (
(188,759,o),
(124,636,o),
(81,504,o),
(60,369,o),
(60,304,qs),
(60,239,o),
(81,105,o),
(123,-26,o),
(187,-149,o),
(230,-203,q),
(358,-203,l),
(260,-81,o),
(176,172,o),
(174,304,qs),
(175,369,o),
(195,499,o),
(239,627,o),
(309,752,o),
(359,813,q),
(231,813,l)
);
}
);
userData = {
assembly = "MPPEM[ ]	/* MeasurePixelPerEm */
PUSHB[ ]	/* 1 value pushed */
16 
LT[ ]	/* LessThan */
IF[ ]	/* If */
NPUSHB[ ]	/* 12 values pushed */
2 1 1 1 0 95 0 0 0 43 0 78 
ELSE[ ]	/* Else */
NPUSHB[ ]	/* 18 values pushed */
2 1 1 0 0 1 87 2 1 1 1 0 95 0 0 1 0 79 
EIF[ ]	/* EndIf */
NPUSHB[ ]	/* 10 values pushed */
0 0 0 19 0 19 24 3 8 23 
CALL[ ]	/* CallFunction */";
};
width = 324;
}
);
note = parenleft;
unicode = 40;
},
{
glyphname = parenright;
layers = (
{
layerId = m01;
shapes = (
{
closed = 1;
nodes = (
(135,-149,o),
(199,-26,o),
(242,105,o),
(264,240,o),
(264,305,qs),
(264,370,o),
(243,505,o),
(200,636,o),
(136,759,o),
(93,813,q),
(-34,813,l),
(64,691,o),
(148,437,o),
(150,305,qs),
(148,174,o),
(64,-81,o),
(-35,-203,q),
(92,-203,l)
);
}
);
userData = {
assembly = "MPPEM[ ]	/* MeasurePixelPerEm */
PUSHB[ ]	/* 1 value pushed */
16 
LT[ ]	/* LessThan */
IF[ ]	/* If */
NPUSHB[ ]	/* 12 values pushed */
0 0 0 1 95 2 1 1 1 43 1 78 
ELSE[ ]	/* Else */
NPUSHB[ ]	/* 17 values pushed */
0 0 1 1 0 87 0 0 0 1 95 2 1 1 0 1 79 
EIF[ ]	/* EndIf */
NPUSHB[ ]	/* 10 values pushed */
0 0 0 17 0 17 22 3 8 23 
CALL[ ]	/* CallFunction */";
};
width = 324;
}
);
note = parenright;
unicode = 41;
},
{
glyphname = cent;
layers = (
{
layerId = m01;
shapes = (
{
closed = 1;
nodes = (
(358,-155,l),
(358,-7,l),
(427,3,o),
(525,84,o),
(539,163,q),
(421,163,l),
(413,130,o),
(355,91,o),
(311,91,qs),
(271,91,o),
(217,119,o),
(183,166,o),
(167,228,o),
(167,263,qs),
(167,298,o),
(183,361,o),
(217,408,o),
(271,435,o),
(310,435,qs),
(352,435,o),
(411,397,o),
(419,363,q),
(537,363,l),
(524,441,o),
(429,523,o),
(358,533,q),
(358,675,l),
(249,675,l),
(249,531,l),
(202,522,o),
(129,475,o),
(79,406,o),
(54,316,o),
(54,263,qs),
(54,156,o),
(150,12,o),
(249,-5,q),
(249,-155,l)
);
}
);
userData = {
assembly = "NPUSHB[ ]	/* 60 values pushed */
11 8 2 2 0 35 0 2 5 3 2 76 0 1 2 4 2 1 4 128 0 4 3 2 4 3 126 0 0 0 2 1 0 2 105 0 3 5 5 3 89 0 3 3 5 95 0 5 3 5 79 20 18 40 34 20 25 6 8 28 
CALL[ ]	/* CallFunction */";
};
width = 593;
}
);
note = cent;
unicode = 162;
},
{
glyphname = section;
layers = (
{
layerId = m01;
shapes = (
{
closed = 1;
nodes = (
(331,616,o),
(360,601,o),
(380,578,o),
(383,563,q),
(484,563,l),
(481,603,o),
(445,660,o),
(390,697,o),
(318,714,o),
(279,714,qs),
(243,714,o),
(170,699,o),
(111,663,o),
(74,604,o),
(74,561,qs),
(74,530,o),
(98,482,o),
(119,464,q),
(68,422,o),
(68,355,qs),
(68,305,o),
(115,248,o),
(186,217,o),
(268,202,o),
(315,193,o),
(326,190,qs),
(348,186,o),
(386,165,o),
(386,142,qs),
(386,121,o),
(366,97,o),
(336,85,o),
(299,81,o),
(281,81,qs),
(264,81,o),
(228,88,o),
(194,104,o),
(167,132,o),
(161,154,q),
(54,154,l),
(57,107,o),
(97,45,o),
(162,8,o),
(243,-7,o),
(286,-7,qs),
(325,-7,o),
(401,9,o),
(460,45,o),
(497,104,o),
(497,148,qs),
(497,179,o),
(474,230,o),
(451,247,q),
(472,266,o),
(497,318,o),
(497,347,qs),
(497,393,o),
(457,457,o),
(408,474,qs),
(382,482,o),
(308,496,o),
(274,503,qs),
(261,506,o),
(229,513,o),
(200,526,o),
(180,547,o),
(180,564,qs),
(180,585,o),
(201,608,o),
(231,620,o),
(265,623,o),
(279,623,qs),
(296,623,o)
);
},
{
closed = 1;
nodes = (
(286,408,o),
(329,399,qs),
(355,393,o),
(393,366,o),
(393,338,qs),
(393,319,o),
(374,290,o),
(360,282,q),
(332,287,o),
(267,298,o),
(212,311,o),
(175,340,o),
(175,366,qs),
(175,383,o),
(192,415,o),
(205,425,q),
(230,418,o)
);
}
);
userData = {
assembly = "NPUSHB[ ]	/* 64 values pushed */
81 54 19 3 2 5 1 76 0 5 0 2 0 5 2 128 0 2 3 0 2 3 126 6 1 0 0 4 97 0 4 4 46 77 0 3 3 1 97 0 1 1 47 1 78 1 0 68 67 63 61 39 37 33 32 28 26 0 72 1 72 7 8 22 
CALL[ ]	/* CallFunction */";
};
width = 552;
}
);
note = section;
unicode = 167;
},
{
glyphname = uni04C1;
layers = (
{
layerId = m01;
shapes = (
{
closed = 1;
nodes = (
(376,890,o),
(371,922,q),
(271,922,l),
(277,848,o),
(374,777,o),
(454,777,qs),
(535,777,o),
(632,848,o),
(639,922,q),
(539,922,l),
(534,890,o),
(490,859,o),
(455,859,qs),
(420,859,o)
);
},
{
closed = 1;
nodes = (
(512,297,l),
(595,297,l),
(766,0,l),
(899,0,l),
(687,363,l),
(897,707,l),
(766,707,l),
(589,401,l),
(512,401,l),
(512,707,l),
(396,707,l),
(396,401,l),
(320,401,l),
(144,707,l),
(11,707,l),
(221,363,l),
(9,0,l),
(142,0,l),
(313,297,l),
(396,297,l),
(396,0,l),
(512,0,l)
);
}
);
userData = {
assembly = "NPUSHB[ ]	/* 87 values pushed */
30 19 2 4 7 1 76 3 1 1 0 1 133 14 1 0 0 2 6 0 2 105 9 1 7 12 1 4 5 7 4 104 10 8 2 6 6 20 77 15 13 11 3 5 5 21 5 78 14 14 1 0 14 35 14 35 34 33 32 31 29 28 27 26 25 24 23 22 21 20 18 17 16 15 11 10 8 6 4 3 0 13 1 13 16 7 22 
CALL[ ]	/* CallFunction */";
};
width = 908;
}
);
note = uni04C1;
unicode = 1217;
},
{
glyphname = uni04C2;
layers = (
{
layerId = m01;
shapes = (
{
closed = 1;
nodes = (
(322,706,o),
(317,738,q),
(216,738,l),
(222,663,o),
(320,592,o),
(401,592,qs),
(481,592,o),
(579,663,o),
(586,738,q),
(485,738,l),
(480,706,o),
(436,674,o),
(401,674,qs),
(366,674,o)
);
},
{
closed = 1;
nodes = (
(521,213,l),
(658,0,l),
(792,0,l),
(608,276,l),
(778,527,l),
(649,527,l),
(512,311,l),
(457,311,l),
(457,527,l),
(344,527,l),
(344,311,l),
(289,311,l),
(152,527,l),
(23,527,l),
(193,276,l),
(9,0,l),
(144,0,l),
(280,213,l),
(344,213,l),
(344,0,l),
(457,0,l),
(457,213,l)
);
}
);
userData = {
assembly = "NPUSHB[ ]	/* 82 values pushed */
31 20 2 5 8 1 76 3 1 1 0 1 133 14 1 0 0 2 7 0 2 105 10 1 8 13 1 5 4 8 5 104 11 9 2 7 7 22 77 12 6 2 4 4 21 4 78 1 0 35 34 33 32 30 29 28 27 26 25 24 23 22 21 19 18 17 16 15 14 11 10 8 6 4 3 0 13 1 13 15 7 22 
CALL[ ]	/* CallFunction */";
};
width = 801;
}
);
note = uni04C2;
unicode = 1218;
},
{
glyphname = w_alt;
kernLeft = w;
layers = (
{
layerId = m01;
shapes = (
{
closed = 1;
nodes = (
(335,409,l),
(245,118,l),
(135,527,l),
(9,527,l),
(172,0,l),
(311,0,l),
(390,272,l),
(471,0,l),
(607,0,l),
(770,527,l),
(649,527,l),
(538,118,l),
(448,409,l)
);
}
);
userData = {
assembly = "NPUSHB[ ]	/* 36 values pushed */
10 5 2 1 4 1 76 0 4 0 1 0 4 1 128 3 1 0 0 22 77 2 1 1 1 21 1 78 18 17 18 17 17 5 7 27 
CALL[ ]	/* CallFunction */";
};
width = 779;
}
);
note = w_alt;
},
{
glyphname = W_alt;
kernLeft = W;
kernRight = W;
layers = (
{
layerId = m01;
shapes = (
{
closed = 1;
nodes = (
(267,115,l),
(140,707,l),
(9,707,l),
(182,0,l),
(348,0,l),
(449,431,l),
(550,0,l),
(714,0,l),
(881,707,l),
(757,707,l),
(633,115,l),
(529,548,l),
(373,548,l)
);
}
);
userData = {
assembly = "PUSHB[ ]	/* 8 values pushed */
11 6 1 3 1 4 1 76 
MPPEM[ ]	/* MeasurePixelPerEm */
PUSHB[ ]	/* 1 value pushed */
24 
LT[ ]	/* LessThan */
IF[ ]	/* If */
NPUSHB[ ]	/* 19 values pushed */
3 1 0 0 20 77 5 1 4 4 22 77 2 1 1 1 21 1 78 
ELSE[ ]	/* Else */
NPUSHB[ ]	/* 22 values pushed */
5 1 4 0 1 0 4 1 128 3 1 0 0 20 77 2 1 1 1 21 1 78 
EIF[ ]	/* EndIf */
NPUSHB[ ]	/* 13 values pushed */
0 0 0 12 0 12 17 18 17 18 6 7 26 
CALL[ ]	/* CallFunction */";
};
width = 890;
}
);
note = W_alt;
},
{
glyphname = zero;
layers = (
{
layerId = m01;
shapes = (
{
closed = 1;
nodes = (
(572,568,o),
(503,664,o),
(399,716,o),
(329,716,qs),
(257,716,o),
(152,663,o),
(84,565,o),
(52,429,o),
(52,347,qs),
(52,267,o),
(86,137,o),
(154,45,o),
(258,-6,o),
(329,-6,qs),
(400,-6,o),
(504,46,o),
(573,140,o),
(606,273,o),
(606,354,qs),
(606,435,o)
);
},
{
closed = 1;
nodes = (
(183,503,o),
(221,572,o),
(283,612,o),
(329,612,qs),
(374,612,o),
(436,572,o),
(474,503,o),
(490,408,o),
(490,354,qs),
(490,299,o),
(474,205,o),
(436,136,o),
(374,97,o),
(329,97,qs),
(283,97,o),
(221,136,o),
(183,205,o),
(167,299,o),
(167,354,qs),
(167,408,o)
);
}
);
userData = {
assembly = "NPUSHB[ ]	/* 28 values pushed */
0 3 3 1 97 0 1 1 46 77 0 2 2 0 97 0 0 0 47 0 78 40 40 40 36 4 8 26 
CALL[ ]	/* CallFunction */";
};
width = 657;
}
);
note = zero;
unicode = 48;
},
{
glyphname = one;
layers = (
{
layerId = m01;
shapes = (
{
closed = 1;
nodes = (
(195,707,l),
(169,660,o),
(79,625,o),
(20,623,q),
(20,544,l),
(164,544,l),
(164,0,l),
(280,0,l),
(280,707,l)
);
}
);
userData = {
assembly = "NPUSHB[ ]	/* 26 values pushed */
0 2 0 1 0 2 1 103 0 3 3 38 77 0 0 0 39 0 78 18 17 17 16 4 8 26 
CALL[ ]	/* CallFunction */";
};
width = 382;
}
);
note = one;
unicode = 49;
},
{
glyphname = two;
layers = (
{
layerId = m01;
shapes = (
{
closed = 1;
nodes = (
(25,0,l),
(506,0,l),
(506,103,l),
(183,103,l),
(199,117,o),
(235,146,o),
(279,182,o),
(334,227,o),
(370,258,qs),
(397,281,o),
(446,333,o),
(484,393,o),
(506,463,o),
(506,505,qs),
(506,558,o),
(469,637,o),
(406,689,o),
(322,715,o),
(274,715,qs),
(223,715,o),
(144,694,o),
(78,648,o),
(35,576,o),
(31,530,q),
(145,530,l),
(153,567,o),
(219,611,o),
(267,611,qs),
(327,611,o),
(391,545,o),
(391,491,qs),
(391,454,o),
(356,390,o),
(303,335,o),
(244,285,o),
(220,264,qs),
(25,95,l)
);
}
);
userData = {
assembly = "NPUSHB[ ]	/* 43 values pushed */
36 1 4 3 1 76 0 1 0 3 0 1 3 128 0 0 0 2 97 0 2 2 46 77 0 3 3 4 95 0 4 4 39 4 78 17 30 36 18 39 5 8 27 
CALL[ ]	/* CallFunction */";
};
width = 551;
}
);
note = two;
unicode = 50;
},
{
glyphname = three;
layers = (
{
layerId = m01;
shapes = (
{
closed = 1;
nodes = (
(440,17,o),
(509,70,o),
(552,151,o),
(552,209,qs),
(552,272,o),
(490,361,o),
(427,378,q),
(482,406,o),
(523,488,o),
(523,530,qs),
(523,581,o),
(485,652,o),
(421,696,o),
(338,716,o),
(293,716,qs),
(247,716,o),
(164,694,o),
(98,649,o),
(56,578,o),
(50,529,q),
(164,529,l),
(175,575,o),
(247,612,o),
(288,612,qs),
(312,612,o),
(355,603,o),
(389,580,o),
(409,541,o),
(409,512,qs),
(409,482,o),
(382,442,o),
(339,418,o),
(287,408,o),
(263,408,qs),
(222,408,l),
(222,310,l),
(292,310,ls),
(318,310,o),
(369,302,o),
(410,280,o),
(435,240,o),
(435,208,qs),
(435,173,o),
(408,130,o),
(367,106,o),
(317,97,o),
(294,97,qs),
(272,97,o),
(226,104,o),
(185,124,o),
(153,156,o),
(145,182,q),
(28,182,l),
(35,131,o),
(84,59,o),
(155,14,o),
(245,-7,o),
(294,-7,qs),
(346,-7,o)
);
}
);
userData = {
assembly = "NPUSHB[ ]	/* 75 values pushed */
51 1 3 4 1 76 0 6 5 4 5 6 4 128 0 1 3 2 3 1 2 128 0 4 0 3 1 4 3 105 0 5 5 7 97 0 7 7 46 77 0 2 2 0 97 8 1 0 0 47 0 78 1 0 44 42 38 37 35 33 25 23 22 20 12 10 6 5 0 58 1 58 9 8 22 
CALL[ ]	/* CallFunction */";
};
width = 604;
}
);
note = three;
unicode = 51;
},
{
glyphname = four;
layers = (
{
layerId = m01;
shapes = (
{
closed = 1;
nodes = (
(37,219,l),
(37,136,l),
(402,136,l),
(402,0,l),
(517,0,l),
(517,136,l),
(598,136,l),
(598,238,l),
(517,238,l),
(517,707,l),
(368,707,l)
);
},
{
closed = 1;
nodes = (
(402,238,l),
(171,238,l),
(402,584,l)
);
}
);
userData = {
assembly = "NPUSHB[ ]	/* 47 values pushed */
13 1 0 4 9 1 1 0 2 76 5 1 0 3 1 1 2 0 1 104 6 1 4 4 38 77 0 2 2 39 2 78 0 0 12 11 0 10 0 10 17 17 17 17 7 8 26 
CALL[ ]	/* CallFunction */";
};
width = 630;
}
);
note = four;
unicode = 52;
},
{
glyphname = seven;
layers = (
{
layerId = m01;
shapes = (
{
closed = 1;
nodes = (
(489,617,l),
(489,707,l),
(7,707,l),
(7,603,l),
(358,603,l),
(85,0,l),
(214,0,l)
);
}
);
userData = {
assembly = "NPUSHB[ ]	/* 34 values pushed */
5 1 0 1 1 76 0 0 0 1 95 0 1 1 38 77 3 1 2 2 39 2 78 0 0 0 6 0 6 17 17 4 8 24 
CALL[ ]	/* CallFunction */";
};
width = 507;
}
);
note = seven;
unicode = 55;
},
{
glyphname = eight;
layers = (
{
layerId = m01;
shapes = (
{
closed = 1;
nodes = (
(514,351,o),
(454,374,q),
(479,386,o),
(515,422,o),
(536,462,o),
(546,506,o),
(546,526,qs),
(546,577,o),
(507,649,o),
(442,695,o),
(357,716,o),
(312,716,qs),
(266,716,o),
(181,695,o),
(115,649,o),
(76,577,o),
(76,526,qs),
(76,506,o),
(85,462,o),
(106,421,o),
(141,385,o),
(167,372,q),
(107,349,o),
(52,259,o),
(52,198,qs),
(52,141,o),
(96,63,o),
(169,14,o),
(262,-8,o),
(311,-8,qs),
(359,-8,o),
(451,13,o),
(524,61,o),
(569,140,o),
(569,198,qs),
(569,259,o)
);
},
{
closed = 1;
nodes = (
(379,603,o),
(411,577,o),
(430,537,o),
(430,509,qs),
(430,483,o),
(411,445,o),
(379,420,o),
(335,408,o),
(311,408,qs),
(260,408,o),
(191,459,o),
(191,513,qs),
(191,540,o),
(210,579,o),
(243,603,o),
(287,614,o),
(311,614,qs),
(335,614,o)
);
},
{
closed = 1;
nodes = (
(388,303,o),
(428,277,o),
(452,235,o),
(452,205,qs),
(452,172,o),
(425,129,o),
(384,104,o),
(334,94,o),
(311,94,qs),
(288,94,o),
(238,104,o),
(196,129,o),
(168,172,o),
(168,205,qs),
(168,235,o),
(192,277,o),
(232,303,o),
(283,315,o),
(310,315,qs),
(337,315,o)
);
}
);
userData = {
assembly = "NPUSHB[ ]	/* 60 values pushed */
33 13 2 4 3 1 76 0 3 7 1 4 5 3 4 105 6 1 2 2 1 97 0 1 1 46 77 0 5 5 0 97 0 0 0 47 0 78 55 54 37 36 65 63 54 73 55 73 45 43 36 53 37 53 24 22 36 8 8 23 
CALL[ ]	/* CallFunction */";
};
width = 621;
}
);
note = eight;
unicode = 56;
},
{
glyphname = nine;
layers = (
{
layerId = m01;
shapes = (
{
closed = 1;
nodes = (
(452,235,o),
(439,202,qs),
(431,180,o),
(405,141,o),
(369,113,o),
(323,96,o),
(293,96,qs),
(255,96,o),
(187,131,o),
(174,167,q),
(55,167,l),
(62,122,o),
(106,57,o),
(170,14,o),
(249,-7,o),
(293,-7,qs),
(373,-7,o),
(479,54,o),
(542,155,o),
(568,285,o),
(568,353,qs),
(566,418,o),
(541,547,o),
(482,648,o),
(373,715,o),
(299,714,qs),
(246,714,o),
(155,681,o),
(88,620,o),
(49,532,o),
(49,478,qs),
(49,425,o),
(83,341,o),
(145,283,o),
(228,252,o),
(278,252,qs),
(304,252,o),
(356,262,o),
(403,283,o),
(443,315,o),
(458,338,q),
(458,304,o)
);
},
{
closed = 1;
nodes = (
(241,611,o),
(299,611,qs),
(329,611,o),
(378,589,o),
(412,552,o),
(430,502,o),
(430,474,qs),
(429,447,o),
(408,402,o),
(372,371,o),
(323,354,o),
(296,354,qs),
(236,354,o),
(165,424,o),
(165,485,qs),
(166,543,o)
);
}
);
userData = {
assembly = "NPUSHB[ ]	/* 53 values pushed */
0 1 0 5 1 76 0 3 0 4 0 3 4 128 0 5 0 0 3 5 0 105 0 6 6 1 97 0 1 1 46 77 0 4 4 2 97 0 2 2 47 2 78 40 41 34 20 40 40 36 7 8 29 
CALL[ ]	/* CallFunction */";
};
width = 619;
}
);
note = nine;
unicode = 57;
},
{
glyphname = uni0430;
kernLeft = a;
layers = (
{
layerId = m01;
shapes = (
{
closed = 1;
nodes = (
(506,0,l),
(506,284,ls),
(506,343,o),
(482,443,o),
(447,479,qs),
(416,510,o),
(332,536,o),
(283,536,qs),
(245,536,o),
(170,520,o),
(109,482,o),
(66,424,o),
(60,382,q),
(177,382,l),
(186,412,o),
(241,438,o),
(279,438,qs),
(344,437,o),
(396,373,o),
(396,315,q),
(261,315,ls),
(217,315,o),
(137,296,o),
(78,258,o),
(44,197,o),
(44,154,qs),
(44,115,o),
(74,54,o),
(126,13,o),
(195,-7,o),
(237,-7,qs),
(290,-7,o),
(376,28,o),
(402,65,q),
(407,0,l)
);
},
{
closed = 1;
nodes = (
(375,137,o),
(337,100,o),
(284,84,o),
(253,84,qs),
(213,84,o),
(158,123,o),
(158,161,qs),
(158,192,o),
(199,225,o),
(257,234,o),
(286,234,qs),
(396,234,l),
(396,194,o)
);
}
);
userData = {
assembly = "MPPEM[ ]	/* MeasurePixelPerEm */
PUSHB[ ]	/* 1 value pushed */
33 
LT[ ]	/* LessThan */
IF[ ]	/* If */
NPUSHB[ ]	/* 38 values pushed */
0 3 2 1 2 3 1 128 0 1 0 6 7 1 6 103 0 2 2 4 97 0 4 4 29 77 0 7 7 0 97 5 1 0 0 28 0 78 
ELSE[ ]	/* Else */
NPUSHB[ ]	/* 42 values pushed */
0 3 2 1 2 3 1 128 0 1 0 6 7 1 6 103 0 2 2 4 97 0 4 4 29 77 0 5 5 21 77 0 7 7 0 97 0 0 0 28 0 78 
EIF[ ]	/* EndIf */
NPUSHB[ ]	/* 11 values pushed */
37 33 22 36 18 34 40 34 8 7 30 
CALL[ ]	/* CallFunction */";
};
width = 566;
}
);
note = uni0430;
unicode = 1072;
},
{
glyphname = uni0435;
kernLeft = uni0444;
layers = (
{
layerId = m01;
shapes = (
{
closed = 1;
nodes = (
(535,250,o),
(535,276,qs),
(535,331,o),
(505,425,o),
(444,495,o),
(354,536,o),
(292,536,qs),
(233,536,o),
(141,495,o),
(76,423,o),
(42,324,o),
(42,264,qs),
(42,202,o),
(73,103,o),
(137,31,o),
(232,-7,o),
(295,-7,qs),
(336,-7,o),
(409,10,o),
(470,47,o),
(515,105,o),
(525,145,q),
(408,145,l),
(394,113,o),
(333,87,o),
(297,87,qs),
(263,87,o),
(212,109,o),
(178,146,o),
(158,196,o),
(156,225,q),
(532,225,l)
);
},
{
closed = 1;
nodes = (
(160,337,o),
(180,383,o),
(213,417,o),
(261,437,o),
(293,437,qs),
(350,437,o),
(421,373,o),
(424,311,q),
(157,311,l)
);
}
);
userData = {
assembly = "NPUSHB[ ]	/* 60 values pushed */
0 1 4 0 4 1 0 128 8 1 6 7 1 4 1 6 4 103 0 5 5 3 97 0 3 3 29 77 0 0 0 2 97 0 2 2 28 2 78 32 32 0 0 32 40 32 40 36 34 0 31 0 31 40 36 18 36 9 7 26 
CALL[ ]	/* CallFunction */";
};
width = 576;
}
);
note = uni0435;
unicode = 1077;
},
{
glyphname = uni043E;
kernLeft = uni0444;
layers = (
{
layerId = m01;
shapes = (
{
closed = 1;
nodes = (
(141,496,o),
(75,425,o),
(42,325,o),
(42,264,qs),
(42,203,o),
(75,103,o),
(140,32,o),
(236,-7,o),
(299,-7,qs),
(363,-7,o),
(460,31,o),
(526,103,o),
(559,202,o),
(559,264,qs),
(559,325,o),
(525,425,o),
(458,496,o),
(362,536,o),
(299,536,qs),
(237,536,o)
);
},
{
closed = 1;
nodes = (
(206,119,o),
(171,165,o),
(154,227,o),
(154,263,qs),
(154,299,o),
(171,362,o),
(206,408,o),
(263,434,o),
(299,434,qs),
(338,434,o),
(393,408,o),
(428,362,o),
(445,299,o),
(445,263,qs),
(445,227,o),
(428,165,o),
(393,119,o),
(338,92,o),
(299,92,qs),
(261,92,o)
);
}
);
userData = {
assembly = "NPUSHB[ ]	/* 42 values pushed */
0 3 3 0 97 4 1 0 0 29 77 5 1 2 2 1 97 0 1 1 28 1 78 21 20 1 0 31 29 20 39 21 39 11 9 0 19 1 19 6 7 22 
CALL[ ]	/* CallFunction */";
};
width = 601;
}
);
note = uni043E;
unicode = 1086;
},
{
glyphname = uni0441;
kernLeft = uni0444;
layers = (
{
layerId = m01;
shapes = (
{
closed = 1;
nodes = (
(413,12,o),
(475,54,o),
(518,120,o),
(526,165,q),
(409,165,l),
(401,132,o),
(342,92,o),
(297,92,qs),
(259,92,o),
(205,119,o),
(170,164,o),
(154,226,o),
(154,261,qs),
(154,295,o),
(169,358,o),
(203,406,o),
(257,434,o),
(295,434,qs),
(338,434,o),
(397,397,o),
(406,363,q),
(524,363,l),
(516,409,o),
(474,474,o),
(416,517,o),
(341,536,o),
(297,536,qs),
(235,536,o),
(141,494,o),
(75,422,o),
(42,322,o),
(42,262,qs),
(42,202,o),
(73,103,o),
(136,32,o),
(231,-7,o),
(294,-7,qs),
(337,-7,o)
);
}
);
userData = {
assembly = "NPUSHB[ ]	/* 56 values pushed */
0 2 3 5 3 2 5 128 0 5 4 3 5 4 126 0 3 3 1 97 0 1 1 29 77 0 4 4 0 97 6 1 0 0 28 0 78 1 0 33 32 30 28 20 18 16 15 11 9 0 37 1 37 7 7 22 
CALL[ ]	/* CallFunction */";
};
width = 562;
}
);
note = uni0441;
unicode = 1089;
},
{
glyphname = uni0218;
layers = (
{
layerId = m01;
shapes = (
{
closed = 1;
nodes = (
(395,601,o),
(432,578,o),
(457,542,o),
(460,515,q),
(575,515,l),
(571,569,o),
(527,646,o),
(457,694,o),
(367,716,o),
(317,716,qs),
(271,716,o),
(181,695,o),
(109,648,o),
(65,570,o),
(65,513,qs),
(65,467,o),
(94,403,o),
(144,358,o),
(211,329,o),
(285,308,o),
(362,290,o),
(398,280,qs),
(431,270,o),
(475,235,o),
(475,194,qs),
(475,167,o),
(452,130,o),
(413,107,o),
(362,98,o),
(334,98,qs),
(306,98,o),
(252,108,o),
(205,132,o),
(170,172,o),
(162,202,q),
(43,202,l),
(50,146,o),
(101,66,o),
(179,15,o),
(278,-8,o),
(333,-8,qs),
(387,-8,o),
(481,16,o),
(551,68,o),
(592,148,o),
(592,205,qs),
(592,253,o),
(559,318,o),
(503,360,o),
(429,386,o),
(388,397,q),
(366,401,o),
(275,424,qs),
(235,435,o),
(183,479,o),
(183,519,qs),
(183,547,o),
(208,584,o),
(248,605,o),
(296,613,o),
(319,613,qs),
(346,612,o)
);
},
{
closed = 1;
nodes = (
(277,-256,o),
(257,-270,q),
(281,-304,l),
(304,-296,o),
(344,-264,o),
(373,-222,o),
(390,-175,o),
(390,-152,qs),
(390,-121,o),
(356,-74,o),
(321,-74,qs),
(295,-74,o),
(259,-106,o),
(259,-132,qs),
(259,-157,o),
(292,-187,o),
(318,-189,q),
(312,-214,o)
);
}
);
userData = {
assembly = "NPUSHB[ ]	/* 68 values pushed */
77 76 2 6 73 0 5 0 2 0 5 2 128 0 2 3 0 2 3 126 0 6 1 6 134 7 1 0 0 4 97 0 4 4 46 77 0 3 3 1 97 0 1 1 47 1 78 1 0 69 67 57 56 52 50 32 30 26 25 21 19 0 61 1 61 8 8 22 
CALL[ ]	/* CallFunction */";
};
width = 636;
}
);
note = uni0218;
unicode = 536;
},
{
glyphname = uni0219;
kernLeft = d;
layers = (
{
layerId = m01;
shapes = (
{
closed = 1;
nodes = (
(352,412,o),
(357,380,q),
(464,380,l),
(459,456,o),
(348,536,o),
(261,536,qs),
(225,536,o),
(151,521,o),
(91,482,o),
(53,420,o),
(53,372,qs),
(53,333,o),
(82,282,o),
(129,252,o),
(188,233,o),
(217,227,qs),
(246,221,o),
(305,209,o),
(344,194,o),
(370,167,o),
(370,145,qs),
(370,124,o),
(346,100,o),
(313,89,o),
(279,87,o),
(270,87,qs),
(254,87,o),
(218,93,o),
(185,109,o),
(159,135,o),
(154,155,q),
(38,155,l),
(43,109,o),
(87,46,o),
(153,9,o),
(232,-7,o),
(272,-7,qs),
(310,-7,o),
(385,9,o),
(443,46,o),
(480,108,o),
(480,153,qs),
(480,200,o),
(447,255,o),
(387,288,o),
(304,308,o),
(253,317,qs),
(200,327,o),
(163,361,o),
(163,381,qs),
(163,400,o),
(182,424,o),
(211,437,o),
(244,441,o),
(259,441,qs),
(297,439,o)
);
},
{
closed = 1;
nodes = (
(229,-257,o),
(209,-271,q),
(233,-306,l),
(256,-297,o),
(296,-265,o),
(326,-223,o),
(343,-176,o),
(343,-153,qs),
(343,-122,o),
(309,-74,o),
(273,-74,qs),
(247,-74,o),
(211,-107,o),
(211,-133,qs),
(211,-158,o),
(244,-188,o),
(270,-190,q),
(264,-215,o)
);
}
);
userData = {
assembly = "NPUSHB[ ]	/* 68 values pushed */
71 70 2 6 73 0 5 0 2 0 5 2 128 0 2 3 0 2 3 126 0 6 1 6 134 7 1 0 0 4 97 0 4 4 49 77 0 3 3 1 97 0 1 1 47 1 78 1 0 63 61 53 52 50 48 31 28 24 23 19 17 0 55 1 55 8 8 22 
CALL[ ]	/* CallFunction */";
};
width = 520;
}
);
note = uni0219;
unicode = 537;
},
{
glyphname = uni021A;
kernLeft = uni0422;
kernRight = uni0422;
layers = (
{
layerId = m01;
shapes = (
{
closed = 1;
nodes = (
(569,603,l),
(569,707,l),
(9,707,l),
(9,603,l),
(231,603,l),
(231,0,l),
(347,0,l),
(347,603,l)
);
},
{
closed = 1;
nodes = (
(244,-256,o),
(224,-270,q),
(248,-304,l),
(271,-296,o),
(311,-264,o),
(340,-222,o),
(357,-175,o),
(357,-152,qs),
(357,-121,o),
(323,-74,o),
(288,-74,qs),
(262,-74,o),
(226,-106,o),
(226,-132,qs),
(226,-157,o),
(259,-187,o),
(285,-189,q),
(279,-214,o)
);
}
);
userData = {
assembly = "NPUSHB[ ]	/* 35 values pushed */
23 22 2 4 73 0 4 0 4 134 3 1 1 1 2 95 0 2 2 38 77 0 0 0 39 0 78 38 17 17 17 16 5 8 27 
CALL[ ]	/* CallFunction */";
};
width = 578;
}
);
note = uni021A;
unicode = 538;
},
{
glyphname = uni021B;
kernLeft = t;
layers = (
{
layerId = m01;
shapes = (
{
closed = 1;
nodes = (
(107,676,l),
(107,527,l),
(24,527,l),
(24,428,l),
(107,428,l),
(107,171,ls),
(107,80,o),
(190,0,o),
(288,0,qs),
(346,0,l),
(346,98,l),
(305,98,ls),
(258,98,o),
(220,141,o),
(220,185,qs),
(220,428,l),
(354,428,l),
(354,527,l),
(220,527,l),
(220,676,l)
);
},
{
closed = 1;
nodes = (
(171,-257,o),
(151,-271,q),
(175,-306,l),
(198,-297,o),
(238,-265,o),
(267,-223,o),
(284,-176,o),
(284,-153,qs),
(284,-122,o),
(250,-74,o),
(215,-74,qs),
(189,-74,o),
(153,-107,o),
(153,-133,qs),
(153,-158,o),
(186,-188,o),
(212,-190,q),
(206,-215,o)
);
}
);
userData = {
assembly = "NPUSHB[ ]	/* 49 values pushed */
35 34 2 7 73 0 6 0 6 133 0 7 3 7 134 4 1 1 1 0 95 5 1 0 0 41 77 0 2 2 3 98 0 3 3 39 3 78 38 17 17 19 33 35 17 16 8 8 30 
CALL[ ]	/* CallFunction */";
};
width = 388;
}
);
note = uni021B;
unicode = 539;
},
{
glyphname = question;
layers = (
{
layerId = m01;
shapes = (
{
closed = 1;
nodes = (
(298,225,ls),
(298,252,o),
(319,296,o),
(352,335,o),
(392,371,o),
(410,391,qs),
(440,423,o),
(472,492,o),
(472,537,qs),
(472,585,o),
(437,653,o),
(378,696,o),
(300,716,o),
(258,716,qs),
(205,716,o),
(123,688,o),
(66,640,o),
(34,573,o),
(32,534,q),
(143,534,l),
(146,555,o),
(166,585,o),
(196,603,o),
(232,612,o),
(251,612,qs),
(302,612,o),
(358,570,o),
(358,525,qs),
(357,498,o),
(331,453,o),
(294,412,o),
(250,373,o),
(213,329,o),
(188,279,o),
(188,249,qs),
(188,241,o),
(188,226,o),
(190,218,q),
(298,218,l)
);
},
{
closed = 1;
nodes = (
(171,96,o),
(171,63,qs),
(171,30,o),
(211,-8,o),
(245,-8,qs),
(279,-8,o),
(318,31,o),
(318,63,qs),
(318,96,o),
(279,137,o),
(245,137,qs),
(211,137,o)
);
}
);
userData = {
assembly = "NPUSHB[ ]	/* 58 values pushed */
0 1 0 3 0 1 3 128 6 1 3 4 0 3 4 126 0 0 0 2 97 0 2 2 46 77 7 1 4 4 5 97 0 5 5 47 5 78 40 39 0 0 46 44 39 50 40 50 0 38 0 37 36 20 44 8 8 25 
CALL[ ]	/* CallFunction */";
};
width = 522;
}
);
note = question;
unicode = 63;
},
{
glyphname = uni2116;
layers = (
{
layerId = m01;
shapes = (
{
closed = 1;
nodes = (
(953,417,o),
(993,462,o),
(1014,521,o),
(1014,556,qs),
(1014,592,o),
(994,651,o),
(954,695,o),
(895,719,o),
(857,719,qs),
(779,719,o),
(698,628,o),
(698,556,qs),
(698,521,o),
(718,462,o),
(759,417,o),
(818,392,o),
(857,392,qs),
(895,392,o)
);
},
{
closed = 1;
nodes = (
(169,526,l),
(488,0,l),
(613,0,l),
(613,707,l),
(498,707,l),
(498,179,l),
(180,707,l),
(54,707,l),
(54,0,l),
(169,0,l)
);
},
{
closed = 1;
nodes = (
(923,586,o),
(923,556,qs),
(923,524,o),
(893,479,o),
(857,479,qs),
(819,479,o),
(788,524,o),
(788,556,qs),
(788,586,o),
(819,632,o),
(857,632,qs),
(893,632,o)
);
},
{
closed = 1;
nodes = (
(1002,260,l),
(1002,348,l),
(709,348,l),
(709,260,l)
);
}
);
userData = {
assembly = "NPUSHB[ ]	/* 95 values pushed */
26 1 7 6 21 1 4 9 2 76 3 1 2 1 6 1 2 6 128 11 5 2 4 9 4 134 0 1 12 1 6 7 1 6 105 0 7 10 1 0 8 7 0 105 0 8 9 9 8 87 0 8 8 9 95 0 9 8 9 79 29 28 18 18 1 0 43 42 41 40 35 33 28 39 29 39 18 27 18 27 25 24 23 22 20 19 9 7 0 17 1 17 13 6 22 
CALL[ ]	/* CallFunction */";
};
width = 1068;
}
);
note = uni2116;
unicode = 8470;
},
{
glyphname = uni0401;
layers = (
{
layerId = m01;
shapes = (
{
closed = 1;
nodes = (
(143,892,o),
(143,859,qs),
(143,826,o),
(183,789,o),
(215,789,qs),
(247,789,o),
(286,826,o),
(286,859,qs),
(286,892,o),
(246,928,o),
(215,928,qs),
(184,928,o)
);
},
{
closed = 1;
nodes = (
(380,892,o),
(380,859,qs),
(380,826,o),
(419,789,o),
(452,789,qs),
(484,789,o),
(523,826,o),
(523,859,qs),
(523,892,o),
(483,928,o),
(452,928,qs),
(420,928,o)
);
},
{
closed = 1;
nodes = (
(573,0,l),
(573,103,l),
(198,103,l),
(198,296,l),
(530,296,l),
(530,400,l),
(198,400,l),
(198,603,l),
(573,603,l),
(573,707,l),
(82,707,l),
(82,0,l)
);
}
);
userData = {
assembly = "NPUSHB[ ]	/* 72 values pushed */
11 2 10 3 0 3 1 1 4 0 1 105 0 6 0 7 8 6 7 103 0 5 5 4 95 0 4 4 20 77 0 8 8 9 95 0 9 9 21 9 78 13 12 1 0 35 34 33 32 31 30 29 28 27 26 25 24 19 17 12 23 13 23 7 5 0 11 1 11 12 7 22 
CALL[ ]	/* CallFunction */";
};
width = 616;
}
);
note = uni0401;
unicode = 1025;
},
{
glyphname = asciitilde;
layers = (
{
layerId = m01;
shapes = (
{
closed = 1;
nodes = (
(188,268,o),
(189,304,o),
(196,338,o),
(214,363,o),
(231,363,qs),
(250,363,o),
(289,328,o),
(335,286,o),
(397,251,o),
(431,251,qs),
(478,251,o),
(536,287,o),
(569,344,o),
(581,416,o),
(581,452,q),
(476,452,l),
(476,440,o),
(475,404,o),
(467,370,o),
(448,346,o),
(431,346,qs),
(419,346,o),
(393,363,o),
(366,388,o),
(335,417,o),
(299,442,o),
(256,458,o),
(230,458,qs),
(184,457,o),
(126,422,o),
(93,365,o),
(82,298,o),
(82,267,qs),
(82,262,o),
(82,257,q),
(188,257,l)
);
}
);
userData = {
assembly = "PUSHB[ ]	/* 2 values pushed */
6 100 
WCVTP[ ]	/* WriteCVTInPixels */
MPPEM[ ]	/* MeasurePixelPerEm */
PUSHB[ ]	/* 1 value pushed */
38 
LT[ ]	/* LessThan */
IF[ ]	/* If */
NPUSHB[ ]	/* 27 values pushed */
2 1 0 0 4 1 0 4 105 0 1 3 3 1 89 0 1 1 3 97 6 5 2 3 1 3 81 
ELSE[ ]	/* Else */
MPPEM[ ]	/* MeasurePixelPerEm */
PUSHB[ ]	/* 1 value pushed */
46 
LT[ ]	/* LessThan */
IF[ ]	/* If */
NPUSHB[ ]	/* 34 values pushed */
6 1 5 1 3 1 5 3 128 2 1 0 0 4 1 0 4 105 0 1 5 3 1 89 0 1 1 3 97 0 3 1 3 81 
ELSE[ ]	/* Else */
NPUSHB[ ]	/* 41 values pushed */
0 2 0 4 0 2 4 128 6 1 5 1 3 1 5 3 128 0 0 0 4 1 0 4 105 0 1 5 3 1 89 0 1 1 3 97 0 3 1 3 81 
EIF[ ]	/* EndIf */
EIF[ ]	/* EndIf */
NPUSHB[ ]	/* 14 values pushed */
0 0 0 35 0 35 35 36 20 37 38 7 8 27 
CALL[ ]	/* CallFunction */
PUSHB[ ]	/* 2 values pushed */
6 0 
WCVTP[ ]	/* WriteCVTInPixels */";
};
width = 663;
}
);
note = asciitilde;
unicode = 126;
},
{
glyphname = trademark;
layers = (
{
layerId = m01;
shapes = (
{
closed = 1;
nodes = (
(442,707,l),
(344,707,l),
(344,421,l),
(423,421,l),
(423,602,l),
(489,477,l),
(522,477,l),
(588,602,l),
(588,421,l),
(666,421,l),
(666,707,l),
(571,707,l),
(507,585,l)
);
},
{
closed = 1;
nodes = (
(225,421,l),
(225,634,l),
(319,634,l),
(319,707,l),
(54,707,l),
(54,634,l),
(146,634,l),
(146,421,l)
);
}
);
userData = {
assembly = "NPUSHB[ ]	/* 55 values pushed */
12 7 4 3 2 5 1 76 0 2 5 1 5 2 1 128 8 3 2 1 1 132 6 4 2 0 5 5 0 87 6 4 2 0 0 5 95 7 1 5 0 5 79 17 17 17 18 17 18 18 17 16 9 6 31 
CALL[ ]	/* CallFunction */";
};
width = 720;
}
);
note = trademark;
unicode = 8482;
},
{
glyphname = registered;
layers = (
{
layerId = m01;
shapes = (
{
closed = 1;
nodes = (
(47,636,o),
(47,545,qs),
(47,454,o),
(151,356,o),
(239,356,qs),
(326,356,o),
(429,454,o),
(429,545,qs),
(429,636,o),
(326,738,o),
(239,738,qs),
(152,738,o)
);
},
{
closed = 1;
nodes = (
(378,613,o),
(378,545,qs),
(378,477,o),
(303,405,o),
(239,405,qs),
(174,405,o),
(98,477,o),
(98,545,qs),
(98,613,o),
(174,691,o),
(239,691,qs),
(304,691,o)
);
},
{
closed = 1;
nodes = (
(320,542,o),
(320,586,qs),
(320,623,o),
(278,649,o),
(246,649,qs),
(165,649,l),
(165,452,l),
(210,452,l),
(210,521,l),
(232,521,l),
(279,452,l),
(333,452,l),
(283,527,l)
);
},
{
closed = 1;
nodes = (
(210,607,l),
(248,607,ls),
(259,607,o),
(275,598,o),
(275,585,qs),
(275,573,o),
(257,561,o),
(246,561,qs),
(210,561,l)
);
}
);
userData = {
assembly = "PUSHB[ ]	/* 2 values pushed */
6 100 
WCVTP[ ]	/* WriteCVTInPixels */
NPUSHB[ ]	/* 93 values pushed */
36 1 5 8 1 76 6 1 4 5 3 5 4 3 128 10 1 0 11 1 2 7 0 2 105 0 7 0 9 8 7 9 105 12 1 8 0 5 4 8 5 103 0 3 1 1 3 89 0 3 3 1 97 0 1 3 1 81 38 37 13 12 1 0 44 42 37 45 38 45 32 30 29 28 27 26 25 24 19 17 12 23 13 23 7 5 0 11 1 11 13 8 22 
CALL[ ]	/* CallFunction */
PUSHB[ ]	/* 2 values pushed */
6 0 
WCVTP[ ]	/* WriteCVTInPixels */";
};
width = 476;
}
);
note = registered;
unicode = 174;
},
{
glyphname = degree;
layers = (
{
layerId = m01;
shapes = (
{
closed = 1;
nodes = (
(113,767,o),
(76,730,o),
(54,676,o),
(54,643,qs),
(54,575,o),
(132,504,o),
(194,504,qs),
(255,504,o),
(335,575,o),
(335,643,qs),
(335,677,o),
(314,730,o),
(276,767,o),
(225,787,o),
(195,787,qs),
(165,787,o)
);
},
{
closed = 1;
nodes = (
(127,610,o),
(127,644,qs),
(127,679,o),
(166,716,o),
(195,716,qs),
(224,716,o),
(261,679,o),
(261,644,qs),
(261,610,o),
(224,574,o),
(195,574,qs),
(165,574,o)
);
}
);
userData = {
assembly = "PUSHB[ ]	/* 2 values pushed */
6 100 
WCVTP[ ]	/* WriteCVTInPixels */
NPUSHB[ ]	/* 46 values pushed */
4 1 0 0 3 2 0 3 105 5 1 2 1 1 2 89 5 1 2 2 1 97 0 1 2 1 81 17 16 1 0 23 21 16 27 17 27 9 7 0 15 1 15 6 8 22 
CALL[ ]	/* CallFunction */
PUSHB[ ]	/* 2 values pushed */
6 0 
WCVTP[ ]	/* WriteCVTInPixels */";
};
width = 389;
}
);
note = degree;
unicode = 176;
},
{
glyphname = bullet;
layers = (
{
layerId = m01;
shapes = (
{
closed = 1;
nodes = (
(54,424,o),
(54,363,qs),
(54,305,o),
(127,239,o),
(181,239,qs),
(235,239,o),
(308,305,o),
(308,363,qs),
(308,424,o),
(235,491,o),
(181,491,qs),
(127,491,o)
);
}
);
userData = {
assembly = "NPUSHB[ ]	/* 29 values pushed */
2 1 0 1 1 0 89 2 1 0 0 1 97 0 1 0 1 81 1 0 7 5 0 11 1 11 3 8 22 
CALL[ ]	/* CallFunction */";
};
width = 362;
}
);
note = bullet;
unicode = 8226;
},
{
glyphname = uni27F5;
layers = (
{
layerId = m01;
shapes = (
{
closed = 1;
nodes = (
(454,513,l),
(392,591,l),
(54,270,l),
(392,-51,l),
(455,26,l),
(241,220,l),
(1324,220,l),
(1324,318,l),
(239,318,l)
);
}
);
userData = {
assembly = "NPUSHB[ ]	/* 44 values pushed */
5 1 0 1 1 76 7 6 2 1 74 4 3 2 0 73 2 1 1 0 0 1 87 2 1 1 1 0 95 0 0 1 0 79 0 0 0 8 0 8 17 3 6 23 
CALL[ ]	/* CallFunction */";
};
width = 1378;
}
);
note = uni27F5;
unicode = 10229;
},
{
glyphname = uni27F6;
layers = (
{
layerId = m01;
shapes = (
{
closed = 1;
nodes = (
(986,-51,l),
(1324,269,l),
(985,591,l),
(923,512,l),
(1137,318,l),
(54,318,l),
(54,220,l),
(1137,220,l),
(923,26,l)
);
}
);
userData = {
assembly = "NPUSHB[ ]	/* 37 values pushed */
6 1 0 1 1 76 5 4 2 1 74 8 7 2 0 73 0 1 0 0 1 87 0 1 1 0 95 0 0 1 0 79 17 16 2 6 24 
CALL[ ]	/* CallFunction */";
};
width = 1378;
}
);
note = uni27F6;
unicode = 10230;
},
{
glyphname = arrowup;
layers = (
{
layerId = m01;
shapes = (
{
closed = 1;
nodes = (
(595,255,l),
(671,317,l),
(362,672,l),
(54,317,l),
(129,255,l),
(314,478,l),
(314,0,l),
(410,0,l),
(410,478,l)
);
}
);
userData = {
assembly = "NPUSHB[ ]	/* 18 values pushed */
8 7 6 5 4 3 2 7 0 74 0 0 0 118 16 1 6 23 
CALL[ ]	/* CallFunction */";
};
width = 725;
}
);
note = arrowup;
unicode = 8593;
},
{
glyphname = arrowdown;
layers = (
{
layerId = m01;
shapes = (
{
closed = 1;
nodes = (
(363,0,l),
(671,354,l),
(596,416,l),
(411,194,l),
(411,672,l),
(315,672,l),
(315,194,l),
(130,416,l),
(54,354,l)
);
}
);
userData = {
assembly = "NPUSHB[ ]	/* 17 values pushed */
8 7 6 5 4 1 6 0 73 0 0 0 118 18 1 6 23 
CALL[ ]	/* CallFunction */";
};
width = 725;
}
);
note = arrowdown;
unicode = 8595;
},
{
glyphname = uni21BA;
layers = (
{
layerId = m01;
shapes = (
{
closed = 1;
nodes = (
(901,721,l),
(516,767,l),
(509,385,l),
(600,385,l),
(603,596,l),
(624,579,o),
(663,532,o),
(693,474,o),
(713,410,o),
(716,376,qs),
(718,356,o),
(718,337,qs),
(718,296,o),
(693,201,o),
(622,114,o),
(515,61,o),
(446,60,qs),
(443,60,o),
(441,60,qs),
(380,60,o),
(279,104,o),
(206,181,o),
(166,284,o),
(166,341,qs),
(166,343,o),
(166,346,qs),
(166,412,o),
(220,540,o),
(275,590,q),
(204,669,l),
(130,607,o),
(55,442,o),
(55,355,qs),
(55,351,o),
(55,346,qs),
(56,258,o),
(114,113,o),
(219,9,o),
(361,-45,o),
(444,-45,qs),
(450,-45,o),
(456,-45,qs),
(549,-42,o),
(697,29,o),
(795,147,o),
(829,279,o),
(829,337,qs),
(829,363,o),
(826,390,qs),
(818,463,o),
(743,613,o),
(676,661,q),
(887,629,l)
);
}
);
userData = {
assembly = "NPUSHB[ ]	/* 37 values pushed */
52 50 47 23 22 5 2 74 0 2 1 2 133 0 1 0 0 1 89 0 1 1 0 97 0 0 1 0 81 49 48 36 32 73 3 6 23 
CALL[ ]	/* CallFunction */";
};
width = 955;
}
);
note = uni21BA;
unicode = 8634;
},
{
glyphname = uni21BB;
layers = (
{
layerId = m01;
shapes = (
{
closed = 1;
nodes = (
(212,610,o),
(136,467,o),
(130,390,q),
(125,357,o),
(125,326,qs),
(125,274,o),
(160,147,o),
(258,29,o),
(406,-42,o),
(499,-45,qs),
(505,-45,o),
(511,-45,qs),
(594,-45,o),
(735,9,o),
(840,113,o),
(898,258,o),
(900,346,qs),
(900,351,o),
(900,355,qs),
(900,442,o),
(825,607,o),
(751,669,q),
(679,590,l),
(735,540,o),
(789,412,o),
(789,346,qs),
(789,343,o),
(789,341,qs),
(789,284,o),
(749,181,o),
(676,104,o),
(575,60,o),
(514,60,qs),
(512,60,o),
(509,60,qs),
(440,61,o),
(332,114,o),
(262,201,o),
(237,294,o),
(237,334,qs),
(237,354,o),
(240,376,qs),
(242,409,o),
(262,474,o),
(292,532,o),
(331,579,o),
(352,596,q),
(355,385,l),
(446,385,l),
(439,767,l),
(54,721,l),
(68,629,l),
(278,661,l)
);
}
);
userData = {
assembly = "NPUSHB[ ]	/* 42 values pushed */
10 1 1 0 1 76 52 30 29 5 2 5 0 74 0 0 1 0 133 0 1 2 2 1 89 0 1 1 2 97 0 2 1 2 81 43 39 76 19 3 6 24 
CALL[ ]	/* CallFunction */";
};
width = 955;
}
);
note = uni21BB;
unicode = 8635;
},
{
glyphname = uni21B7;
layers = (
{
layerId = m01;
shapes = (
{
closed = 1;
nodes = (
(787,165,o),
(824,285,o),
(824,347,qs),
(824,431,o),
(770,574,o),
(670,678,o),
(528,736,o),
(440,736,qs),
(356,736,o),
(218,680,o),
(117,580,o),
(58,444,o),
(54,365,q),
(164,365,l),
(168,422,o),
(211,519,o),
(284,590,o),
(382,630,o),
(440,630,qs),
(502,630,o),
(604,587,o),
(676,510,o),
(715,406,o),
(715,346,qs),
(715,295,o),
(683,190,o),
(655,152,q),
(599,361,l),
(510,341,l),
(616,-33,l),
(976,106,l),
(939,191,l),
(751,114,l)
);
}
);
userData = {
assembly = "NPUSHB[ ]	/* 36 values pushed */
32 5 4 3 2 1 6 1 73 0 1 0 1 134 0 2 0 0 2 89 0 2 2 0 97 0 0 2 0 81 36 20 44 3 6 25 
CALL[ ]	/* CallFunction */";
};
width = 1030;
}
);
note = uni21B7;
unicode = 8631;
},
{
glyphname = uni21B6;
layers = (
{
layerId = m01;
shapes = (
{
closed = 1;
nodes = (
(54,106,l),
(415,-33,l),
(521,341,l),
(431,361,l),
(375,152,l),
(346,190,o),
(315,295,o),
(315,346,qs),
(315,406,o),
(354,510,o),
(426,587,o),
(528,630,o),
(590,630,qs),
(648,630,o),
(746,590,o),
(819,519,o),
(862,422,o),
(866,365,q),
(976,365,l),
(971,444,o),
(913,580,o),
(812,680,o),
(674,736,o),
(590,736,qs),
(502,736,o),
(360,678,o),
(260,574,o),
(206,431,o),
(206,347,qs),
(206,285,o),
(243,165,o),
(279,114,q),
(91,191,l)
);
}
);
userData = {
assembly = "NPUSHB[ ]	/* 36 values pushed */
32 31 30 29 28 27 6 1 73 0 1 2 1 134 0 0 2 2 0 89 0 0 0 2 97 0 2 0 2 81 36 20 39 3 6 25 
CALL[ ]	/* CallFunction */";
};
width = 1030;
}
);
note = uni21B6;
unicode = 8630;
},
{
glyphname = five;
layers = (
{
layerId = m01;
shapes = (
{
closed = 1;
nodes = (
(211,334,o),
(273,360,o),
(311,360,qs),
(372,360,o),
(447,292,o),
(447,228,qs),
(447,193,o),
(425,144,o),
(386,112,o),
(334,97,o),
(304,97,qs),
(283,97,o),
(241,108,o),
(205,130,o),
(178,162,o),
(172,183,q),
(57,183,l),
(64,133,o),
(109,60,o),
(176,14,o),
(259,-8,o),
(306,-8,qs),
(361,-8,o),
(455,25,o),
(525,87,o),
(565,177,o),
(565,234,qs),
(565,287,o),
(532,371,o),
(470,429,o),
(384,460,o),
(331,460,qs),
(284,460,o),
(217,439,o),
(188,420,q),
(208,604,l),
(537,604,l),
(537,707,l),
(111,707,l),
(73,311,l),
(186,311,l)
);
}
);
userData = {
assembly = "NPUSHB[ ]	/* 67 values pushed */
5 1 6 2 1 76 8 1 7 6 4 6 7 4 128 0 4 5 6 4 5 126 0 2 0 6 7 2 6 105 0 1 1 0 95 0 0 0 38 77 0 5 5 3 97 0 3 3 47 3 78 0 0 0 40 0 40 38 36 20 40 35 17 17 9 8 29 
CALL[ ]	/* CallFunction */";
};
width = 614;
}
);
note = five;
unicode = 53;
},
{
glyphname = six;
layers = (
{
layerId = m01;
shapes = (
{
closed = 1;
nodes = (
(171,454,o),
(187,506,o),
(213,552,o),
(231,570,qs),
(251,590,o),
(304,612,o),
(336,612,qs),
(374,612,o),
(438,577,o),
(452,540,q),
(568,540,l),
(551,629,o),
(427,715,o),
(340,715,qs),
(282,715,o),
(192,679,o),
(160,648,qs),
(130,619,o),
(89,545,o),
(64,462,o),
(53,372,o),
(53,327,qs),
(54,261,o),
(83,140,o),
(148,49,o),
(253,-6,o),
(329,-6,qs),
(380,-6,o),
(468,28,o),
(534,90,o),
(571,176,o),
(571,229,qs),
(571,281,o),
(538,366,o),
(478,424,o),
(392,456,o),
(340,456,qs),
(288,456,o),
(196,416,o),
(163,374,q),
(163,400,o)
);
},
{
closed = 1;
nodes = (
(381,96,o),
(323,96,qs),
(294,96,o),
(245,117,o),
(209,152,o),
(189,199,o),
(189,225,qs),
(189,253,o),
(210,301,o),
(247,335,o),
(296,354,o),
(324,354,qs),
(384,354,o),
(455,281,o),
(455,221,qs),
(455,165,o)
);
}
);
userData = {
assembly = "NPUSHB[ ]	/* 53 values pushed */
0 1 5 0 1 76 0 3 4 0 4 3 0 128 0 0 0 5 6 0 5 105 0 4 4 2 97 0 2 2 46 77 0 6 6 1 97 0 1 1 47 1 78 40 41 34 18 43 40 34 7 8 29 
CALL[ ]	/* CallFunction */";
};
width = 620;
}
);
note = six;
unicode = 54;
},
{
glyphname = cedilla;
layers = (
{
layerId = m01;
shapes = (
{
closed = 1;
nodes = (
(214,-112,l),
(225,-110,o),
(254,-108,o),
(268,-108,qs),
(295,-108,o),
(323,-124,o),
(323,-143,qs),
(323,-166,o),
(281,-187,o),
(245,-187,qs),
(237,-187,o),
(221,-186,o),
(213,-185,q),
(212,-252,l),
(239,-255,o),
(261,-255,qs),
(288,-255,o),
(341,-242,o),
(383,-213,o),
(409,-166,o),
(409,-133,qs),
(409,-91,o),
(362,-49,o),
(324,-49,qs),
(319,-49,o),
(311,-49,o),
(304,-50,q),
(321,16,l),
(247,16,l)
);
}
);
userData = {
assembly = "PUSHB[ ]	/* 2 values pushed */
6 100 
WCVTP[ ]	/* WriteCVTInPixels */
NPUSHB[ ]	/* 57 values pushed */
27 15 2 2 3 14 1 1 2 2 76 0 0 4 3 4 0 3 128 5 1 4 0 3 2 4 3 105 0 2 1 1 2 89 0 2 2 1 97 0 1 2 1 81 0 0 0 28 0 28 52 51 38 65 6 8 26 
CALL[ ]	/* CallFunction */
PUSHB[ ]	/* 2 values pushed */
6 0 
WCVTP[ ]	/* WriteCVTInPixels */";
};
width = 605;
}
);
note = cedilla;
unicode = 184;
},
{
glyphname = dotlessi;
layers = (
{
layerId = m01;
shapes = (
{
closed = 1;
nodes = (
(62,527,l),
(62,0,l),
(176,0,l),
(176,527,l)
);
}
);
userData = {
assembly = "NPUSHB[ ]	/* 16 values pushed */
0 1 1 41 77 0 0 0 39 0 78 17 16 2 8 24 
CALL[ ]	/* CallFunction */";
};
width = 238;
}
);
note = dotlessi;
unicode = 305;
},
{
glyphname = ccedilla;
kernLeft = d;
layers = (
{
layerId = m01;
shapes = (
{
closed = 1;
nodes = (
(288,-190,o),
(251,-190,qs),
(245,-190,o),
(227,-189,o),
(220,-188,q),
(219,-256,l),
(243,-259,o),
(264,-259,qs),
(292,-259,o),
(348,-246,o),
(392,-217,o),
(418,-171,o),
(418,-138,qs),
(418,-95,o),
(371,-50,o),
(333,-50,qs),
(331,-50,o),
(320,-50,o),
(312,-51,q),
(323,-5,l),
(359,-2,o),
(426,21,o),
(479,62,o),
(516,124,o),
(523,165,q),
(406,165,l),
(398,132,o),
(340,92,o),
(295,92,qs),
(257,92,o),
(203,119,o),
(168,164,o),
(151,226,o),
(151,261,qs),
(151,295,o),
(166,358,o),
(200,406,o),
(253,434,o),
(292,434,qs),
(335,434,o),
(394,398,o),
(403,363,q),
(521,363,l),
(505,453,o),
(385,536,o),
(294,536,qs),
(232,536,o),
(138,494,o),
(72,422,o),
(39,322,o),
(39,262,qs),
(39,207,o),
(64,115,o),
(117,45,o),
(195,2,o),
(248,-4,q),
(221,-114,l),
(233,-112,o),
(262,-110,o),
(277,-110,qs),
(299,-110,o),
(331,-126,o),
(331,-145,qs),
(331,-170,o)
);
}
);
userData = {
assembly = "NPUSHB[ ]	/* 15 values pushed */
7 1 6 4 58 6 2 8 0 57 1 7 8 3 76 
MPPEM[ ]	/* MeasurePixelPerEm */
PUSHB[ ]	/* 1 value pushed */
16 
LT[ ]	/* LessThan */
IF[ ]	/* If */
NPUSHB[ ]	/* 52 values pushed */
0 2 3 5 3 2 5 128 0 5 4 3 5 4 126 0 6 4 0 4 6 0 128 0 4 0 0 8 4 0 105 0 3 3 1 97 0 1 1 49 77 0 8 8 7 97 0 7 7 51 7 78 
ELSE[ ]	/* Else */
NPUSHB[ ]	/* 49 values pushed */
0 2 3 5 3 2 5 128 0 5 4 3 5 4 126 0 6 4 0 4 6 0 128 0 4 0 0 8 4 0 105 0 8 0 7 8 7 101 0 3 3 1 97 0 1 1 49 3 78 
EIF[ ]	/* EndIf */
NPUSHB[ ]	/* 12 values pushed */
36 38 55 18 40 34 18 43 50 9 8 31 
CALL[ ]	/* CallFunction */";
};
width = 559;
}
);
note = ccedilla;
unicode = 231;
},
{
glyphname = uni0162;
kernLeft = uni0422;
kernRight = uni0422;
layers = (
{
layerId = m01;
shapes = (
{
closed = 1;
nodes = (
(350,603,l),
(574,603,l),
(574,707,l),
(9,707,l),
(9,603,l),
(234,603,l),
(234,0,l),
(255,0,l),
(225,-112,l),
(234,-109,o),
(259,-107,o),
(272,-107,qs),
(283,-107,o),
(305,-109,o),
(324,-117,o),
(334,-132,o),
(334,-143,qs),
(334,-168,o),
(293,-188,o),
(258,-188,qs),
(250,-188,o),
(233,-187,o),
(224,-186,q),
(223,-252,l),
(250,-255,o),
(271,-255,qs),
(299,-255,o),
(353,-242,o),
(395,-213,o),
(420,-167,o),
(420,-135,qs),
(420,-93,o),
(371,-49,o),
(334,-49,qs),
(330,-49,o),
(322,-49,o),
(314,-50,q),
(327,0,l),
(350,0,l)
);
}
);
userData = {
assembly = "NPUSHB[ ]	/* 15 values pushed */
1 1 3 0 29 15 2 2 3 14 1 1 2 3 76 
MPPEM[ ]	/* MeasurePixelPerEm */
PUSHB[ ]	/* 1 value pushed */
16 
LT[ ]	/* LessThan */
IF[ ]	/* If */
NPUSHB[ ]	/* 44 values pushed */
0 0 4 3 4 0 3 128 0 3 2 4 3 2 126 7 1 5 5 6 95 0 6 6 38 77 9 8 2 4 4 39 77 0 2 2 1 97 0 1 1 51 1 78 
ELSE[ ]	/* Else */
NPUSHB[ ]	/* 41 values pushed */
0 0 4 3 4 0 3 128 0 3 2 4 3 2 126 0 2 0 1 2 1 101 7 1 5 5 6 95 0 6 6 38 77 9 8 2 4 4 39 4 78 
EIF[ ]	/* EndIf */
NPUSHB[ ]	/* 17 values pushed */
0 0 0 38 0 38 17 17 17 19 38 51 38 50 10 8 30 
CALL[ ]	/* CallFunction */";
};
width = 583;
}
);
note = uni0162;
unicode = 354;
},
{
glyphname = uni0163;
kernLeft = t;
layers = (
{
layerId = m01;
shapes = (
{
closed = 1;
nodes = (
(107,676,l),
(107,527,l),
(24,527,l),
(24,428,l),
(107,428,l),
(107,171,ls),
(107,109,o),
(145,31,o),
(190,14,q),
(155,-114,l),
(166,-112,o),
(197,-110,o),
(208,-110,qs),
(233,-110,o),
(264,-125,o),
(264,-145,qs),
(264,-170,o),
(223,-191,o),
(187,-191,qs),
(179,-191,o),
(163,-190,o),
(154,-188,q),
(153,-256,l),
(177,-259,o),
(198,-259,qs),
(228,-259,o),
(283,-245,o),
(326,-215,o),
(351,-168,o),
(351,-136,qs),
(351,-92,o),
(303,-50,o),
(265,-50,qs),
(260,-50,o),
(253,-50,o),
(244,-51,q),
(260,0,l),
(343,0,l),
(343,98,l),
(304,98,ls),
(258,98,o),
(220,140,o),
(220,185,qs),
(220,428,l),
(353,428,l),
(353,527,l),
(220,527,l),
(220,676,l)
);
}
);
userData = {
assembly = "NPUSHB[ ]	/* 19 values pushed */
38 1 3 2 11 1 7 4 37 25 2 6 7 24 1 5 6 4 76 
MPPEM[ ]	/* MeasurePixelPerEm */
PUSHB[ ]	/* 1 value pushed */
16 
LT[ ]	/* LessThan */
IF[ ]	/* If */
NPUSHB[ ]	/* 53 values pushed */
0 10 0 10 133 0 4 3 7 3 4 7 128 0 7 6 3 7 6 126 8 1 1 1 0 95 9 1 0 0 41 77 0 2 2 3 95 0 3 3 39 77 0 6 6 5 97 0 5 5 51 5 78 
ELSE[ ]	/* Else */
NPUSHB[ ]	/* 50 values pushed */
0 10 0 10 133 0 4 3 7 3 4 7 128 0 7 6 3 7 6 126 0 6 0 5 6 5 101 8 1 1 1 0 95 9 1 0 0 41 77 0 2 2 3 95 0 3 3 39 3 78 
EIF[ ]	/* EndIf */
NPUSHB[ ]	/* 16 values pushed */
47 46 45 44 22 52 51 38 50 17 35 17 16 11 8 31 
CALL[ ]	/* CallFunction */";
};
width = 387;
}
);
note = uni0163;
unicode = 355;
},
{
glyphname = Ccedilla;
kernLeft = O;
kernRight = O;
layers = (
{
layerId = m01;
shapes = (
{
closed = 1;
nodes = (
(536,551,o),
(549,499,q),
(663,499,l),
(647,606,o),
(495,716,o),
(378,716,qs),
(295,716,o),
(170,661,o),
(86,564,o),
(43,431,o),
(43,354,qs),
(43,281,o),
(79,156,o),
(152,61,o),
(260,3,o),
(332,-4,q),
(304,-112,l),
(312,-110,o),
(337,-107,o),
(353,-107,qs),
(377,-107,o),
(412,-122,o),
(413,-143,qs),
(412,-168,o),
(370,-188,o),
(332,-188,qs),
(325,-188,o),
(311,-188,o),
(303,-187,q),
(302,-252,l),
(329,-255,o),
(350,-255,qs),
(378,-255,o),
(432,-242,o),
(474,-212,o),
(499,-166,o),
(499,-133,qs),
(499,-91,o),
(451,-49,o),
(413,-49,qs),
(410,-49,o),
(403,-49,o),
(393,-50,q),
(404,-5,l),
(456,-2,o),
(546,29,o),
(616,83,o),
(662,160,o),
(670,208,q),
(552,208,l),
(540,155,o),
(447,97,o),
(378,97,qs),
(322,97,o),
(240,139,o),
(187,210,o),
(162,304,o),
(162,356,qs),
(162,406,o),
(186,499,o),
(238,570,o),
(319,612,o),
(376,612,qs),
(446,612,o)
);
}
);
userData = {
assembly = "NPUSHB[ ]	/* 20 values pushed */
20 1 7 4 46 34 2 6 7 33 1 5 6 3 76 47 1 3 1 75 
MPPEM[ ]	/* MeasurePixelPerEm */
PUSHB[ ]	/* 1 value pushed */
10 
LT[ ]	/* LessThan */
IF[ ]	/* If */
NPUSHB[ ]	/* 61 values pushed */
0 9 0 2 0 9 2 128 0 2 1 0 2 1 126 0 4 3 7 3 4 7 128 0 7 6 3 7 112 10 1 0 0 8 97 0 8 8 46 77 0 1 1 3 97 0 3 3 39 77 0 6 6 5 97 0 5 5 51 5 78 
ELSE[ ]	/* Else */
MPPEM[ ]	/* MeasurePixelPerEm */
PUSHB[ ]	/* 1 value pushed */
12 
LT[ ]	/* LessThan */
IF[ ]	/* If */
NPUSHB[ ]	/* 61 values pushed */
0 9 0 2 0 9 2 128 0 2 1 0 2 1 126 0 4 3 7 3 4 7 128 0 7 6 3 7 112 10 1 0 0 8 97 0 8 8 46 77 0 1 1 3 97 0 3 3 47 77 0 6 6 5 97 0 5 5 51 5 78 
ELSE[ ]	/* Else */
MPPEM[ ]	/* MeasurePixelPerEm */
PUSHB[ ]	/* 1 value pushed */
14 
LT[ ]	/* LessThan */
IF[ ]	/* If */
NPUSHB[ ]	/* 62 values pushed */
0 9 0 2 0 9 2 128 0 2 1 0 2 1 126 0 4 3 7 3 4 7 128 0 7 6 3 7 6 126 10 1 0 0 8 97 0 8 8 46 77 0 1 1 3 97 0 3 3 39 77 0 6 6 5 97 0 5 5 51 5 78 
ELSE[ ]	/* Else */
MPPEM[ ]	/* MeasurePixelPerEm */
PUSHB[ ]	/* 1 value pushed */
16 
LT[ ]	/* LessThan */
IF[ ]	/* If */
NPUSHB[ ]	/* 62 values pushed */
0 9 0 2 0 9 2 128 0 2 1 0 2 1 126 0 4 3 7 3 4 7 128 0 7 6 3 7 6 126 10 1 0 0 8 97 0 8 8 46 77 0 1 1 3 97 0 3 3 47 77 0 6 6 5 97 0 5 5 51 5 78 
ELSE[ ]	/* Else */
NPUSHB[ ]	/* 59 values pushed */
0 9 0 2 0 9 2 128 0 2 1 0 2 1 126 0 4 3 7 3 4 7 128 0 7 6 3 7 6 126 0 6 0 5 6 5 101 10 1 0 0 8 97 0 8 8 46 77 0 1 1 3 97 0 3 3 47 3 78 
EIF[ ]	/* EndIf */
EIF[ ]	/* EndIf */
EIF[ ]	/* EndIf */
EIF[ ]	/* EndIf */
NPUSHB[ ]	/* 27 values pushed */
1 0 61 60 58 56 44 42 38 35 32 30 24 21 19 18 14 13 11 9 0 63 1 63 11 8 22 
CALL[ ]	/* CallFunction */";
};
width = 713;
}
);
note = Ccedilla;
unicode = 199;
},
{
glyphname = scedilla;
kernLeft = d;
layers = (
{
layerId = m01;
shapes = (
{
closed = 1;
nodes = (
(352,412,o),
(357,380,q),
(464,380,l),
(459,456,o),
(348,536,o),
(261,536,qs),
(224,536,o),
(150,520,o),
(90,482,o),
(53,419,o),
(53,372,qs),
(53,322,o),
(100,265,o),
(171,235,o),
(252,219,o),
(326,203,o),
(370,174,o),
(370,145,qs),
(370,127,o),
(352,103,o),
(320,90,o),
(289,87,o),
(271,87,qs),
(255,87,o),
(219,93,o),
(185,109,o),
(159,135,o),
(154,155,q),
(38,155,l),
(41,116,o),
(74,59,o),
(124,22,o),
(186,1,o),
(219,-3,q),
(191,-115,l),
(202,-113,o),
(230,-111,o),
(247,-111,qs),
(270,-111,o),
(300,-126,o),
(300,-146,qs),
(300,-171,o),
(258,-190,o),
(222,-190,qs),
(214,-190,o),
(198,-189,o),
(190,-188,q),
(189,-255,l),
(216,-258,o),
(237,-258,qs),
(265,-258,o),
(320,-245,o),
(362,-215,o),
(387,-169,o),
(387,-136,qs),
(387,-93,o),
(339,-51,o),
(300,-51,qs),
(295,-51,o),
(285,-51,o),
(280,-52,q),
(292,-6,l),
(329,-5,o),
(397,14,o),
(449,52,o),
(480,112,o),
(480,153,qs),
(480,204,o),
(441,261,o),
(374,293,o),
(283,312,o),
(236,321,qs),
(202,327,o),
(163,355,o),
(163,381,qs),
(163,400,o),
(182,424,o),
(211,437,o),
(244,441,o),
(259,441,qs),
(297,439,o)
);
}
);
userData = {
assembly = "NPUSHB[ ]	/* 15 values pushed */
46 1 1 7 45 33 2 4 5 32 1 3 4 3 76 
MPPEM[ ]	/* MeasurePixelPerEm */
PUSHB[ ]	/* 1 value pushed */
16 
LT[ ]	/* LessThan */
IF[ ]	/* If */
NPUSHB[ ]	/* 58 values pushed */
0 9 0 6 0 9 6 128 0 6 7 0 6 7 126 0 2 1 5 1 2 5 128 0 7 0 5 4 7 5 105 10 1 0 0 8 97 0 8 8 49 77 0 1 1 47 77 0 4 4 3 97 0 3 3 51 3 78 
ELSE[ ]	/* Else */
NPUSHB[ ]	/* 55 values pushed */
0 9 0 6 0 9 6 128 0 6 7 0 6 7 126 0 2 1 5 1 2 5 128 0 7 0 5 4 7 5 105 0 4 0 3 4 3 101 10 1 0 0 8 97 0 8 8 49 77 0 1 1 47 1 78 
EIF[ ]	/* EndIf */
NPUSHB[ ]	/* 27 values pushed */
1 0 78 77 75 73 58 56 52 51 43 41 37 34 31 29 23 19 18 17 0 80 1 80 11 8 22 
CALL[ ]	/* CallFunction */";
};
width = 520;
}
);
note = scedilla;
unicode = 351;
},
{
glyphname = uni21A9;
layers = (
{
layerId = m01;
shapes = (
{
closed = 1;
nodes = (
(780,0,ls),
(853,0,o),
(974,50,o),
(1060,142,o),
(1105,266,o),
(1105,338,qs),
(1105,410,o),
(1060,534,o),
(974,625,o),
(853,676,o),
(780,676,qs),
(180,676,l),
(180,579,l),
(776,579,ls),
(827,579,o),
(911,541,o),
(970,476,o),
(1001,389,o),
(1001,339,qs),
(1001,288,o),
(970,200,o),
(911,134,o),
(828,97,o),
(776,97,qs),
(239,97,l),
(452,291,l),
(393,370,l),
(54,49,l),
(392,-273,l),
(452,-196,l),
(239,0,l)
);
}
);
userData = {
assembly = "NPUSHB[ ]	/* 46 values pushed */
4 3 2 0 1 2 1 3 0 2 76 1 1 3 73 0 2 0 1 0 2 1 103 0 0 3 3 0 87 0 0 0 3 95 0 3 0 3 79 40 33 40 37 4 6 26 
CALL[ ]	/* CallFunction */";
};
width = 1159;
}
);
note = uni21A9;
unicode = 8617;
},
{
glyphname = uni2713;
layers = (
{
layerId = m01;
shapes = (
{
closed = 1;
nodes = (
(133,449,l),
(54,372,l),
(383,-7,l),
(1004,748,l),
(924,826,l),
(384,165,l)
);
}
);
userData = {
assembly = "PUSHB[ ]	/* 4 values pushed */
2 0 1 50 
CALL[ ]	/* CallFunction */";
};
width = 1058;
}
);
note = uni2713;
unicode = 10003;
},
{
glyphname = divide;
layers = (
{
layerId = m01;
shapes = (
{
closed = 1;
nodes = (
(188,578,o),
(188,546,qs),
(188,514,o),
(225,477,o),
(257,477,qs),
(289,477,o),
(327,514,o),
(327,546,qs),
(327,578,o),
(289,617,o),
(257,617,qs),
(225,617,o)
);
},
{
closed = 1;
nodes = (
(462,313,l),
(462,408,l),
(54,408,l),
(54,313,l)
);
},
{
closed = 1;
nodes = (
(188,201,o),
(188,169,qs),
(188,137,o),
(225,99,o),
(257,99,qs),
(289,99,o),
(327,137,o),
(327,169,qs),
(327,201,o),
(289,239,o),
(257,239,qs),
(225,239,o)
);
}
);
userData = {
assembly = "NPUSHB[ ]	/* 58 values pushed */
6 1 0 0 1 2 0 1 105 0 2 0 3 4 2 3 103 7 1 4 5 5 4 89 7 1 4 4 5 97 0 5 4 5 81 17 16 1 0 23 21 16 27 17 27 15 14 13 12 7 5 0 11 1 11 8 8 22 
CALL[ ]	/* CallFunction */";
};
width = 516;
}
);
note = divide;
unicode = 247;
},
{
glyphname = multiply;
layers = (
{
layerId = m01;
shapes = (
{
closed = 1;
nodes = (
(476,211,l),
(329,357,l),
(476,504,l),
(409,570,l),
(263,423,l),
(116,571,l),
(50,504,l),
(196,357,l),
(50,210,l),
(116,143,l),
(263,292,l),
(409,143,l)
);
}
);
userData = {
assembly = "PUSHB[ ]	/* 4 values pushed */
5 1 1 50 
CALL[ ]	/* CallFunction */";
};
width = 526;
}
);
note = multiply;
unicode = 215;
},
{
glyphname = yen;
layers = (
{
layerId = m01;
shapes = (
{
closed = 1;
nodes = (
(167,707,l),
(34,707,l),
(249,337,l),
(141,337,l),
(141,250,l),
(291,250,l),
(291,173,l),
(141,173,l),
(141,86,l),
(291,86,l),
(291,0,l),
(407,0,l),
(407,86,l),
(556,86,l),
(556,173,l),
(407,173,l),
(407,250,l),
(556,250,l),
(556,337,l),
(448,337,l),
(663,707,l),
(531,707,l),
(351,373,l)
);
}
);
userData = {
assembly = "NPUSHB[ ]	/* 54 values pushed */
22 1 1 0 1 76 9 1 1 8 1 2 3 1 2 104 7 1 3 6 1 4 5 3 4 103 10 1 0 0 38 77 0 5 5 39 5 78 21 20 19 18 17 17 17 17 17 17 17 17 16 11 8 31 
CALL[ ]	/* CallFunction */";
};
width = 697;
}
);
note = yen;
unicode = 165;
},
{
glyphname = uni20BD;
layers = (
{
layerId = m01;
shapes = (
{
closed = 1;
nodes = (
(143,82,l),
(143,0,l),
(259,0,l),
(259,82,l),
(460,82,l),
(460,174,l),
(259,174,l),
(259,252,l),
(395,252,ls),
(452,252,o),
(550,280,o),
(620,337,o),
(660,425,o),
(660,477,qs),
(660,479,o),
(660,482,qs),
(660,545,o),
(623,631,o),
(555,684,o),
(459,707,o),
(400,707,qs),
(143,707,l),
(143,350,l),
(54,350,l),
(54,252,l),
(143,252,l),
(143,174,l),
(54,174,l),
(54,82,l)
);
},
{
closed = 1;
nodes = (
(259,603,l),
(393,603,ls),
(430,603,o),
(486,592,o),
(525,563,o),
(545,514,o),
(545,477,qs),
(544,442,o),
(519,394,o),
(477,364,o),
(422,350,o),
(390,350,qs),
(259,350,l)
);
}
);
userData = {
assembly = "NPUSHB[ ]	/* 57 values pushed */
11 9 2 2 4 1 1 0 2 1 103 5 1 0 8 1 6 7 0 6 103 0 10 10 3 95 0 3 3 38 77 0 7 7 39 7 78 30 29 40 38 29 41 30 41 17 17 17 17 42 33 17 17 16 12 8 31 
CALL[ ]	/* CallFunction */";
};
width = 704;
}
);
note = uni20BD;
unicode = 8381;
},
{
glyphname = uni20B4;
layers = (
{
layerId = m01;
shapes = (
{
closed = 1;
nodes = (
(184,695,o),
(120,653,o),
(79,586,o),
(76,538,q),
(191,538,l),
(194,561,o),
(217,589,o),
(250,605,o),
(288,611,o),
(307,611,qs),
(354,610,o),
(408,569,o),
(408,532,qs),
(408,522,o),
(401,499,o),
(389,478,o),
(374,461,o),
(367,457,q),
(42,457,l),
(42,376,l),
(261,376,l),
(156,305,l),
(42,305,l),
(42,225,l),
(94,225,l),
(83,211,o),
(73,170,o),
(73,155,qs),
(73,112,o),
(110,50,o),
(170,9,o),
(246,-10,o),
(286,-10,qs),
(331,-10,o),
(414,8,o),
(478,49,o),
(519,114,o),
(521,161,q),
(409,161,l),
(405,140,o),
(384,113,o),
(354,98,o),
(317,93,o),
(296,93,qs),
(277,93,o),
(238,101,o),
(207,119,o),
(187,150,o),
(187,173,qs),
(187,187,o),
(202,219,o),
(213,225,q),
(538,225,l),
(538,305,l),
(313,305,l),
(418,376,l),
(538,376,l),
(538,457,l),
(485,457,l),
(502,474,o),
(518,525,o),
(518,550,qs),
(518,595,o),
(481,658,o),
(422,697,o),
(348,714,o),
(311,714,qs),
(267,714,o)
);
}
);
userData = {
assembly = "NPUSHB[ ]	/* 93 values pushed */
0 13 12 1 12 13 1 128 0 6 4 5 4 6 5 128 11 1 1 10 1 2 3 1 2 103 9 1 3 8 1 4 6 3 4 103 0 12 12 0 97 14 1 0 0 46 77 0 5 5 7 97 0 7 7 47 7 78 1 0 63 62 58 56 49 48 47 46 45 44 43 42 35 33 29 28 24 22 15 14 13 12 11 10 9 8 0 67 1 67 15 8 22 
CALL[ ]	/* CallFunction */";
};
width = 580;
}
);
note = uni20B4;
unicode = 8372;
},
{
glyphname = sterling;
layers = (
{
layerId = m01;
shapes = (
{
closed = 1;
nodes = (
(249,514,ls),
(249,573,o),
(304,621,o),
(345,621,qs),
(428,621,o),
(437,548,q),
(545,548,l),
(540,633,o),
(437,716,o),
(348,716,qs),
(250,716,o),
(137,612,o),
(137,514,qs),
(137,386,l),
(54,386,l),
(54,286,l),
(137,286,l),
(137,103,l),
(54,103,l),
(54,0,l),
(551,0,l),
(551,103,l),
(249,103,l),
(249,286,l),
(459,286,l),
(459,386,l),
(249,386,l)
);
}
);
userData = {
assembly = "NPUSHB[ ]	/* 59 values pushed */
0 7 8 5 8 7 5 128 10 9 2 5 4 1 0 1 5 0 103 0 8 8 6 97 0 6 6 46 77 3 1 1 1 2 95 0 2 2 39 2 78 0 0 0 26 0 26 33 18 35 17 17 17 17 17 17 11 8 31 
CALL[ ]	/* CallFunction */";
};
width = 605;
}
);
note = sterling;
unicode = 163;
},
{
glyphname = Scedilla;
kernLeft = O;
kernRight = O;
layers = (
{
layerId = m01;
shapes = (
{
closed = 1;
nodes = (
(395,601,o),
(432,578,o),
(457,542,o),
(460,515,q),
(575,515,l),
(571,569,o),
(527,645,o),
(457,694,o),
(367,716,o),
(317,716,qs),
(271,716,o),
(181,695,o),
(109,648,o),
(65,570,o),
(65,513,qs),
(65,466,o),
(94,401,o),
(143,356,o),
(209,328,o),
(283,308,o),
(361,291,o),
(398,280,qs),
(431,270,o),
(475,232,o),
(475,197,qs),
(475,196,o),
(475,194,qs),
(475,167,o),
(452,130,o),
(413,107,o),
(362,98,o),
(334,98,qs),
(306,98,o),
(252,108,o),
(205,132,o),
(170,172,o),
(162,202,q),
(43,202,l),
(49,153,o),
(89,80,o),
(151,30,o),
(232,1,o),
(278,-4,q),
(251,-114,l),
(261,-112,o),
(286,-109,o),
(303,-109,qs),
(327,-109,o),
(360,-124,o),
(360,-144,qs),
(360,-170,o),
(318,-189,o),
(282,-189,qs),
(274,-189,o),
(258,-188,o),
(250,-187,q),
(249,-254,l),
(274,-257,o),
(296,-257,qs),
(325,-257,o),
(379,-243,o),
(421,-214,o),
(446,-168,o),
(446,-135,qs),
(446,-93,o),
(398,-51,o),
(361,-51,qs),
(358,-51,o),
(350,-51,o),
(340,-52,q),
(350,-7,l),
(401,-6,o),
(489,20,o),
(554,72,o),
(592,151,o),
(592,205,qs),
(592,257,o),
(554,325,o),
(490,368,o),
(405,393,o),
(358,403,qs),
(332,408,o),
(268,423,o),
(218,446,o),
(183,487,o),
(183,519,qs),
(183,547,o),
(208,584,o),
(248,605,o),
(296,613,o),
(319,613,qs),
(346,612,o)
);
}
);
userData = {
assembly = "NPUSHB[ ]	/* 19 values pushed */
48 1 1 7 21 1 5 2 47 35 2 4 5 34 1 3 4 4 76 
MPPEM[ ]	/* MeasurePixelPerEm */
PUSHB[ ]	/* 1 value pushed */
12 
LT[ ]	/* LessThan */
IF[ ]	/* If */
NPUSHB[ ]	/* 61 values pushed */
0 9 0 6 0 9 6 128 0 6 7 0 6 7 126 0 2 1 5 1 2 5 128 0 5 4 1 5 112 10 1 0 0 8 97 0 8 8 46 77 0 7 7 1 97 0 1 1 47 77 0 4 4 3 97 0 3 3 51 3 78 
ELSE[ ]	/* Else */
MPPEM[ ]	/* MeasurePixelPerEm */
PUSHB[ ]	/* 1 value pushed */
16 
LT[ ]	/* LessThan */
IF[ ]	/* If */
NPUSHB[ ]	/* 62 values pushed */
0 9 0 6 0 9 6 128 0 6 7 0 6 7 126 0 2 1 5 1 2 5 128 0 5 4 1 5 4 126 10 1 0 0 8 97 0 8 8 46 77 0 7 7 1 97 0 1 1 47 77 0 4 4 3 97 0 3 3 51 3 78 
ELSE[ ]	/* Else */
NPUSHB[ ]	/* 59 values pushed */
0 9 0 6 0 9 6 128 0 6 7 0 6 7 126 0 2 1 5 1 2 5 128 0 5 4 1 5 4 126 0 4 0 3 4 3 101 10 1 0 0 8 97 0 8 8 46 77 0 7 7 1 97 0 1 1 47 1 78 
EIF[ ]	/* EndIf */
EIF[ ]	/* EndIf */
NPUSHB[ ]	/* 27 values pushed */
1 0 87 86 82 80 60 58 54 53 45 43 39 36 33 31 25 22 20 19 0 91 1 91 11 8 22 
CALL[ ]	/* CallFunction */";
};
width = 636;
}
);
note = Scedilla;
unicode = 350;
},
{
glyphname = t_alt;
kernLeft = t;
layers = (
{
layerId = m01;
shapes = (
{
closed = 1;
nodes = (
(129,676,l),
(109,527,l),
(24,527,l),
(24,428,l),
(107,428,l),
(107,171,ls),
(107,80,o),
(190,0,o),
(287,0,qs),
(343,0,l),
(343,98,l),
(304,98,ls),
(258,98,o),
(220,141,o),
(220,185,qs),
(220,428,l),
(353,428,l),
(353,527,l),
(220,527,l),
(220,676,l)
);
}
);
userData = {
assembly = "NPUSHB[ ]	/* 38 values pushed */
0 6 0 6 133 4 1 1 1 0 95 5 1 0 0 22 77 0 2 2 3 98 0 3 3 21 3 78 17 17 19 33 35 17 16 7 7 29 
CALL[ ]	/* CallFunction */";
};
width = 387;
}
);
note = t_alt;
},
{
glyphname = alt_1;
layers = (
{
layerId = m01;
shapes = (
{
closed = 1;
nodes = (
(253,707,l),
(238,681,o),
(196,648,o),
(146,629,o),
(90,622,o),
(61,621,q),
(61,544,l),
(222,544,l),
(222,103,l),
(42,103,l),
(42,0,l),
(493,0,l),
(493,103,l),
(338,103,l),
(338,707,l)
);
}
);
userData = {
assembly = "NPUSHB[ ]	/* 34 values pushed */
0 4 0 3 0 4 3 103 0 5 5 20 77 2 1 0 0 1 96 0 1 1 21 1 78 20 17 17 17 17 16 6 7 28 
CALL[ ]	/* CallFunction */";
};
width = 507;
}
);
note = alt_1;
},
{
glyphname = uni2117;
layers = (
{
layerId = m01;
shapes = (
{
closed = 1;
nodes = (
(221,663,o),
(113,555,o),
(54,402,o),
(54,308,qs),
(54,212,o),
(112,59,o),
(219,-48,o),
(369,-105,o),
(461,-105,qs),
(552,-105,o),
(702,-48,o),
(808,59,o),
(866,212,o),
(866,308,qs),
(866,401,o),
(807,554,o),
(700,662,o),
(551,722,o),
(461,722,qs),
(371,722,o)
);
},
{
closed = 1;
nodes = (
(649,591,o),
(732,505,o),
(778,383,o),
(778,307,qs),
(778,230,o),
(734,109,o),
(651,24,o),
(535,-21,o),
(463,-21,qs),
(391,-21,o),
(274,24,o),
(190,109,o),
(145,230,o),
(145,307,qs),
(145,383,o),
(191,505,o),
(275,591,o),
(392,637,o),
(463,637,qs),
(533,637,o)
);
},
{
closed = 1;
nodes = (
(484,211,ls),
(560,211,o),
(654,292,o),
(654,372,qs),
(653,450,o),
(564,522,o),
(487,522,qs),
(319,522,l),
(319,75,l),
(406,75,l),
(406,211,l)
);
},
{
closed = 1;
nodes = (
(406,442,l),
(484,442,ls),
(522,442,o),
(568,407,o),
(568,371,qs),
(568,328,o),
(518,290,o),
(480,290,qs),
(406,290,l)
);
}
);
userData = {
assembly = "NPUSHB[ ]	/* 84 values pushed */
0 4 6 3 6 4 3 128 9 1 0 10 1 2 5 0 2 105 0 5 0 8 7 5 8 103 11 1 7 0 6 4 7 6 103 0 3 1 1 3 89 0 3 3 1 97 0 1 3 1 81 52 51 21 20 1 0 58 56 51 59 52 59 50 48 44 42 41 40 31 29 20 39 21 39 11 9 0 19 1 19 12 6 22 
CALL[ ]	/* CallFunction */";
};
width = 920;
}
);
note = uni2117;
unicode = 8471;
},
{
glyphname = colon.uc;
layers = (
{
layerId = m01;
shapes = (
{
closed = 1;
nodes = (
(62,552,o),
(62,519,qs),
(62,484,o),
(102,446,o),
(135,446,qs),
(167,446,o),
(208,484,o),
(208,519,qs),
(208,552,o),
(168,593,o),
(135,593,qs),
(102,593,o)
);
},
{
closed = 1;
nodes = (
(62,194,o),
(62,161,qs),
(62,127,o),
(102,88,o),
(135,88,qs),
(167,88,o),
(208,127,o),
(208,161,qs),
(208,194,o),
(168,235,o),
(135,235,qs),
(102,235,o)
);
}
);
userData = {
assembly = "NPUSHB[ ]	/* 46 values pushed */
4 1 0 0 1 2 0 1 105 5 1 2 3 3 2 89 5 1 2 2 3 97 0 3 2 3 81 13 12 1 0 19 17 12 23 13 23 7 5 0 11 1 11 6 7 22 
CALL[ ]	/* CallFunction */";
};
width = 270;
}
);
note = colon.uc;
},
{
glyphname = y_alt;
layers = (
{
layerId = m01;
shapes = (
{
closed = 1;
nodes = (
(438,274,ls),
(438,239,o),
(425,173,o),
(394,122,o),
(342,91,o),
(303,91,qs),
(263,91,o),
(214,118,o),
(187,163,o),
(178,222,o),
(178,255,qs),
(178,527,l),
(64,527,l),
(64,234,ls),
(64,180,o),
(85,91,o),
(136,27,o),
(216,-8,o),
(276,-8,qs),
(329,-8,o),
(413,26,o),
(438,68,q),
(438,26,o),
(432,-54,o),
(404,-116,o),
(348,-153,o),
(297,-153,qs),
(256,-153,o),
(189,-117,o),
(181,-81,q),
(62,-81,l),
(69,-127,o),
(113,-192,o),
(174,-234,o),
(252,-254,o),
(296,-254,qs),
(385,-254,o),
(496,-188,o),
(523,-130,qs),
(535,-105,o),
(546,-49,o),
(551,7,o),
(551,34,qs),
(551,527,l),
(438,527,l)
);
}
);
userData = {
assembly = "PUSHB[ ]	/* 6 values pushed */
22 1 3 5 1 76 
MPPEM[ ]	/* MeasurePixelPerEm */
PUSHB[ ]	/* 1 value pushed */
14 
LT[ ]	/* LessThan */
IF[ ]	/* If */
NPUSHB[ ]	/* 36 values pushed */
0 1 3 2 3 1 2 128 7 6 2 4 4 22 77 0 5 5 3 97 0 3 3 28 77 0 2 2 0 97 0 0 0 31 0 78 
ELSE[ ]	/* Else */
NPUSHB[ ]	/* 33 values pushed */
0 1 3 2 3 1 2 128 0 2 0 0 2 0 101 7 6 2 4 4 22 77 0 5 5 3 97 0 3 3 28 3 78 
EIF[ ]	/* EndIf */
NPUSHB[ ]	/* 15 values pushed */
0 0 0 44 0 44 37 21 38 34 20 39 8 7 28 
CALL[ ]	/* CallFunction */";
};
width = 613;
}
);
note = y_alt;
},
{
glyphname = u_alt;
layers = (
{
layerId = m01;
shapes = (
{
closed = 1;
nodes = (
(425,274,ls),
(425,238,o),
(411,173,o),
(380,122,o),
(328,91,o),
(290,91,qs),
(250,91,o),
(203,119,o),
(178,164,o),
(171,222,o),
(171,252,qs),
(171,527,l),
(57,527,l),
(57,234,ls),
(57,182,o),
(76,93,o),
(124,28,o),
(202,-8,o),
(261,-8,qs),
(310,-8,o),
(354,8,qs),
(405,29,o),
(431,72,q),
(439,0,l),
(538,0,l),
(538,527,l),
(425,527,l)
);
}
);
userData = {
assembly = "PUSHB[ ]	/* 6 values pushed */
3 1 0 3 1 76 
MPPEM[ ]	/* MeasurePixelPerEm */
PUSHB[ ]	/* 1 value pushed */
29 
LT[ ]	/* LessThan */
IF[ ]	/* If */
NPUSHB[ ]	/* 19 values pushed */
5 4 2 2 2 22 77 0 3 3 0 97 1 1 0 0 21 0 78 
ELSE[ ]	/* Else */
NPUSHB[ ]	/* 23 values pushed */
5 4 2 2 2 22 77 0 0 0 21 77 0 3 3 1 97 0 1 1 28 1 78 
EIF[ ]	/* EndIf */
NPUSHB[ ]	/* 13 values pushed */
0 0 0 26 0 26 37 21 36 17 6 7 26 
CALL[ ]	/* CallFunction */";
};
width = 600;
}
);
note = u_alt;
},
{
glyphname = be_alt;
layers = (
{
layerId = m01;
shapes = (
{
closed = 1;
nodes = (
(65,140,o),
(125,49,o),
(224,-6,o),
(299,-7,qs),
(360,-7,o),
(454,31,o),
(521,100,o),
(556,197,o),
(556,256,qs),
(556,310,o),
(524,397,o),
(464,459,o),
(379,493,o),
(327,493,qs),
(277,493,o),
(188,458,o),
(154,420,q),
(156,479,o),
(208,561,o),
(264,582,qs),
(300,595,o),
(391,621,o),
(476,648,o),
(544,687,o),
(555,715,q),
(492,793,l),
(480,779,o),
(447,759,o),
(427,751,qs),
(366,728,o),
(239,689,o),
(185,660,qs),
(151,640,o),
(95,585,o),
(76,546,qs),
(51,494,o),
(39,371,o),
(39,312,qs),
(40,253,o)
);
},
{
closed = 1;
nodes = (
(214,117,o),
(178,158,o),
(160,210,o),
(160,239,qs),
(160,309,o),
(239,391,o),
(307,391,qs),
(339,391,o),
(389,369,o),
(424,330,o),
(443,275,o),
(443,244,qs),
(443,214,o),
(424,159,o),
(388,118,o),
(336,92,o),
(301,92,qs),
(267,92,o)
);
}
);
userData = {
assembly = "NPUSHB[ ]	/* 46 values pushed */
21 1 3 0 1 76 13 12 2 0 74 0 0 0 3 2 0 3 105 4 1 2 2 1 97 0 1 1 28 1 78 40 39 50 48 39 56 40 56 35 33 25 23 5 7 22 
CALL[ ]	/* CallFunction */";
};
width = 594;
}
);
note = be_alt;
},
{
glyphname = g_alt;
layers = (
{
layerId = m01;
shapes = (
{
closed = 1;
nodes = (
(416,502,o),
(327,535,o),
(284,535,qs),
(223,535,o),
(131,493,o),
(69,421,o),
(38,320,o),
(38,259,qs),
(38,203,o),
(67,106,o),
(127,34,o),
(218,-7,o),
(278,-7,qs),
(332,-7,o),
(420,28,o),
(444,66,q),
(445,52,o),
(445,39,qs),
(445,18,o),
(440,-39,o),
(426,-71,qs),
(409,-109,o),
(344,-151,o),
(286,-151,qs),
(234,-151,o),
(143,-114,o),
(111,-90,q),
(103,-113,o),
(80,-166,o),
(70,-189,q),
(119,-223,o),
(234,-254,o),
(297,-254,qs),
(374,-254,o),
(478,-206,o),
(509,-163,qs),
(529,-135,o),
(549,-70,o),
(558,-4,o),
(558,29,qs),
(558,527,l),
(456,527,l),
(447,465,l)
);
},
{
closed = 1;
nodes = (
(390,406,o),
(427,361,o),
(445,299,o),
(445,265,qs),
(445,232,o),
(427,170,o),
(391,121,o),
(336,91,o),
(297,91,qs),
(259,91,o),
(204,118,o),
(168,164,o),
(151,225,o),
(151,261,qs),
(151,297,o),
(168,360,o),
(203,406,o),
(258,432,o),
(296,432,qs),
(334,432,o)
);
}
);
userData = {
assembly = "NPUSHB[ ]	/* 18 values pushed */
42 1 5 0 26 1 3 6 15 1 2 3 12 1 1 2 4 76 
MPPEM[ ]	/* MeasurePixelPerEm */
PUSHB[ ]	/* 1 value pushed */
14 
LT[ ]	/* LessThan */
IF[ ]	/* If */
NPUSHB[ ]	/* 33 values pushed */
7 1 5 5 0 97 4 1 0 0 22 77 0 6 6 3 97 0 3 3 28 77 0 2 2 1 97 0 1 1 31 1 78 
ELSE[ ]	/* Else */
MPPEM[ ]	/* MeasurePixelPerEm */
PUSHB[ ]	/* 1 value pushed */
29 
LT[ ]	/* LessThan */
IF[ ]	/* If */
NPUSHB[ ]	/* 30 values pushed */
0 2 0 1 2 1 101 7 1 5 5 0 97 4 1 0 0 22 77 0 6 6 3 97 0 3 3 28 3 78 
ELSE[ ]	/* Else */
NPUSHB[ ]	/* 34 values pushed */
0 2 0 1 2 1 101 0 0 0 22 77 7 1 5 5 4 97 0 4 4 29 77 0 6 6 3 97 0 3 3 28 3 78 
EIF[ ]	/* EndIf */
EIF[ ]	/* EndIf */
NPUSHB[ ]	/* 16 values pushed */
44 43 54 52 43 62 44 62 40 41 39 39 16 8 7 27 
CALL[ ]	/* CallFunction */";
};
width = 620;
}
);
note = g_alt;
},
{
glyphname = y;
layers = (
{
layerId = m01;
shapes = (
{
closed = 1;
nodes = (
(435,275,ls),
(435,240,o),
(422,174,o),
(391,123,o),
(338,91,o),
(298,91,qs),
(259,91,o),
(211,118,o),
(184,163,o),
(175,222,o),
(175,254,qs),
(175,527,l),
(62,527,l),
(62,232,ls),
(62,180,o),
(82,92,o),
(130,28,o),
(214,-8,o),
(273,-7,qs),
(325,-8,o),
(408,26,o),
(436,66,q),
(436,25,o),
(427,-54,o),
(396,-115,o),
(336,-151,o),
(283,-151,qs),
(228,-151,o),
(143,-115,o),
(110,-89,q),
(99,-113,o),
(78,-162,o),
(67,-185,q),
(116,-222,o),
(227,-253,o),
(287,-253,qs),
(388,-253,o),
(508,-172,o),
(531,-100,qs),
(546,-55,o),
(549,39,o),
(549,84,qs),
(549,527,l),
(435,527,l)
);
}
);
userData = {
assembly = "NPUSHB[ ]	/* 14 values pushed */
21 1 2 4 13 1 1 2 10 1 0 1 3 76 
MPPEM[ ]	/* MeasurePixelPerEm */
PUSHB[ ]	/* 1 value pushed */
16 
LT[ ]	/* LessThan */
IF[ ]	/* If */
NPUSHB[ ]	/* 28 values pushed */
6 5 2 3 3 41 77 0 4 4 2 97 0 2 2 47 77 0 1 1 0 97 0 0 0 51 0 78 
ELSE[ ]	/* Else */
NPUSHB[ ]	/* 25 values pushed */
0 1 0 0 1 0 101 6 5 2 3 3 41 77 0 4 4 2 97 0 2 2 47 2 78 
EIF[ ]	/* EndIf */
NPUSHB[ ]	/* 14 values pushed */
0 0 0 43 0 43 37 21 38 39 38 7 8 27 
CALL[ ]	/* CallFunction */";
};
width = 611;
}
);
note = y;
unicode = 121;
},
{
glyphname = t2.alt;
layers = (
{
layerId = m01;
shapes = (
{
closed = 1;
nodes = (
(107,677,l),
(107,527,l),
(24,527,l),
(24,428,l),
(107,428,l),
(107,174,ls),
(107,81,o),
(189,-6,o),
(275,-6,qs),
(308,-6,o),
(376,13,o),
(402,33,q),
(364,118,l),
(334,93,o),
(292,93,qs),
(268,93,o),
(240,111,o),
(225,140,o),
(220,176,o),
(220,196,qs),
(220,428,l),
(378,428,l),
(378,527,l),
(220,527,l),
(220,677,l)
);
}
);
userData = {
assembly = "NPUSHB[ ]	/* 48 values pushed */
11 1 2 1 12 1 3 2 2 76 0 6 0 6 133 4 1 1 1 0 95 5 1 0 0 22 77 0 2 2 3 98 0 3 3 28 3 78 17 17 19 36 37 17 16 7 7 29 
CALL[ ]	/* CallFunction */";
};
width = 412;
}
);
note = t2.alt;
},
{
glyphname = f_alt;
layers = (
{
layerId = m01;
shapes = (
{
closed = 1;
nodes = (
(220,428,l),
(364,428,l),
(364,527,l),
(220,527,l),
(220,572,ls),
(220,614,o),
(251,661,o),
(290,661,qs),
(312,661,o),
(344,650,o),
(358,640,q),
(397,727,l),
(371,745,o),
(312,761,o),
(279,761,qs),
(196,761,o),
(107,674,o),
(107,586,qs),
(107,527,l),
(24,527,l),
(24,428,l),
(107,428,l),
(107,0,l),
(220,0,l)
);
}
);
userData = {
assembly = "NPUSHB[ ]	/* 52 values pushed */
11 1 3 2 12 1 1 3 2 76 0 2 0 3 1 2 3 105 5 1 0 0 1 95 4 1 1 1 22 77 7 1 6 6 21 6 78 0 0 0 23 0 23 17 19 37 35 17 17 8 7 28 
CALL[ ]	/* CallFunction */";
};
width = 369;
}
);
note = f_alt;
},
{
glyphname = hyphen.uc;
layers = (
{
layerId = m01;
shapes = (
{
closed = 1;
nodes = (
(388,300,l),
(388,398,l),
(69,398,l),
(69,300,l)
);
}
);
userData = {
assembly = "NPUSHB[ ]	/* 21 values pushed */
0 0 1 1 0 87 0 0 0 1 95 0 1 0 1 79 17 16 2 7 24 
CALL[ ]	/* CallFunction */";
};
width = 457;
}
);
note = hyphen.uc;
},
{
glyphname = uni00AD.uc;
layers = (
{
layerId = m01;
shapes = (
{
closed = 1;
nodes = (
(388,300,l),
(388,398,l),
(69,398,l),
(69,300,l)
);
}
);
userData = {
assembly = "NPUSHB[ ]	/* 21 values pushed */
0 0 1 1 0 87 0 0 0 1 95 0 1 0 1 79 17 16 2 7 24 
CALL[ ]	/* CallFunction */";
};
width = 457;
}
);
note = uni00AD.uc;
},
{
glyphname = endash.uc;
layers = (
{
layerId = m01;
shapes = (
{
closed = 1;
nodes = (
(533,300,l),
(533,398,l),
(69,398,l),
(69,300,l)
);
}
);
userData = {
assembly = "NPUSHB[ ]	/* 21 values pushed */
0 0 1 1 0 87 0 0 0 1 95 0 1 0 1 79 17 16 2 7 24 
CALL[ ]	/* CallFunction */";
};
width = 602;
}
);
note = endash.uc;
},
{
glyphname = emdash.uc;
layers = (
{
layerId = m01;
shapes = (
{
closed = 1;
nodes = (
(736,300,l),
(736,398,l),
(69,398,l),
(69,300,l)
);
}
);
userData = {
assembly = "NPUSHB[ ]	/* 21 values pushed */
0 0 1 1 0 87 0 0 0 1 95 0 1 0 1 79 17 16 2 7 24 
CALL[ ]	/* CallFunction */";
};
width = 805;
}
);
note = emdash.uc;
},
{
glyphname = a_alt;
kernLeft = a;
layers = (
{
layerId = m01;
shapes = (
{
closed = 1;
nodes = (
(506,0,l),
(506,286,ls),
(506,338,o),
(487,433,o),
(458,468,qs),
(429,505,o),
(338,536,o),
(283,536,qs),
(245,536,o),
(170,520,o),
(109,482,o),
(66,424,o),
(60,382,q),
(178,382,l),
(182,397,o),
(204,419,o),
(231,432,o),
(263,438,o),
(278,438,qs),
(339,438,o),
(395,379,o),
(395,324,q),
(339,322,o),
(215,311,o),
(109,278,o),
(44,204,o),
(44,145,qs),
(45,107,o),
(74,49,o),
(126,12,o),
(192,-6,o),
(230,-6,qs),
(277,-6,o),
(370,28,o),
(398,61,q),
(405,0,l)
);
},
{
closed = 1;
nodes = (
(183,202,o),
(226,220,o),
(278,231,o),
(333,236,o),
(381,239,o),
(397,239,q),
(397,200,o),
(373,142,o),
(332,104,o),
(278,85,o),
(248,85,qs),
(232,85,o),
(204,90,o),
(176,104,o),
(157,130,o),
(157,149,qs),
(157,171,o)
);
}
);
userData = {
assembly = "MPPEM[ ]	/* MeasurePixelPerEm */
PUSHB[ ]	/* 1 value pushed */
38 
LT[ ]	/* LessThan */
IF[ ]	/* If */
NPUSHB[ ]	/* 38 values pushed */
0 3 2 1 2 3 1 128 0 1 0 7 6 1 7 105 0 2 2 4 97 0 4 4 29 77 0 6 6 0 97 5 1 0 0 28 0 78 
ELSE[ ]	/* Else */
NPUSHB[ ]	/* 42 values pushed */
0 3 2 1 2 3 1 128 0 1 0 7 6 1 7 105 0 2 2 4 97 0 4 4 29 77 0 5 5 21 77 0 6 6 0 97 0 0 0 28 0 78 
EIF[ ]	/* EndIf */
NPUSHB[ ]	/* 11 values pushed */
36 37 22 36 20 34 24 34 8 7 30 
CALL[ ]	/* CallFunction */";
};
width = 566;
}
);
note = a_alt;
},
{
glyphname = D;
kernRight = O;
layers = (
{
layerId = m01;
shapes = (
{
closed = 1;
nodes = (
(342,0,ls),
(426,0,o),
(553,48,o),
(638,140,o),
(682,270,o),
(682,353,qs),
(682,435,o),
(638,567,o),
(551,658,o),
(422,707,o),
(338,707,qs),
(82,707,l),
(82,0,l)
);
},
{
closed = 1;
nodes = (
(448,603,o),
(563,471,o),
(563,353,qs),
(563,296,o),
(536,204,o),
(481,139,o),
(397,103,o),
(339,103,qs),
(198,103,l),
(198,603,l),
(338,603,ls)
);
}
);
userData = {
assembly = "NPUSHB[ ]	/* 34 values pushed */
4 1 3 3 0 95 0 0 0 38 77 0 2 2 1 95 0 1 1 39 1 78 13 13 13 23 13 22 34 40 32 5 8 25 
CALL[ ]	/* CallFunction */";
};
width = 726;
}
);
note = D;
unicode = 68;
},
{
glyphname = B;
layers = (
{
layerId = m01;
shapes = (
{
closed = 1;
nodes = (
(341,0,ls),
(390,0,o),
(491,17,o),
(573,63,o),
(626,147,o),
(626,210,qs),
(626,273,o),
(569,360,o),
(501,376,q),
(549,399,o),
(591,479,o),
(591,530,qs),
(591,585,o),
(550,654,o),
(484,693,o),
(402,707,o),
(362,707,qs),
(81,707,l),
(81,0,l)
);
},
{
closed = 1;
nodes = (
(374,603,o),
(421,598,o),
(457,579,o),
(479,542,o),
(479,511,qs),
(479,477,o),
(451,437,o),
(408,416,o),
(354,409,o),
(329,409,qs),
(197,409,l),
(197,603,l),
(349,603,ls)
);
},
{
closed = 1;
nodes = (
(197,308,l),
(219,308,o),
(241,308,qs),
(327,309,ls),
(349,309,o),
(371,309,qs),
(396,309,o),
(445,301,o),
(485,280,o),
(510,241,o),
(510,211,qs),
(510,174,o),
(477,131,o),
(427,109,o),
(367,103,o),
(339,103,qs),
(197,103,l)
);
}
);
userData = {
assembly = "NPUSHB[ ]	/* 57 values pushed */
9 1 5 2 1 76 0 2 0 5 4 2 5 103 6 1 3 3 0 95 0 0 0 38 77 7 1 4 4 1 95 0 1 1 39 1 78 33 32 19 19 47 41 32 48 33 48 19 31 19 30 34 46 32 8 8 25 
CALL[ ]	/* CallFunction */";
};
width = 670;
}
);
note = B;
unicode = 66;
},
{
glyphname = uni0490;
kernRight = uni0413;
layers = (
{
layerId = m01;
shapes = (
{
closed = 1;
nodes = (
(198,603,l),
(555,603,l),
(555,832,l),
(439,832,l),
(439,707,l),
(82,707,l),
(82,0,l),
(198,0,l)
);
}
);
userData = {
assembly = "MPPEM[ ]	/* MeasurePixelPerEm */
PUSHB[ ]	/* 1 value pushed */
10 
LT[ ]	/* LessThan */
IF[ ]	/* If */
NPUSHB[ ]	/* 23 values pushed */
0 1 0 0 1 112 0 2 2 0 95 0 0 0 20 77 4 1 3 3 21 3 78 
ELSE[ ]	/* Else */
NPUSHB[ ]	/* 22 values pushed */
0 1 0 1 133 0 2 2 0 95 0 0 0 20 77 4 1 3 3 21 3 78 
EIF[ ]	/* EndIf */
NPUSHB[ ]	/* 12 values pushed */
0 0 0 7 0 7 17 17 17 5 7 25 
CALL[ ]	/* CallFunction */";
};
width = 579;
}
);
note = uni0490;
unicode = 1168;
},
{
glyphname = uni0491;
kernLeft = uni0433;
kernRight = uni0433;
layers = (
{
layerId = m01;
shapes = (
{
closed = 1;
nodes = (
(176,428,l),
(443,428,l),
(443,668,l),
(332,668,l),
(332,527,l),
(62,527,l),
(62,0,l),
(176,0,l)
);
}
);
userData = {
assembly = "NPUSHB[ ]	/* 34 values pushed */
0 1 0 1 133 0 2 2 0 95 0 0 0 22 77 4 1 3 3 21 3 78 0 0 0 7 0 7 17 17 17 5 7 25 
CALL[ ]	/* CallFunction */";
};
width = 461;
}
);
note = uni0491;
unicode = 1169;
},
